# MagicaVoxel @ Ephtracy

# group
g baliste

# material
mtllib baliste.mtl
usemtl palette

# normals
vn -1 0 0
vn 1 0 0
vn 0 0 1
vn 0 0 -1
vn 0 -1 0
vn 0 1 0

# texcoords
vt 0.373047 0.5
vt 0.537109 0.5
vt 0.962891 0.5
vt 0.978516 0.5

# verts
v -18.5 8 2
v -18.5 8 -2
v -18.5 9 1
v -18.5 9 -1
v -18.5 10 2
v -18.5 10 1
v -18.5 10 -1
v -18.5 10 -2
v -16.5 9 1
v -16.5 9 -1
v -16.5 10 2
v -16.5 10 1
v -16.5 10 -1
v -16.5 10 -2
v -16.5 11 2
v -16.5 11 -2
v -13.5 10 3
v -13.5 10 2
v -13.5 10 -2
v -13.5 10 -3
v -13.5 11 3
v -13.5 11 2
v -13.5 11 -2
v -13.5 11 -3
v -8.5 10 4
v -8.5 10 3
v -8.5 10 -3
v -8.5 10 -4
v -8.5 11 4
v -8.5 11 3
v -8.5 11 -3
v -8.5 11 -4
v -3.5 10 5
v -3.5 10 4
v -3.5 10 -4
v -3.5 10 -5
v -3.5 11 5
v -3.5 11 4
v -3.5 11 -4
v -3.5 11 -5
v -1.5 0 1
v -1.5 0 -1
v -1.5 1 1
v -1.5 1 -1
v 1.5 10 6
v 1.5 10 5
v 1.5 10 -5
v 1.5 10 -6
v 1.5 11 6
v 1.5 11 5
v 1.5 11 -5
v 1.5 11 -6
v 2.5 0 5
v 2.5 0 1
v 2.5 0 -1
v 2.5 0 -5
v 2.5 1 5
v 2.5 1 1
v 2.5 1 -1
v 2.5 1 -5
v 2.5 8 1
v 2.5 8 -1
v 5.5 8 8
v 5.5 8 2
v 5.5 8 -2
v 5.5 8 -8
v 5.5 10 6
v 5.5 10 5
v 5.5 10 2
v 5.5 10 1
v 5.5 10 -1
v 5.5 10 -2
v 5.5 10 -5
v 5.5 10 -6
v 5.5 11 6
v 5.5 11 5
v 5.5 11 1
v 5.5 11 -1
v 5.5 11 -5
v 5.5 11 -6
v 5.5 12 1
v 5.5 12 -1
v 5.5 13 8
v 5.5 13 -8
v 12.5 7 3
v 12.5 7 -3
v 12.5 9 1
v 12.5 9 -1
v 12.5 11 1
v 12.5 11 -1
v 12.5 13 3
v 12.5 13 -3
v -13.5 10 2
v -13.5 10 1
v -13.5 10 -1
v -13.5 10 -2
v -13.5 11 2
v -13.5 11 1
v -13.5 11 -1
v -13.5 11 -2
v -8.5 10 3
v -8.5 10 2
v -8.5 10 -2
v -8.5 10 -3
v -8.5 11 3
v -8.5 11 2
v -8.5 11 -2
v -8.5 11 -3
v -3.5 10 4
v -3.5 10 3
v -3.5 10 -3
v -3.5 10 -4
v -3.5 11 4
v -3.5 11 3
v -3.5 11 -3
v -3.5 11 -4
v 1.5 10 5
v 1.5 10 4
v 1.5 10 -4
v 1.5 10 -5
v 1.5 11 5
v 1.5 11 4
v 1.5 11 -4
v 1.5 11 -5
v 4.5 0 5
v 4.5 0 1
v 4.5 0 -1
v 4.5 0 -5
v 4.5 1 5
v 4.5 1 1
v 4.5 1 -1
v 4.5 1 -5
v 4.5 8 1
v 4.5 8 -1
v 8.5 0 1
v 8.5 0 -1
v 8.5 1 1
v 8.5 1 -1
v 9.5 8 8
v 9.5 8 -8
v 9.5 9 1
v 9.5 9 -1
v 9.5 11 1
v 9.5 11 -1
v 9.5 12 1
v 9.5 12 -1
v 9.5 13 8
v 9.5 13 -8
v 14.5 7 3
v 14.5 7 -3
v 14.5 8 2
v 14.5 8 -2
v 14.5 12 2
v 14.5 12 -2
v 14.5 13 3
v 14.5 13 -3
v 16.5 8 2
v 16.5 8 -2
v 16.5 9 1
v 16.5 9 -1
v 16.5 11 1
v 16.5 11 -1
v 16.5 12 2
v 16.5 12 -2
v 18.5 9 1
v 18.5 9 -1
v 18.5 11 1
v 18.5 11 -1
v 5.5 8 8
v 5.5 13 8
v 9.5 8 8
v 9.5 13 8
v 1.5 10 6
v 1.5 11 6
v 5.5 10 6
v 5.5 11 6
v -3.5 10 5
v -3.5 11 5
v 1.5 10 5
v 1.5 11 5
v 2.5 0 5
v 2.5 1 5
v 4.5 0 5
v 4.5 1 5
v -8.5 10 4
v -8.5 11 4
v -3.5 10 4
v -3.5 11 4
v -13.5 10 3
v -13.5 11 3
v -8.5 10 3
v -8.5 11 3
v 12.5 7 3
v 12.5 13 3
v 14.5 7 3
v 14.5 13 3
v -18.5 8 2
v -18.5 10 2
v -16.5 10 2
v -16.5 11 2
v -13.5 10 2
v -13.5 11 2
v -8.5 10 2
v 5.5 8 2
v 5.5 10 2
v 14.5 8 2
v 14.5 12 2
v 16.5 8 2
v 16.5 12 2
v -13.5 10 1
v -13.5 11 1
v -1.5 0 1
v -1.5 1 1
v 2.5 0 1
v 2.5 1 1
v 2.5 8 1
v 4.5 0 1
v 4.5 1 1
v 4.5 8 1
v 5.5 10 1
v 5.5 11 1
v 8.5 0 1
v 8.5 1 1
v 9.5 9 1
v 9.5 11 1
v 12.5 9 1
v 12.5 11 1
v 16.5 9 1
v 16.5 11 1
v 18.5 9 1
v 18.5 11 1
v -18.5 9 -1
v -18.5 10 -1
v -16.5 9 -1
v -16.5 10 -1
v 5.5 11 -1
v 5.5 12 -1
v 9.5 11 -1
v 9.5 12 -1
v -13.5 10 -2
v -13.5 11 -2
v -8.5 10 -2
v -8.5 11 -2
v -8.5 10 -3
v -8.5 11 -3
v -3.5 10 -3
v -3.5 11 -3
v -3.5 10 -4
v -3.5 11 -4
v 1.5 10 -4
v 1.5 11 -4
v 1.5 10 -5
v 1.5 11 -5
v 5.5 10 -5
v 5.5 11 -5
v 1.5 10 5
v 1.5 11 5
v 5.5 10 5
v 5.5 11 5
v -3.5 10 4
v -3.5 11 4
v 1.5 10 4
v 1.5 11 4
v -8.5 10 3
v -8.5 11 3
v -3.5 10 3
v -3.5 11 3
v -13.5 10 2
v -13.5 11 2
v -8.5 10 2
v -8.5 11 2
v -18.5 9 1
v -18.5 10 1
v -16.5 9 1
v -16.5 10 1
v 5.5 11 1
v 5.5 12 1
v 9.5 11 1
v 9.5 12 1
v -13.5 10 -1
v -13.5 11 -1
v -1.5 0 -1
v -1.5 1 -1
v 2.5 0 -1
v 2.5 1 -1
v 2.5 8 -1
v 4.5 0 -1
v 4.5 1 -1
v 4.5 8 -1
v 5.5 10 -1
v 5.5 11 -1
v 8.5 0 -1
v 8.5 1 -1
v 9.5 9 -1
v 9.5 11 -1
v 12.5 9 -1
v 12.5 11 -1
v 16.5 9 -1
v 16.5 11 -1
v 18.5 9 -1
v 18.5 11 -1
v -18.5 8 -2
v -18.5 10 -2
v -16.5 10 -2
v -16.5 11 -2
v -13.5 10 -2
v -13.5 11 -2
v -8.5 10 -2
v 5.5 8 -2
v 5.5 10 -2
v 14.5 8 -2
v 14.5 12 -2
v 16.5 8 -2
v 16.5 12 -2
v -13.5 10 -3
v -13.5 11 -3
v -8.5 10 -3
v -8.5 11 -3
v 12.5 7 -3
v 12.5 13 -3
v 14.5 7 -3
v 14.5 13 -3
v -8.5 10 -4
v -8.5 11 -4
v -3.5 10 -4
v -3.5 11 -4
v -3.5 10 -5
v -3.5 11 -5
v 1.5 10 -5
v 1.5 11 -5
v 2.5 0 -5
v 2.5 1 -5
v 4.5 0 -5
v 4.5 1 -5
v 1.5 10 -6
v 1.5 11 -6
v 5.5 10 -6
v 5.5 11 -6
v 5.5 8 -8
v 5.5 13 -8
v 9.5 8 -8
v 9.5 13 -8
v 2.5 0 5
v 4.5 0 5
v -1.5 0 1
v 2.5 0 1
v 4.5 0 1
v 8.5 0 1
v -1.5 0 -1
v 2.5 0 -1
v 4.5 0 -1
v 8.5 0 -1
v 2.5 0 -5
v 4.5 0 -5
v 12.5 7 3
v 14.5 7 3
v 12.5 7 -3
v 14.5 7 -3
v 5.5 8 8
v 9.5 8 8
v -18.5 8 2
v 5.5 8 2
v 14.5 8 2
v 16.5 8 2
v 2.5 8 1
v 4.5 8 1
v 2.5 8 -1
v 4.5 8 -1
v -18.5 8 -2
v 5.5 8 -2
v 14.5 8 -2
v 16.5 8 -2
v 5.5 8 -8
v 9.5 8 -8
v 9.5 9 1
v 12.5 9 1
v 16.5 9 1
v 18.5 9 1
v 9.5 9 -1
v 12.5 9 -1
v 16.5 9 -1
v 18.5 9 -1
v 1.5 10 6
v 5.5 10 6
v -3.5 10 5
v 1.5 10 5
v 5.5 10 5
v -8.5 10 4
v -3.5 10 4
v 1.5 10 4
v -13.5 10 3
v -8.5 10 3
v -3.5 10 3
v -13.5 10 2
v -8.5 10 2
v -13.5 10 -2
v -8.5 10 -2
v -13.5 10 -3
v -8.5 10 -3
v -3.5 10 -3
v -8.5 10 -4
v -3.5 10 -4
v 1.5 10 -4
v -3.5 10 -5
v 1.5 10 -5
v 5.5 10 -5
v 1.5 10 -6
v 5.5 10 -6
v 5.5 12 1
v 9.5 12 1
v 5.5 12 -1
v 9.5 12 -1
v 2.5 1 5
v 4.5 1 5
v -1.5 1 1
v 2.5 1 1
v 4.5 1 1
v 8.5 1 1
v -1.5 1 -1
v 2.5 1 -1
v 4.5 1 -1
v 8.5 1 -1
v 2.5 1 -5
v 4.5 1 -5
v -18.5 9 1
v -16.5 9 1
v -18.5 9 -1
v -16.5 9 -1
v -18.5 10 2
v -16.5 10 2
v -13.5 10 2
v -8.5 10 2
v 5.5 10 2
v -18.5 10 1
v -16.5 10 1
v -13.5 10 1
v 5.5 10 1
v -18.5 10 -1
v -16.5 10 -1
v -13.5 10 -1
v 5.5 10 -1
v -18.5 10 -2
v -16.5 10 -2
v -13.5 10 -2
v -8.5 10 -2
v 5.5 10 -2
v 1.5 11 6
v 5.5 11 6
v -3.5 11 5
v 1.5 11 5
v 5.5 11 5
v -8.5 11 4
v -3.5 11 4
v 1.5 11 4
v -13.5 11 3
v -8.5 11 3
v -3.5 11 3
v -16.5 11 2
v -13.5 11 2
v -8.5 11 2
v -15.5 11 1
v -13.5 11 1
v 5.5 11 1
v 9.5 11 1
v 12.5 11 1
v 16.5 11 1
v 18.5 11 1
v -15.5 11 -1
v -13.5 11 -1
v 5.5 11 -1
v 9.5 11 -1
v 12.5 11 -1
v 16.5 11 -1
v 18.5 11 -1
v -16.5 11 -2
v -13.5 11 -2
v -8.5 11 -2
v -13.5 11 -3
v -8.5 11 -3
v -3.5 11 -3
v -8.5 11 -4
v -3.5 11 -4
v 1.5 11 -4
v -3.5 11 -5
v 1.5 11 -5
v 5.5 11 -5
v 1.5 11 -6
v 5.5 11 -6
v 14.5 12 2
v 16.5 12 2
v 14.5 12 -2
v 16.5 12 -2
v 5.5 13 8
v 9.5 13 8
v 12.5 13 3
v 14.5 13 3
v 12.5 13 -3
v 14.5 13 -3
v 5.5 13 -8
v 9.5 13 -8

# faces
f 3/2/1 2/2/1 1/2/1
f 4/2/1 2/2/1 3/2/1
f 5/2/1 3/2/1 1/2/1
f 6/2/1 3/2/1 5/2/1
f 7/2/1 2/2/1 4/2/1
f 8/2/1 2/2/1 7/2/1
f 12/3/1 10/3/1 9/3/1
f 13/3/1 10/3/1 12/3/1
f 15/3/1 12/3/1 11/3/1
f 15/3/1 14/3/1 13/3/1
f 15/3/1 13/3/1 12/3/1
f 16/3/1 14/3/1 15/3/1
f 21/3/1 18/3/1 17/3/1
f 22/3/1 18/3/1 21/3/1
f 23/3/1 20/3/1 19/3/1
f 24/3/1 20/3/1 23/3/1
f 29/3/1 26/3/1 25/3/1
f 30/3/1 26/3/1 29/3/1
f 31/3/1 28/3/1 27/3/1
f 32/3/1 28/3/1 31/3/1
f 37/3/1 34/3/1 33/3/1
f 38/3/1 34/3/1 37/3/1
f 39/3/1 36/3/1 35/3/1
f 40/3/1 36/3/1 39/3/1
f 43/2/1 42/2/1 41/2/1
f 44/2/1 42/2/1 43/2/1
f 49/3/1 46/3/1 45/3/1
f 50/3/1 46/3/1 49/3/1
f 51/3/1 48/3/1 47/3/1
f 52/3/1 48/3/1 51/3/1
f 57/2/1 54/2/1 53/2/1
f 58/2/1 54/2/1 57/2/1
f 59/2/1 56/2/1 55/2/1
f 60/2/1 56/2/1 59/2/1
f 61/2/1 59/2/1 58/2/1
f 62/2/1 59/2/1 61/2/1
f 67/2/1 64/2/1 63/2/1
f 68/2/1 64/2/1 67/2/1
f 69/2/1 64/2/1 68/2/1
f 72/2/1 66/2/1 65/2/1
f 73/2/1 66/2/1 72/2/1
f 74/2/1 66/2/1 73/2/1
f 75/2/1 67/2/1 63/2/1
f 76/2/1 70/2/1 69/2/1
f 76/2/1 69/2/1 68/2/1
f 77/2/1 70/2/1 76/2/1
f 78/2/1 73/2/1 72/2/1
f 78/2/1 72/2/1 71/2/1
f 79/2/1 73/2/1 78/2/1
f 80/2/1 66/2/1 74/2/1
f 81/2/1 77/2/1 76/2/1
f 81/2/1 76/2/1 75/2/1
f 82/2/1 79/2/1 78/2/1
f 82/2/1 80/2/1 79/2/1
f 83/2/1 75/2/1 63/2/1
f 83/2/1 82/2/1 81/2/1
f 83/2/1 81/2/1 75/2/1
f 84/2/1 80/2/1 82/2/1
f 84/2/1 82/2/1 83/2/1
f 84/2/1 66/2/1 80/2/1
f 87/4/1 86/4/1 85/4/1
f 88/4/1 86/4/1 87/4/1
f 89/4/1 87/4/1 85/4/1
f 90/4/1 86/4/1 88/4/1
f 91/4/1 89/4/1 85/4/1
f 91/4/1 90/4/1 89/4/1
f 92/4/1 86/4/1 90/4/1
f 92/4/1 90/4/1 91/4/1
f 93/3/2 94/3/2 97/3/2
f 97/3/2 94/3/2 98/3/2
f 95/3/2 96/3/2 99/3/2
f 99/3/2 96/3/2 100/3/2
f 101/3/2 102/3/2 105/3/2
f 105/3/2 102/3/2 106/3/2
f 103/3/2 104/3/2 107/3/2
f 107/3/2 104/3/2 108/3/2
f 109/3/2 110/3/2 113/3/2
f 113/3/2 110/3/2 114/3/2
f 111/3/2 112/3/2 115/3/2
f 115/3/2 112/3/2 116/3/2
f 117/3/2 118/3/2 121/3/2
f 121/3/2 118/3/2 122/3/2
f 119/3/2 120/3/2 123/3/2
f 123/3/2 120/3/2 124/3/2
f 125/2/2 126/2/2 129/2/2
f 129/2/2 126/2/2 130/2/2
f 127/2/2 128/2/2 131/2/2
f 131/2/2 128/2/2 132/2/2
f 130/2/2 131/2/2 133/2/2
f 133/2/2 131/2/2 134/2/2
f 135/2/2 136/2/2 137/2/2
f 137/2/2 136/2/2 138/2/2
f 139/2/2 140/2/2 141/2/2
f 141/2/2 140/2/2 142/2/2
f 139/2/2 141/2/2 143/2/2
f 142/2/2 140/2/2 144/2/2
f 139/2/2 143/2/2 145/2/2
f 144/2/2 140/2/2 146/2/2
f 139/2/2 145/2/2 147/2/2
f 145/2/2 146/2/2 147/2/2
f 146/2/2 140/2/2 148/2/2
f 147/2/2 146/2/2 148/2/2
f 149/4/2 150/4/2 151/4/2
f 151/4/2 150/4/2 152/4/2
f 149/4/2 151/4/2 153/4/2
f 152/4/2 150/4/2 154/4/2
f 149/4/2 153/4/2 155/4/2
f 153/4/2 154/4/2 155/4/2
f 154/4/2 150/4/2 156/4/2
f 155/4/2 154/4/2 156/4/2
f 157/4/2 158/4/2 159/4/2
f 159/4/2 158/4/2 160/4/2
f 157/4/2 159/4/2 161/4/2
f 160/4/2 158/4/2 162/4/2
f 157/4/2 161/4/2 163/4/2
f 161/4/2 162/4/2 163/4/2
f 162/4/2 158/4/2 164/4/2
f 163/4/2 162/4/2 164/4/2
f 165/4/2 166/4/2 167/4/2
f 167/4/2 166/4/2 168/4/2
f 171/2/3 170/2/3 169/2/3
f 172/2/3 170/2/3 171/2/3
f 175/3/3 174/3/3 173/3/3
f 176/3/3 174/3/3 175/3/3
f 179/3/3 178/3/3 177/3/3
f 180/3/3 178/3/3 179/3/3
f 183/2/3 182/2/3 181/2/3
f 184/2/3 182/2/3 183/2/3
f 187/3/3 186/3/3 185/3/3
f 188/3/3 186/3/3 187/3/3
f 191/3/3 190/3/3 189/3/3
f 192/3/3 190/3/3 191/3/3
f 195/4/3 194/4/3 193/4/3
f 196/4/3 194/4/3 195/4/3
f 199/2/3 198/2/3 197/2/3
f 201/2/3 199/2/3 197/2/3
f 201/3/3 200/3/3 199/3/3
f 202/3/3 200/3/3 201/3/3
f 203/2/3 201/2/3 197/2/3
f 204/2/3 203/2/3 197/2/3
f 205/2/3 203/2/3 204/2/3
f 208/4/3 207/4/3 206/4/3
f 209/4/3 207/4/3 208/4/3
f 214/2/3 213/2/3 212/2/3
f 215/2/3 213/2/3 214/2/3
f 218/2/3 216/2/3 215/2/3
f 219/2/3 216/2/3 218/2/3
f 220/1/3 211/1/3 210/1/3
f 221/1/3 211/1/3 220/1/3
f 222/2/3 218/2/3 217/2/3
f 223/2/3 218/2/3 222/2/3
f 226/1/3 225/1/3 224/1/3
f 227/1/3 225/1/3 226/1/3
f 230/4/3 229/4/3 228/4/3
f 231/4/3 229/4/3 230/4/3
f 234/2/3 233/2/3 232/2/3
f 235/2/3 233/2/3 234/2/3
f 238/2/3 237/2/3 236/2/3
f 239/2/3 237/2/3 238/2/3
f 242/3/3 241/3/3 240/3/3
f 243/3/3 241/3/3 242/3/3
f 246/3/3 245/3/3 244/3/3
f 247/3/3 245/3/3 246/3/3
f 250/3/3 249/3/3 248/3/3
f 251/3/3 249/3/3 250/3/3
f 254/3/3 253/3/3 252/3/3
f 255/3/3 253/3/3 254/3/3
f 256/3/4 257/3/4 258/3/4
f 258/3/4 257/3/4 259/3/4
f 260/3/4 261/3/4 262/3/4
f 262/3/4 261/3/4 263/3/4
f 264/3/4 265/3/4 266/3/4
f 266/3/4 265/3/4 267/3/4
f 268/3/4 269/3/4 270/3/4
f 270/3/4 269/3/4 271/3/4
f 272/2/4 273/2/4 274/2/4
f 274/2/4 273/2/4 275/2/4
f 276/2/4 277/2/4 278/2/4
f 278/2/4 277/2/4 279/2/4
f 282/2/4 283/2/4 284/2/4
f 284/2/4 283/2/4 285/2/4
f 285/2/4 286/2/4 288/2/4
f 288/2/4 286/2/4 289/2/4
f 280/1/4 281/1/4 290/1/4
f 290/1/4 281/1/4 291/1/4
f 287/2/4 288/2/4 292/2/4
f 292/2/4 288/2/4 293/2/4
f 294/1/4 295/1/4 296/1/4
f 296/1/4 295/1/4 297/1/4
f 298/4/4 299/4/4 300/4/4
f 300/4/4 299/4/4 301/4/4
f 302/2/4 303/2/4 304/2/4
f 302/2/4 304/2/4 306/2/4
f 304/3/4 305/3/4 306/3/4
f 306/3/4 305/3/4 307/3/4
f 302/2/4 306/2/4 308/2/4
f 302/2/4 308/2/4 309/2/4
f 309/2/4 308/2/4 310/2/4
f 311/4/4 312/4/4 313/4/4
f 313/4/4 312/4/4 314/4/4
f 315/3/4 316/3/4 317/3/4
f 317/3/4 316/3/4 318/3/4
f 319/4/4 320/4/4 321/4/4
f 321/4/4 320/4/4 322/4/4
f 323/3/4 324/3/4 325/3/4
f 325/3/4 324/3/4 326/3/4
f 327/3/4 328/3/4 329/3/4
f 329/3/4 328/3/4 330/3/4
f 331/2/4 332/2/4 333/2/4
f 333/2/4 332/2/4 334/2/4
f 335/3/4 336/3/4 337/3/4
f 337/3/4 336/3/4 338/3/4
f 339/2/4 340/2/4 341/2/4
f 341/2/4 340/2/4 342/2/4
f 346/2/5 344/2/5 343/2/5
f 347/2/5 344/2/5 346/2/5
f 349/2/5 346/2/5 345/2/5
f 349/2/5 348/2/5 347/2/5
f 349/2/5 347/2/5 346/2/5
f 350/2/5 348/2/5 349/2/5
f 351/2/5 348/2/5 350/2/5
f 352/2/5 348/2/5 351/2/5
f 353/2/5 351/2/5 350/2/5
f 354/2/5 351/2/5 353/2/5
f 357/4/5 356/4/5 355/4/5
f 358/4/5 356/4/5 357/4/5
f 362/2/5 360/2/5 359/2/5
f 365/2/5 362/2/5 361/2/5
f 366/2/5 362/2/5 365/2/5
f 367/2/5 365/2/5 361/2/5
f 368/2/5 362/2/5 366/2/5
f 369/2/5 367/2/5 361/2/5
f 369/2/5 368/2/5 367/2/5
f 370/2/5 360/2/5 362/2/5
f 370/2/5 368/2/5 369/2/5
f 370/2/5 362/2/5 368/2/5
f 371/4/5 364/4/5 363/4/5
f 372/4/5 364/4/5 371/4/5
f 373/2/5 360/2/5 370/2/5
f 374/2/5 360/2/5 373/2/5
f 379/1/5 376/1/5 375/1/5
f 380/1/5 376/1/5 379/1/5
f 381/4/5 378/4/5 377/4/5
f 382/4/5 378/4/5 381/4/5
f 386/3/5 384/3/5 383/3/5
f 387/3/5 384/3/5 386/3/5
f 389/3/5 386/3/5 385/3/5
f 390/3/5 386/3/5 389/3/5
f 392/3/5 389/3/5 388/3/5
f 393/3/5 389/3/5 392/3/5
f 394/3/5 392/3/5 391/3/5
f 395/3/5 392/3/5 394/3/5
f 398/3/5 397/3/5 396/3/5
f 399/3/5 397/3/5 398/3/5
f 401/3/5 400/3/5 399/3/5
f 402/3/5 400/3/5 401/3/5
f 404/3/5 403/3/5 402/3/5
f 405/3/5 403/3/5 404/3/5
f 407/3/5 406/3/5 405/3/5
f 408/3/5 406/3/5 407/3/5
f 411/2/5 410/2/5 409/2/5
f 412/2/5 410/2/5 411/2/5
f 413/2/6 414/2/6 416/2/6
f 416/2/6 414/2/6 417/2/6
f 415/2/6 416/2/6 419/2/6
f 419/2/6 416/2/6 420/2/6
f 417/2/6 418/2/6 421/2/6
f 421/2/6 418/2/6 422/2/6
f 420/2/6 421/2/6 423/2/6
f 423/2/6 421/2/6 424/2/6
f 425/2/6 426/2/6 427/2/6
f 427/2/6 426/2/6 428/2/6
f 429/2/6 430/2/6 434/2/6
f 434/2/6 430/2/6 435/2/6
f 432/2/6 433/2/6 436/2/6
f 431/2/6 432/2/6 436/2/6
f 436/2/6 433/2/6 437/2/6
f 438/2/6 439/2/6 442/2/6
f 442/2/6 439/2/6 443/2/6
f 440/2/6 441/2/6 444/2/6
f 444/2/6 441/2/6 445/2/6
f 445/2/6 441/2/6 446/2/6
f 447/3/6 448/3/6 450/3/6
f 450/3/6 448/3/6 451/3/6
f 449/3/6 450/3/6 453/3/6
f 453/3/6 450/3/6 454/3/6
f 452/3/6 453/3/6 456/3/6
f 456/3/6 453/3/6 457/3/6
f 455/3/6 456/3/6 459/3/6
f 459/3/6 456/3/6 460/3/6
f 458/3/6 459/3/6 461/3/6
f 461/3/6 459/3/6 462/3/6
f 462/1/6 463/1/6 468/1/6
f 461/1/6 462/1/6 468/1/6
f 464/1/6 465/1/6 468/1/6
f 463/1/6 464/1/6 468/1/6
f 458/3/6 461/3/6 468/3/6
f 468/1/6 465/1/6 469/1/6
f 469/1/6 465/1/6 470/1/6
f 470/1/6 465/1/6 471/1/6
f 471/1/6 465/1/6 472/1/6
f 466/4/6 467/4/6 473/4/6
f 473/4/6 467/4/6 474/4/6
f 458/3/6 468/3/6 475/3/6
f 468/3/6 469/3/6 475/3/6
f 475/3/6 469/3/6 476/3/6
f 476/3/6 477/3/6 478/3/6
f 478/3/6 477/3/6 479/3/6
f 479/3/6 480/3/6 481/3/6
f 481/3/6 480/3/6 482/3/6
f 482/3/6 483/3/6 484/3/6
f 484/3/6 483/3/6 485/3/6
f 485/3/6 486/3/6 487/3/6
f 487/3/6 486/3/6 488/3/6
f 489/4/6 490/4/6 491/4/6
f 491/4/6 490/4/6 492/4/6
f 495/4/6 496/4/6 497/4/6
f 497/4/6 496/4/6 498/4/6
f 493/2/6 494/2/6 499/2/6
f 499/2/6 494/2/6 500/2/6
