# MagicaVoxel @ Ephtracy

# group
g mob1

# material
mtllib mob1.mtl
usemtl palette

# normals
vn -1 0 0
vn 1 0 0
vn 0 0 1
vn 0 0 -1
vn 0 -1 0
vn 0 1 0

# texcoords
vt 0.0605469 0.5
vt 0.373047 0.5
vt 0.775391 0.5
vt 0.841797 0.5
vt 0.876953 0.5
vt 0.966797 0.5
vt 0.978516 0.5

# verts
v -4.5 4 0.5
v -4.5 4 -0.5
v -4.5 5 0.5
v -4.5 5 -0.5
v -3.5 3 0.5
v -3.5 3 -0.5
v -3.5 4 4.5
v -3.5 4 0.5
v -3.5 4 -0.5
v -3.5 4 -1.5
v -3.5 4 -2.5
v -3.5 5 4.5
v -3.5 5 0.5
v -3.5 5 -0.5
v -3.5 5 -1.5
v -3.5 5 -2.5
v -3.5 6 0.5
v -3.5 6 -0.5
v -2.5 5 -0.5
v -2.5 5 -1.5
v -2.5 6 -0.5
v -2.5 6 -1.5
v -2.5 7 1.5
v -2.5 7 -3.5
v -2.5 12 1.5
v -2.5 12 -3.5
v -1.5 0 -0.5
v -1.5 0 -1.5
v -1.5 1 -0.5
v -1.5 1 -1.5
v -1.5 2 0.5
v -1.5 2 -0.5
v -1.5 2 -1.5
v -1.5 2 -2.5
v -1.5 3 0.5
v -1.5 3 -2.5
v -1.5 4 0.5
v -1.5 4 -0.5
v -1.5 4 -2.5
v -1.5 5 0.5
v -1.5 5 -0.5
v -1.5 5 -1.5
v -1.5 6 -0.5
v -1.5 6 -1.5
v -1.5 7 0.5
v -1.5 7 -2.5
v -1.5 11 2.5
v -1.5 11 1.5
v -1.5 12 1.5
v -1.5 13 2.5
v -1.5 13 1.5
v -0.5 8 -3.5
v -0.5 8 -4.5
v -0.5 10 2.5
v -0.5 10 1.5
v -0.5 11 2.5
v -0.5 11 1.5
v -0.5 11 -3.5
v -0.5 11 -4.5
v 1.5 0 -0.5
v 1.5 0 -1.5
v 1.5 1 -0.5
v 1.5 1 -1.5
v 1.5 2 -0.5
v 1.5 2 -1.5
v 1.5 12 2.5
v 1.5 12 1.5
v 1.5 13 2.5
v 1.5 13 1.5
v 2.5 8 1.5
v 2.5 8 0.5
v 2.5 9 0.5
v 2.5 10 1.5
v 2.5 10 0.5
v 3.5 4 -0.5
v 3.5 4 -1.5
v 3.5 5 -0.5
v 3.5 5 -1.5
v -2.5 3 0.5
v -2.5 3 -0.5
v -2.5 4 4.5
v -2.5 4 0.5
v -2.5 4 -0.5
v -2.5 4 -1.5
v -2.5 4 -2.5
v -2.5 5 4.5
v -2.5 5 0.5
v -2.5 5 -0.5
v -2.5 5 -1.5
v -2.5 5 -2.5
v -2.5 6 0.5
v -2.5 6 -0.5
v -1.5 8 1.5
v -1.5 8 0.5
v -1.5 9 0.5
v -1.5 10 1.5
v -1.5 10 0.5
v -0.5 0 -0.5
v -0.5 0 -1.5
v -0.5 1 -0.5
v -0.5 1 -1.5
v -0.5 2 -0.5
v -0.5 2 -1.5
v -0.5 12 2.5
v -0.5 12 1.5
v -0.5 13 2.5
v -0.5 13 1.5
v 1.5 8 -3.5
v 1.5 8 -4.5
v 1.5 10 2.5
v 1.5 10 1.5
v 1.5 11 2.5
v 1.5 11 1.5
v 1.5 11 -3.5
v 1.5 11 -4.5
v 2.5 0 -0.5
v 2.5 0 -1.5
v 2.5 1 -0.5
v 2.5 1 -1.5
v 2.5 2 0.5
v 2.5 2 -0.5
v 2.5 2 -1.5
v 2.5 2 -2.5
v 2.5 3 0.5
v 2.5 3 -2.5
v 2.5 4 0.5
v 2.5 4 -2.5
v 2.5 5 -0.5
v 2.5 5 -1.5
v 2.5 6 -0.5
v 2.5 6 -1.5
v 2.5 7 0.5
v 2.5 7 -2.5
v 2.5 11 2.5
v 2.5 11 1.5
v 2.5 12 1.5
v 2.5 13 2.5
v 2.5 13 1.5
v 3.5 5 -0.5
v 3.5 5 -1.5
v 3.5 6 -0.5
v 3.5 6 -1.5
v 3.5 7 1.5
v 3.5 7 -3.5
v 3.5 12 1.5
v 3.5 12 -3.5
v 4.5 4 -0.5
v 4.5 4 -1.5
v 4.5 5 -0.5
v 4.5 5 -1.5
v -3.5 4 4.5
v -3.5 5 4.5
v -2.5 4 4.5
v -2.5 5 4.5
v -1.5 11 2.5
v -1.5 13 2.5
v -0.5 10 2.5
v -0.5 11 2.5
v -0.5 12 2.5
v -0.5 13 2.5
v 1.5 10 2.5
v 1.5 11 2.5
v 1.5 12 2.5
v 1.5 13 2.5
v 2.5 11 2.5
v 2.5 13 2.5
v -2.5 7 1.5
v -2.5 12 1.5
v -1.5 8 1.5
v -1.5 10 1.5
v -1.5 11 1.5
v -1.5 12 1.5
v -0.5 10 1.5
v -0.5 11 1.5
v 1.5 10 1.5
v 1.5 11 1.5
v 2.5 8 1.5
v 2.5 10 1.5
v 2.5 11 1.5
v 2.5 12 1.5
v 3.5 7 1.5
v 3.5 12 1.5
v -4.5 4 0.5
v -4.5 5 0.5
v -3.5 3 0.5
v -3.5 4 0.5
v -3.5 5 0.5
v -3.5 6 0.5
v -2.5 3 0.5
v -2.5 4 0.5
v -2.5 5 0.5
v -2.5 6 0.5
v -1.5 2 0.5
v -1.5 3 0.5
v -1.5 4 0.5
v -1.5 5 0.5
v -1.5 7 0.5
v -1.5 8 0.5
v -1.5 9 0.5
v -1.5 10 0.5
v -0.5 3 0.5
v -0.5 4 0.5
v -0.5 9 0.5
v -0.5 10 0.5
v 1.5 3 0.5
v 1.5 4 0.5
v 1.5 9 0.5
v 1.5 10 0.5
v 2.5 2 0.5
v 2.5 3 0.5
v 2.5 4 0.5
v 2.5 7 0.5
v 2.5 8 0.5
v 2.5 9 0.5
v 2.5 10 0.5
v -2.5 5 -0.5
v -2.5 6 -0.5
v -1.5 0 -0.5
v -1.5 1 -0.5
v -1.5 2 -0.5
v -1.5 5 -0.5
v -1.5 6 -0.5
v -0.5 0 -0.5
v -0.5 1 -0.5
v -0.5 2 -0.5
v 1.5 0 -0.5
v 1.5 1 -0.5
v 1.5 2 -0.5
v 2.5 0 -0.5
v 2.5 1 -0.5
v 2.5 2 -0.5
v 2.5 5 -0.5
v 2.5 6 -0.5
v 3.5 4 -0.5
v 3.5 5 -0.5
v 3.5 6 -0.5
v 4.5 4 -0.5
v 4.5 5 -0.5
v -1.5 12 1.5
v -1.5 13 1.5
v -0.5 12 1.5
v -0.5 13 1.5
v 1.5 12 1.5
v 1.5 13 1.5
v 2.5 12 1.5
v 2.5 13 1.5
v -4.5 4 -0.5
v -4.5 5 -0.5
v -3.5 3 -0.5
v -3.5 4 -0.5
v -3.5 5 -0.5
v -3.5 6 -0.5
v -2.5 3 -0.5
v -2.5 4 -0.5
v -2.5 5 -0.5
v -2.5 6 -0.5
v -1.5 4 -0.5
v -1.5 5 -0.5
v -2.5 5 -1.5
v -2.5 6 -1.5
v -1.5 0 -1.5
v -1.5 1 -1.5
v -1.5 2 -1.5
v -1.5 5 -1.5
v -1.5 6 -1.5
v -0.5 0 -1.5
v -0.5 1 -1.5
v -0.5 2 -1.5
v 1.5 0 -1.5
v 1.5 1 -1.5
v 1.5 2 -1.5
v 2.5 0 -1.5
v 2.5 1 -1.5
v 2.5 2 -1.5
v 2.5 5 -1.5
v 2.5 6 -1.5
v 3.5 4 -1.5
v 3.5 5 -1.5
v 3.5 6 -1.5
v 4.5 4 -1.5
v 4.5 5 -1.5
v -3.5 4 -2.5
v -3.5 5 -2.5
v -2.5 4 -2.5
v -2.5 5 -2.5
v -1.5 2 -2.5
v -1.5 3 -2.5
v -1.5 4 -2.5
v -1.5 7 -2.5
v 2.5 2 -2.5
v 2.5 3 -2.5
v 2.5 4 -2.5
v 2.5 7 -2.5
v -2.5 7 -3.5
v -2.5 12 -3.5
v -0.5 8 -3.5
v -0.5 11 -3.5
v 1.5 8 -3.5
v 1.5 11 -3.5
v 3.5 7 -3.5
v 3.5 12 -3.5
v -0.5 8 -4.5
v -0.5 11 -4.5
v 1.5 8 -4.5
v 1.5 11 -4.5
v -1.5 0 -0.5
v -0.5 0 -0.5
v 1.5 0 -0.5
v 2.5 0 -0.5
v -1.5 0 -1.5
v -0.5 0 -1.5
v 1.5 0 -1.5
v 2.5 0 -1.5
v -1.5 2 0.5
v 2.5 2 0.5
v -1.5 2 -0.5
v -0.5 2 -0.5
v 1.5 2 -0.5
v 2.5 2 -0.5
v -1.5 2 -1.5
v -0.5 2 -1.5
v 1.5 2 -1.5
v 2.5 2 -1.5
v -1.5 2 -2.5
v 2.5 2 -2.5
v -3.5 3 0.5
v -2.5 3 0.5
v -3.5 3 -0.5
v -2.5 3 -0.5
v -3.5 4 4.5
v -2.5 4 4.5
v -4.5 4 0.5
v -3.5 4 0.5
v -2.5 4 0.5
v -1.5 4 0.5
v -4.5 4 -0.5
v -3.5 4 -0.5
v -2.5 4 -0.5
v -1.5 4 -0.5
v 3.5 4 -0.5
v 4.5 4 -0.5
v -3.5 4 -1.5
v -2.5 4 -1.5
v 3.5 4 -1.5
v 4.5 4 -1.5
v -3.5 4 -2.5
v -2.5 4 -2.5
v -2.5 5 -0.5
v -1.5 5 -0.5
v 2.5 5 -0.5
v 3.5 5 -0.5
v -2.5 5 -1.5
v -1.5 5 -1.5
v 2.5 5 -1.5
v 3.5 5 -1.5
v -2.5 7 1.5
v 3.5 7 1.5
v -1.5 7 0.5
v 2.5 7 0.5
v -1.5 7 -2.5
v 2.5 7 -2.5
v -2.5 7 -3.5
v 3.5 7 -3.5
v -0.5 8 -3.5
v 1.5 8 -3.5
v -0.5 8 -4.5
v 1.5 8 -4.5
v -0.5 10 2.5
v 1.5 10 2.5
v -1.5 10 1.5
v -0.5 10 1.5
v 1.5 10 1.5
v 2.5 10 1.5
v -1.5 10 0.5
v -0.5 10 0.5
v 1.5 10 0.5
v 2.5 10 0.5
v -1.5 11 2.5
v -0.5 11 2.5
v 1.5 11 2.5
v 2.5 11 2.5
v -1.5 11 1.5
v -0.5 11 1.5
v 1.5 11 1.5
v 2.5 11 1.5
v -3.5 5 4.5
v -2.5 5 4.5
v -4.5 5 0.5
v -3.5 5 0.5
v -2.5 5 0.5
v -1.5 5 0.5
v -4.5 5 -0.5
v -3.5 5 -0.5
v -2.5 5 -0.5
v -1.5 5 -0.5
v 3.5 5 -0.5
v 4.5 5 -0.5
v -3.5 5 -1.5
v -2.5 5 -1.5
v 3.5 5 -1.5
v 4.5 5 -1.5
v -3.5 5 -2.5
v -2.5 5 -2.5
v -3.5 6 0.5
v -2.5 6 0.5
v -3.5 6 -0.5
v -2.5 6 -0.5
v -1.5 6 -0.5
v 2.5 6 -0.5
v 3.5 6 -0.5
v -2.5 6 -1.5
v -1.5 6 -1.5
v 2.5 6 -1.5
v 3.5 6 -1.5
v -1.5 8 1.5
v 2.5 8 1.5
v -1.5 8 0.5
v 2.5 8 0.5
v -0.5 11 -3.5
v 1.5 11 -3.5
v -0.5 11 -4.5
v 1.5 11 -4.5
v -0.5 12 2.5
v 1.5 12 2.5
v -2.5 12 1.5
v -1.5 12 1.5
v -0.5 12 1.5
v 1.5 12 1.5
v 2.5 12 1.5
v 3.5 12 1.5
v -2.5 12 -3.5
v 3.5 12 -3.5
v -1.5 13 2.5
v -0.5 13 2.5
v 1.5 13 2.5
v 2.5 13 2.5
v -1.5 13 1.5
v -0.5 13 1.5
v 1.5 13 1.5
v 2.5 13 1.5

# faces
f 3/5/1 2/5/1 1/5/1
f 4/5/1 2/5/1 3/5/1
f 8/5/1 6/5/1 5/5/1
f 9/5/1 6/5/1 8/5/1
f 12/6/1 8/6/1 7/6/1
f 13/6/1 8/6/1 12/6/1
f 14/2/1 10/2/1 9/2/1
f 15/5/1 11/5/1 10/5/1
f 15/2/1 10/2/1 14/2/1
f 16/5/1 11/5/1 15/5/1
f 17/5/1 14/5/1 13/5/1
f 18/5/1 14/5/1 17/5/1
f 21/2/1 20/2/1 19/2/1
f 22/2/1 20/2/1 21/2/1
f 25/2/1 24/2/1 23/2/1
f 26/2/1 24/2/1 25/2/1
f 29/5/1 28/5/1 27/5/1
f 30/5/1 28/5/1 29/5/1
f 32/2/1 30/2/1 29/2/1
f 33/2/1 30/2/1 32/2/1
f 35/2/1 33/2/1 32/2/1
f 35/2/1 34/2/1 33/2/1
f 35/2/1 32/2/1 31/2/1
f 36/2/1 34/2/1 35/2/1
f 37/5/1 36/5/1 35/5/1
f 38/5/1 36/5/1 37/5/1
f 39/5/1 36/5/1 38/5/1
f 41/2/1 39/2/1 38/2/1
f 42/2/1 39/2/1 41/2/1
f 43/2/1 41/2/1 40/2/1
f 44/2/1 39/2/1 42/2/1
f 45/2/1 43/2/1 40/2/1
f 45/2/1 44/2/1 43/2/1
f 46/2/1 39/2/1 44/2/1
f 46/2/1 44/2/1 45/2/1
f 49/7/1 48/7/1 47/7/1
f 50/7/1 49/7/1 47/7/1
f 51/7/1 49/7/1 50/7/1
f 56/7/1 55/7/1 54/7/1
f 57/7/1 55/7/1 56/7/1
f 58/2/1 53/2/1 52/2/1
f 59/2/1 53/2/1 58/2/1
f 62/5/1 61/5/1 60/5/1
f 63/5/1 61/5/1 62/5/1
f 64/2/1 63/2/1 62/2/1
f 65/2/1 63/2/1 64/2/1
f 68/7/1 67/7/1 66/7/1
f 69/7/1 67/7/1 68/7/1
f 72/2/1 71/2/1 70/2/1
f 73/2/1 72/2/1 70/2/1
f 74/2/1 72/2/1 73/2/1
f 77/2/1 76/2/1 75/2/1
f 78/2/1 76/2/1 77/2/1
f 79/5/2 80/5/2 82/5/2
f 82/5/2 80/5/2 83/5/2
f 81/6/2 82/6/2 86/6/2
f 86/6/2 82/6/2 87/6/2
f 83/2/2 84/2/2 88/2/2
f 84/5/2 85/5/2 89/5/2
f 88/2/2 84/2/2 89/2/2
f 89/5/2 85/5/2 90/5/2
f 87/5/2 88/5/2 91/5/2
f 91/5/2 88/5/2 92/5/2
f 93/2/2 94/2/2 95/2/2
f 93/2/2 95/2/2 96/2/2
f 96/2/2 95/2/2 97/2/2
f 98/5/2 99/5/2 100/5/2
f 100/5/2 99/5/2 101/5/2
f 100/2/2 101/2/2 102/2/2
f 102/2/2 101/2/2 103/2/2
f 104/7/2 105/7/2 106/7/2
f 106/7/2 105/7/2 107/7/2
f 110/7/2 111/7/2 112/7/2
f 112/7/2 111/7/2 113/7/2
f 108/2/2 109/2/2 114/2/2
f 114/2/2 109/2/2 115/2/2
f 116/5/2 117/5/2 118/5/2
f 118/5/2 117/5/2 119/5/2
f 118/2/2 119/2/2 121/2/2
f 121/2/2 119/2/2 122/2/2
f 121/2/2 122/2/2 124/2/2
f 122/2/2 123/2/2 124/2/2
f 120/2/2 121/2/2 124/2/2
f 124/2/2 123/2/2 125/2/2
f 124/5/2 125/5/2 126/5/2
f 126/5/2 125/5/2 127/5/2
f 126/2/2 127/2/2 128/2/2
f 128/2/2 127/2/2 129/2/2
f 126/2/2 128/2/2 130/2/2
f 129/2/2 127/2/2 131/2/2
f 126/2/2 130/2/2 132/2/2
f 130/2/2 131/2/2 132/2/2
f 131/2/2 127/2/2 133/2/2
f 132/2/2 131/2/2 133/2/2
f 134/7/2 135/7/2 136/7/2
f 134/7/2 136/7/2 137/7/2
f 137/7/2 136/7/2 138/7/2
f 139/2/2 140/2/2 141/2/2
f 141/2/2 140/2/2 142/2/2
f 143/2/2 144/2/2 145/2/2
f 145/2/2 144/2/2 146/2/2
f 147/2/2 148/2/2 149/2/2
f 149/2/2 148/2/2 150/2/2
f 153/6/3 152/6/3 151/6/3
f 154/6/3 152/6/3 153/6/3
f 158/7/3 156/7/3 155/7/3
f 159/7/3 156/7/3 158/7/3
f 160/7/3 156/7/3 159/7/3
f 161/7/3 158/7/3 157/7/3
f 161/7/3 159/7/3 158/7/3
f 162/7/3 159/7/3 161/7/3
f 163/7/3 159/7/3 162/7/3
f 165/7/3 164/7/3 163/7/3
f 165/7/3 163/7/3 162/7/3
f 166/7/3 164/7/3 165/7/3
f 169/2/3 168/2/3 167/2/3
f 170/2/3 168/2/3 169/2/3
f 171/2/3 168/2/3 170/2/3
f 172/2/3 168/2/3 171/2/3
f 173/5/3 171/5/3 170/5/3
f 174/5/3 171/5/3 173/5/3
f 177/2/3 169/2/3 167/2/3
f 178/5/3 176/5/3 175/5/3
f 179/5/3 176/5/3 178/5/3
f 181/2/3 177/2/3 167/2/3
f 181/2/3 180/2/3 179/2/3
f 181/2/3 178/2/3 177/2/3
f 181/2/3 179/2/3 178/2/3
f 182/2/3 180/2/3 181/2/3
f 186/5/3 184/5/3 183/5/3
f 187/5/3 184/5/3 186/5/3
f 189/5/3 186/5/3 185/5/3
f 190/5/3 186/5/3 189/5/3
f 191/5/3 188/5/3 187/5/3
f 192/5/3 188/5/3 191/5/3
f 195/5/3 191/5/3 190/5/3
f 196/5/3 191/5/3 195/5/3
f 201/2/3 194/2/3 193/2/3
f 201/5/3 195/5/3 194/5/3
f 202/2/3 196/2/3 195/2/3
f 202/5/3 195/5/3 201/5/3
f 202/2/3 197/2/3 196/2/3
f 203/4/3 200/4/3 199/4/3
f 203/1/3 199/1/3 198/1/3
f 204/4/3 200/4/3 203/4/3
f 205/2/3 201/2/3 193/2/3
f 205/7/3 202/7/3 201/7/3
f 206/2/3 197/2/3 202/2/3
f 206/7/3 202/7/3 205/7/3
f 207/1/3 204/1/3 203/1/3
f 207/1/3 203/1/3 198/1/3
f 208/1/3 204/1/3 207/1/3
f 209/2/3 205/2/3 193/2/3
f 210/5/3 206/5/3 205/5/3
f 210/2/3 205/2/3 209/2/3
f 211/2/3 197/2/3 206/2/3
f 211/5/3 206/5/3 210/5/3
f 212/2/3 197/2/3 211/2/3
f 213/1/3 207/1/3 198/1/3
f 214/4/3 208/4/3 207/4/3
f 214/1/3 207/1/3 213/1/3
f 215/4/3 208/4/3 214/4/3
f 221/2/3 217/2/3 216/2/3
f 222/2/3 217/2/3 221/2/3
f 223/5/3 219/5/3 218/5/3
f 224/2/3 220/2/3 219/2/3
f 224/5/3 219/5/3 223/5/3
f 225/2/3 220/2/3 224/2/3
f 229/5/3 227/5/3 226/5/3
f 230/2/3 228/2/3 227/2/3
f 230/5/3 227/5/3 229/5/3
f 231/2/3 228/2/3 230/2/3
f 235/2/3 233/2/3 232/2/3
f 236/2/3 233/2/3 235/2/3
f 237/2/3 235/2/3 234/2/3
f 238/2/3 235/2/3 237/2/3
f 239/7/4 240/7/4 241/7/4
f 241/7/4 240/7/4 242/7/4
f 243/7/4 244/7/4 245/7/4
f 245/7/4 244/7/4 246/7/4
f 247/5/4 248/5/4 250/5/4
f 250/5/4 248/5/4 251/5/4
f 249/5/4 250/5/4 253/5/4
f 253/5/4 250/5/4 254/5/4
f 251/5/4 252/5/4 255/5/4
f 255/5/4 252/5/4 256/5/4
f 254/5/4 255/5/4 257/5/4
f 257/5/4 255/5/4 258/5/4
f 259/2/4 260/2/4 264/2/4
f 264/2/4 260/2/4 265/2/4
f 261/5/4 262/5/4 266/5/4
f 262/2/4 263/2/4 267/2/4
f 266/5/4 262/5/4 267/5/4
f 267/2/4 263/2/4 268/2/4
f 269/5/4 270/5/4 272/5/4
f 270/2/4 271/2/4 273/2/4
f 272/5/4 270/5/4 273/5/4
f 273/2/4 271/2/4 274/2/4
f 275/2/4 276/2/4 278/2/4
f 278/2/4 276/2/4 279/2/4
f 277/2/4 278/2/4 280/2/4
f 280/2/4 278/2/4 281/2/4
f 282/5/4 283/5/4 284/5/4
f 284/5/4 283/5/4 285/5/4
f 286/2/4 287/2/4 290/2/4
f 287/5/4 288/5/4 291/5/4
f 290/2/4 287/2/4 291/2/4
f 288/2/4 289/2/4 292/2/4
f 291/5/4 288/5/4 292/5/4
f 292/2/4 289/2/4 293/2/4
f 294/2/4 295/2/4 296/2/4
f 296/2/4 295/2/4 297/2/4
f 294/2/4 296/2/4 298/2/4
f 297/2/4 295/2/4 299/2/4
f 294/2/4 298/2/4 300/2/4
f 298/2/4 299/2/4 300/2/4
f 299/2/4 295/2/4 301/2/4
f 300/2/4 299/2/4 301/2/4
f 302/2/4 303/2/4 304/2/4
f 304/2/4 303/2/4 305/2/4
f 310/5/5 307/5/5 306/5/5
f 311/5/5 307/5/5 310/5/5
f 312/5/5 309/5/5 308/5/5
f 313/5/5 309/5/5 312/5/5
f 316/2/5 315/2/5 314/2/5
f 317/2/5 315/2/5 316/2/5
f 318/2/5 315/2/5 317/2/5
f 319/2/5 315/2/5 318/2/5
f 321/2/5 318/2/5 317/2/5
f 322/2/5 318/2/5 321/2/5
f 324/2/5 321/2/5 320/2/5
f 324/2/5 323/2/5 322/2/5
f 324/2/5 322/2/5 321/2/5
f 325/2/5 323/2/5 324/2/5
f 328/5/5 327/5/5 326/5/5
f 329/5/5 327/5/5 328/5/5
f 333/6/5 331/6/5 330/6/5
f 334/6/5 331/6/5 333/6/5
f 336/5/5 333/5/5 332/5/5
f 337/5/5 333/5/5 336/5/5
f 338/5/5 335/5/5 334/5/5
f 339/5/5 335/5/5 338/5/5
f 342/2/5 338/2/5 337/2/5
f 343/2/5 338/2/5 342/2/5
f 344/2/5 341/2/5 340/2/5
f 345/2/5 341/2/5 344/2/5
f 346/5/5 343/5/5 342/5/5
f 347/5/5 343/5/5 346/5/5
f 352/2/5 349/2/5 348/2/5
f 353/2/5 349/2/5 352/2/5
f 354/2/5 351/2/5 350/2/5
f 355/2/5 351/2/5 354/2/5
f 358/2/5 357/2/5 356/2/5
f 359/2/5 357/2/5 358/2/5
f 360/2/5 358/2/5 356/2/5
f 361/2/5 357/2/5 359/2/5
f 362/2/5 360/2/5 356/2/5
f 362/2/5 361/2/5 360/2/5
f 363/2/5 357/2/5 361/2/5
f 363/2/5 361/2/5 362/2/5
f 366/2/5 365/2/5 364/2/5
f 367/2/5 365/2/5 366/2/5
f 371/7/5 369/7/5 368/7/5
f 372/7/5 369/7/5 371/7/5
f 374/5/5 371/5/5 370/5/5
f 374/5/5 373/5/5 372/5/5
f 374/5/5 372/5/5 371/5/5
f 375/5/5 373/5/5 374/5/5
f 376/5/5 373/5/5 375/5/5
f 377/5/5 373/5/5 376/5/5
f 382/7/5 379/7/5 378/7/5
f 383/7/5 379/7/5 382/7/5
f 384/7/5 381/7/5 380/7/5
f 385/7/5 381/7/5 384/7/5
f 386/6/6 387/6/6 389/6/6
f 389/6/6 387/6/6 390/6/6
f 388/5/6 389/5/6 392/5/6
f 392/5/6 389/5/6 393/5/6
f 390/5/6 391/5/6 394/5/6
f 394/5/6 391/5/6 395/5/6
f 393/2/6 394/2/6 398/2/6
f 398/2/6 394/2/6 399/2/6
f 396/2/6 397/2/6 400/2/6
f 400/2/6 397/2/6 401/2/6
f 398/5/6 399/5/6 402/5/6
f 402/5/6 399/5/6 403/5/6
f 404/5/6 405/5/6 406/5/6
f 406/5/6 405/5/6 407/5/6
f 407/2/6 408/2/6 411/2/6
f 411/2/6 408/2/6 412/2/6
f 409/2/6 410/2/6 413/2/6
f 413/2/6 410/2/6 414/2/6
f 415/2/6 416/2/6 417/2/6
f 417/2/6 416/2/6 418/2/6
f 419/2/6 420/2/6 421/2/6
f 421/2/6 420/2/6 422/2/6
f 423/7/6 424/7/6 427/7/6
f 427/7/6 424/7/6 428/7/6
f 425/2/6 426/2/6 431/2/6
f 429/2/6 430/2/6 431/2/6
f 428/2/6 429/2/6 431/2/6
f 427/2/6 428/2/6 431/2/6
f 426/2/6 427/2/6 431/2/6
f 431/2/6 430/2/6 432/2/6
f 433/7/6 434/7/6 437/7/6
f 437/7/6 434/7/6 438/7/6
f 435/7/6 436/7/6 439/7/6
f 439/7/6 436/7/6 440/7/6
