# MagicaVoxel @ Ephtracy

# group
g mob2

# material
mtllib mob2.mtl
usemtl palette

# normals
vn -1 0 0
vn 1 0 0
vn 0 0 1
vn 0 0 -1
vn 0 -1 0
vn 0 1 0

# texcoords
vt 0.0605469 0.5
vt 0.0683594 0.5
vt 0.373047 0.5
vt 0.810547 0.5
vt 0.841797 0.5
vt 0.861328 0.5
vt 0.876953 0.5
vt 0.962891 0.5

# verts
v -5 7 -0
v -5 7 -3
v -5 8 -0
v -5 8 -3
v -4 4 4
v -4 4 -0
v -4 4 -1
v -4 4 -2
v -4 4 -3
v -4 5 4
v -4 5 -0
v -4 5 -1
v -4 5 -2
v -4 5 -3
v -4 8 -0
v -4 8 -3
v -4 9 -0
v -4 9 -3
v -4 10 -0
v -4 10 -3
v -4 12 1
v -4 12 -0
v -4 13 1
v -4 13 -0
v -3 5 -1
v -3 5 -2
v -3 6 -1
v -3 6 -2
v -3 7 -3
v -3 7 -4
v -3 8 -3
v -3 8 -4
v -3 9 -3
v -3 9 -4
v -3 10 -3
v -3 10 -4
v -3 11 1
v -3 11 -0
v -3 12 1
v -3 12 -0
v -2 0 -1
v -2 0 -2
v -2 1 -1
v -2 1 -2
v -2 2 -0
v -2 2 -1
v -2 2 -2
v -2 2 -3
v -2 3 -0
v -2 3 -3
v -2 4 -0
v -2 4 -3
v -2 5 -1
v -2 5 -2
v -2 6 -1
v -2 6 -2
v -2 7 -0
v -2 7 -3
v -2 10 1
v -2 10 -0
v -2 10 -3
v -2 11 1
v -2 11 -0
v -2 11 -3
v -1 9 1
v -1 9 -0
v -1 10 1
v -1 10 -0
v -1 11 -0
v -1 11 -3
v -1 12 -0
v -1 12 -3
v 1 0 -1
v 1 0 -2
v 1 1 -1
v 1 1 -2
v 1 2 -1
v 1 2 -2
v 2 11 1
v 2 11 -0
v 2 12 1
v 2 12 -0
v 3 4 4
v 3 4 -0
v 3 4 -1
v 3 4 -2
v 3 4 -3
v 3 5 4
v 3 5 -0
v 3 5 -1
v 3 5 -2
v 3 5 -3
v 3 12 1
v 3 12 -0
v 3 13 1
v 3 13 -0
v -3 4 4
v -3 4 -0
v -3 4 -1
v -3 4 -2
v -3 4 -3
v -3 5 4
v -3 5 -0
v -3 5 -1
v -3 5 -2
v -3 5 -3
v -3 12 1
v -3 12 -0
v -3 13 1
v -3 13 -0
v -2 11 1
v -2 11 -0
v -2 12 1
v -2 12 -0
v -1 0 -1
v -1 0 -2
v -1 1 -1
v -1 1 -2
v -1 2 -1
v -1 2 -2
v 1 9 1
v 1 9 -0
v 1 10 1
v 1 10 -0
v 1 11 -0
v 1 11 -3
v 1 12 -0
v 1 12 -3
v 2 0 -1
v 2 0 -2
v 2 1 -1
v 2 1 -2
v 2 2 -0
v 2 2 -1
v 2 2 -2
v 2 2 -3
v 2 3 -0
v 2 3 -3
v 2 4 -0
v 2 4 -3
v 2 5 -1
v 2 5 -2
v 2 6 -1
v 2 6 -2
v 2 7 -0
v 2 7 -3
v 2 10 1
v 2 10 -0
v 2 10 -3
v 2 11 1
v 2 11 -0
v 2 11 -3
v 3 5 -1
v 3 5 -2
v 3 6 -1
v 3 6 -2
v 3 7 -3
v 3 7 -4
v 3 8 -3
v 3 8 -4
v 3 9 -3
v 3 9 -4
v 3 10 -3
v 3 10 -4
v 3 11 1
v 3 11 -0
v 3 12 1
v 3 12 -0
v 4 4 4
v 4 4 -0
v 4 4 -1
v 4 4 -2
v 4 4 -3
v 4 5 4
v 4 5 -0
v 4 5 -1
v 4 5 -2
v 4 5 -3
v 4 8 -0
v 4 8 -3
v 4 9 -0
v 4 9 -3
v 4 10 -0
v 4 10 -3
v 4 12 1
v 4 12 -0
v 4 13 1
v 4 13 -0
v 5 7 -0
v 5 7 -3
v 5 8 -0
v 5 8 -3
v -4 4 4
v -4 5 4
v -3 4 4
v -3 5 4
v 3 4 4
v 3 5 4
v 4 4 4
v 4 5 4
v -4 12 1
v -4 13 1
v -3 11 1
v -3 12 1
v -3 13 1
v -2 10 1
v -2 11 1
v -2 12 1
v -1 9 1
v -1 10 1
v 1 9 1
v 1 10 1
v 2 10 1
v 2 11 1
v 2 12 1
v 3 11 1
v 3 12 1
v 3 13 1
v 4 12 1
v 4 13 1
v -5 7 -0
v -5 8 -0
v -4 7 -0
v -4 8 -0
v -4 9 -0
v -4 10 -0
v -3 9 -0
v -3 10 -0
v -2 2 -0
v -2 3 -0
v -2 4 -0
v -2 7 -0
v -2 8 -0
v -2 9 -0
v -2 10 -0
v -1 8 -0
v -1 9 -0
v -1 10 -0
v -1 11 -0
v -1 12 -0
v 1 8 -0
v 1 9 -0
v 1 10 -0
v 1 11 -0
v 1 12 -0
v 2 2 -0
v 2 3 -0
v 2 4 -0
v 2 7 -0
v 2 8 -0
v 2 9 -0
v 2 10 -0
v 3 9 -0
v 3 10 -0
v 4 7 -0
v 4 8 -0
v 4 9 -0
v 4 10 -0
v 5 7 -0
v 5 8 -0
v -3 5 -1
v -3 6 -1
v -2 0 -1
v -2 1 -1
v -2 2 -1
v -2 5 -1
v -2 6 -1
v -1 0 -1
v -1 1 -1
v -1 2 -1
v 1 0 -1
v 1 1 -1
v 1 2 -1
v 2 0 -1
v 2 1 -1
v 2 2 -1
v 2 5 -1
v 2 6 -1
v 3 5 -1
v 3 6 -1
v -4 12 -0
v -4 13 -0
v -3 11 -0
v -3 12 -0
v -3 13 -0
v -2 11 -0
v -2 12 -0
v 2 11 -0
v 2 12 -0
v 3 11 -0
v 3 12 -0
v 3 13 -0
v 4 12 -0
v 4 13 -0
v -3 5 -2
v -3 6 -2
v -2 0 -2
v -2 1 -2
v -2 2 -2
v -2 5 -2
v -2 6 -2
v -1 0 -2
v -1 1 -2
v -1 2 -2
v 1 0 -2
v 1 1 -2
v 1 2 -2
v 2 0 -2
v 2 1 -2
v 2 2 -2
v 2 5 -2
v 2 6 -2
v 3 5 -2
v 3 6 -2
v -5 7 -3
v -5 8 -3
v -4 4 -3
v -4 5 -3
v -4 8 -3
v -4 9 -3
v -4 10 -3
v -3 4 -3
v -3 5 -3
v -3 7 -3
v -3 8 -3
v -3 9 -3
v -3 10 -3
v -2 2 -3
v -2 3 -3
v -2 4 -3
v -2 7 -3
v -2 10 -3
v -2 11 -3
v -1 11 -3
v -1 12 -3
v 1 11 -3
v 1 12 -3
v 2 2 -3
v 2 3 -3
v 2 4 -3
v 2 7 -3
v 2 10 -3
v 2 11 -3
v 3 4 -3
v 3 5 -3
v 3 7 -3
v 3 8 -3
v 3 9 -3
v 3 10 -3
v 4 4 -3
v 4 5 -3
v 4 8 -3
v 4 9 -3
v 4 10 -3
v 5 7 -3
v 5 8 -3
v -3 7 -4
v -3 8 -4
v -3 9 -4
v -3 10 -4
v 3 7 -4
v 3 8 -4
v 3 9 -4
v 3 10 -4
v -2 0 -1
v -1 0 -1
v 1 0 -1
v 2 0 -1
v -2 0 -2
v -1 0 -2
v 1 0 -2
v 2 0 -2
v -2 2 -0
v 2 2 -0
v -2 2 -1
v -1 2 -1
v 1 2 -1
v 2 2 -1
v -2 2 -2
v -1 2 -2
v 1 2 -2
v 2 2 -2
v -2 2 -3
v 2 2 -3
v -4 4 4
v -3 4 4
v 3 4 4
v 4 4 4
v -4 4 -0
v -3 4 -0
v 3 4 -0
v 4 4 -0
v -4 4 -1
v -3 4 -1
v 3 4 -1
v 4 4 -1
v -4 4 -2
v -3 4 -2
v 3 4 -2
v 4 4 -2
v -4 4 -3
v -3 4 -3
v 3 4 -3
v 4 4 -3
v -3 5 -1
v -2 5 -1
v 2 5 -1
v 3 5 -1
v -3 5 -2
v -2 5 -2
v 2 5 -2
v 3 5 -2
v -5 7 -0
v -4 7 -0
v -2 7 -0
v 2 7 -0
v 4 7 -0
v 5 7 -0
v -4 7 -2
v -3 7 -2
v 3 7 -2
v 4 7 -2
v -5 7 -3
v -3 7 -3
v -2 7 -3
v 2 7 -3
v 3 7 -3
v 5 7 -3
v -3 7 -4
v 3 7 -4
v -1 9 1
v 1 9 1
v -1 9 -0
v 1 9 -0
v -2 10 1
v -1 10 1
v 1 10 1
v 2 10 1
v -2 10 -0
v -1 10 -0
v 1 10 -0
v 2 10 -0
v -3 11 1
v -2 11 1
v 2 11 1
v 3 11 1
v -3 11 -0
v -2 11 -0
v 2 11 -0
v 3 11 -0
v -4 12 1
v -3 12 1
v 3 12 1
v 4 12 1
v -4 12 -0
v -3 12 -0
v 3 12 -0
v 4 12 -0
v -4 5 4
v -3 5 4
v 3 5 4
v 4 5 4
v -4 5 -0
v -3 5 -0
v 3 5 -0
v 4 5 -0
v -4 5 -1
v -3 5 -1
v 3 5 -1
v 4 5 -1
v -4 5 -2
v -3 5 -2
v 3 5 -2
v 4 5 -2
v -4 5 -3
v -3 5 -3
v 3 5 -3
v 4 5 -3
v -3 6 -1
v -2 6 -1
v 2 6 -1
v 3 6 -1
v -3 6 -2
v -2 6 -2
v 2 6 -2
v 3 6 -2
v -5 8 -0
v -4 8 -0
v 4 8 -0
v 5 8 -0
v -5 8 -3
v -4 8 -3
v 4 8 -3
v 5 8 -3
v -4 10 -0
v -3 10 -0
v -2 10 -0
v 2 10 -0
v 3 10 -0
v 4 10 -0
v -4 10 -3
v -3 10 -3
v -2 10 -3
v 2 10 -3
v 3 10 -3
v 4 10 -3
v -3 10 -4
v 3 10 -4
v -2 11 1
v 2 11 1
v -2 11 -0
v -1 11 -0
v 1 11 -0
v 2 11 -0
v -2 11 -3
v -1 11 -3
v 1 11 -3
v 2 11 -3
v -3 12 1
v -2 12 1
v 2 12 1
v 3 12 1
v -3 12 -0
v -2 12 -0
v -1 12 -0
v 1 12 -0
v 2 12 -0
v 3 12 -0
v -1 12 -3
v 1 12 -3
v -4 13 1
v -3 13 1
v 3 13 1
v 4 13 1
v -4 13 -0
v -3 13 -0
v 3 13 -0
v 4 13 -0

# faces
f 3/2/1 2/2/1 1/2/1
f 4/2/1 2/2/1 3/2/1
f 10/8/1 6/8/1 5/8/1
f 11/7/1 7/7/1 6/7/1
f 11/8/1 6/8/1 10/8/1
f 12/4/1 8/4/1 7/4/1
f 12/7/1 7/7/1 11/7/1
f 13/7/1 9/7/1 8/7/1
f 13/4/1 8/4/1 12/4/1
f 14/7/1 9/7/1 13/7/1
f 17/4/1 16/4/1 15/4/1
f 18/4/1 16/4/1 17/4/1
f 19/2/1 18/2/1 17/2/1
f 20/2/1 18/2/1 19/2/1
f 23/2/1 22/2/1 21/2/1
f 24/2/1 22/2/1 23/2/1
f 27/4/1 26/4/1 25/4/1
f 28/4/1 26/4/1 27/4/1
f 31/2/1 30/2/1 29/2/1
f 32/2/1 30/2/1 31/2/1
f 33/4/1 32/4/1 31/4/1
f 34/4/1 32/4/1 33/4/1
f 35/2/1 34/2/1 33/2/1
f 36/2/1 34/2/1 35/2/1
f 39/2/1 38/2/1 37/2/1
f 40/2/1 38/2/1 39/2/1
f 43/7/1 42/7/1 41/7/1
f 44/7/1 42/7/1 43/7/1
f 46/3/1 44/3/1 43/3/1
f 47/3/1 44/3/1 46/3/1
f 49/4/1 47/4/1 46/4/1
f 49/4/1 48/4/1 47/4/1
f 49/4/1 46/4/1 45/4/1
f 50/4/1 48/4/1 49/4/1
f 51/7/1 50/7/1 49/7/1
f 52/7/1 50/7/1 51/7/1
f 53/4/1 52/4/1 51/4/1
f 54/4/1 52/4/1 53/4/1
f 55/4/1 53/4/1 51/4/1
f 56/4/1 52/4/1 54/4/1
f 57/4/1 55/4/1 51/4/1
f 57/4/1 56/4/1 55/4/1
f 58/4/1 52/4/1 56/4/1
f 58/4/1 56/4/1 57/4/1
f 62/2/1 60/2/1 59/2/1
f 63/4/1 61/4/1 60/4/1
f 63/2/1 60/2/1 62/2/1
f 64/4/1 61/4/1 63/4/1
f 67/2/1 66/2/1 65/2/1
f 68/2/1 66/2/1 67/2/1
f 71/4/1 70/4/1 69/4/1
f 72/4/1 70/4/1 71/4/1
f 75/7/1 74/7/1 73/7/1
f 76/7/1 74/7/1 75/7/1
f 77/3/1 76/3/1 75/3/1
f 78/3/1 76/3/1 77/3/1
f 81/2/1 80/2/1 79/2/1
f 82/2/1 80/2/1 81/2/1
f 88/8/1 84/8/1 83/8/1
f 89/7/1 85/7/1 84/7/1
f 89/8/1 84/8/1 88/8/1
f 90/4/1 86/4/1 85/4/1
f 90/7/1 85/7/1 89/7/1
f 91/7/1 87/7/1 86/7/1
f 91/4/1 86/4/1 90/4/1
f 92/7/1 87/7/1 91/7/1
f 95/2/1 94/2/1 93/2/1
f 96/2/1 94/2/1 95/2/1
f 97/8/2 98/8/2 102/8/2
f 98/7/2 99/7/2 103/7/2
f 102/8/2 98/8/2 103/8/2
f 99/4/2 100/4/2 104/4/2
f 103/7/2 99/7/2 104/7/2
f 100/7/2 101/7/2 105/7/2
f 104/4/2 100/4/2 105/4/2
f 105/7/2 101/7/2 106/7/2
f 107/2/2 108/2/2 109/2/2
f 109/2/2 108/2/2 110/2/2
f 111/2/2 112/2/2 113/2/2
f 113/2/2 112/2/2 114/2/2
f 115/7/2 116/7/2 117/7/2
f 117/7/2 116/7/2 118/7/2
f 117/3/2 118/3/2 119/3/2
f 119/3/2 118/3/2 120/3/2
f 121/2/2 122/2/2 123/2/2
f 123/2/2 122/2/2 124/2/2
f 125/4/2 126/4/2 127/4/2
f 127/4/2 126/4/2 128/4/2
f 129/7/2 130/7/2 131/7/2
f 131/7/2 130/7/2 132/7/2
f 131/3/2 132/3/2 134/3/2
f 134/3/2 132/3/2 135/3/2
f 134/4/2 135/4/2 137/4/2
f 135/4/2 136/4/2 137/4/2
f 133/4/2 134/4/2 137/4/2
f 137/4/2 136/4/2 138/4/2
f 137/7/2 138/7/2 139/7/2
f 139/7/2 138/7/2 140/7/2
f 139/4/2 140/4/2 141/4/2
f 141/4/2 140/4/2 142/4/2
f 139/4/2 141/4/2 143/4/2
f 142/4/2 140/4/2 144/4/2
f 139/4/2 143/4/2 145/4/2
f 143/4/2 144/4/2 145/4/2
f 144/4/2 140/4/2 146/4/2
f 145/4/2 144/4/2 146/4/2
f 147/2/2 148/2/2 150/2/2
f 148/4/2 149/4/2 151/4/2
f 150/2/2 148/2/2 151/2/2
f 151/4/2 149/4/2 152/4/2
f 153/4/2 154/4/2 155/4/2
f 155/4/2 154/4/2 156/4/2
f 157/2/2 158/2/2 159/2/2
f 159/2/2 158/2/2 160/2/2
f 159/4/2 160/4/2 161/4/2
f 161/4/2 160/4/2 162/4/2
f 161/2/2 162/2/2 163/2/2
f 163/2/2 162/2/2 164/2/2
f 165/2/2 166/2/2 167/2/2
f 167/2/2 166/2/2 168/2/2
f 169/8/2 170/8/2 174/8/2
f 170/7/2 171/7/2 175/7/2
f 174/8/2 170/8/2 175/8/2
f 171/4/2 172/4/2 176/4/2
f 175/7/2 171/7/2 176/7/2
f 172/7/2 173/7/2 177/7/2
f 176/4/2 172/4/2 177/4/2
f 177/7/2 173/7/2 178/7/2
f 179/4/2 180/4/2 181/4/2
f 181/4/2 180/4/2 182/4/2
f 181/2/2 182/2/2 183/2/2
f 183/2/2 182/2/2 184/2/2
f 185/2/2 186/2/2 187/2/2
f 187/2/2 186/2/2 188/2/2
f 189/2/2 190/2/2 191/2/2
f 191/2/2 190/2/2 192/2/2
f 195/8/3 194/8/3 193/8/3
f 196/8/3 194/8/3 195/8/3
f 199/8/3 198/8/3 197/8/3
f 200/8/3 198/8/3 199/8/3
f 204/2/3 202/2/3 201/2/3
f 205/2/3 202/2/3 204/2/3
f 207/2/3 204/2/3 203/2/3
f 208/2/3 204/2/3 207/2/3
f 210/2/3 207/2/3 206/2/3
f 211/2/3 210/2/3 209/2/3
f 212/2/3 207/2/3 210/2/3
f 212/2/3 210/2/3 211/2/3
f 213/2/3 207/2/3 212/2/3
f 214/2/3 207/2/3 213/2/3
f 216/2/3 215/2/3 214/2/3
f 217/2/3 215/2/3 216/2/3
f 219/2/3 218/2/3 217/2/3
f 220/2/3 218/2/3 219/2/3
f 223/2/3 222/2/3 221/2/3
f 224/2/3 222/2/3 223/2/3
f 227/4/3 224/4/3 223/4/3
f 227/2/3 226/2/3 225/2/3
f 227/4/3 225/4/3 224/4/3
f 228/2/3 226/2/3 227/2/3
f 232/4/3 227/4/3 223/4/3
f 232/4/3 228/4/3 227/4/3
f 233/4/3 228/4/3 232/4/3
f 234/4/3 228/4/3 233/4/3
f 235/4/3 228/4/3 234/4/3
f 236/1/3 233/1/3 232/1/3
f 236/5/3 234/5/3 233/5/3
f 237/4/3 235/4/3 234/4/3
f 237/5/3 234/5/3 236/5/3
f 238/4/3 235/4/3 237/4/3
f 241/1/3 237/1/3 236/1/3
f 241/1/3 236/1/3 232/1/3
f 242/1/3 237/1/3 241/1/3
f 244/4/3 240/4/3 239/4/3
f 245/4/3 240/4/3 244/4/3
f 246/4/3 230/4/3 229/4/3
f 247/7/3 231/7/3 230/7/3
f 247/4/3 230/4/3 246/4/3
f 248/4/3 232/4/3 231/4/3
f 248/7/3 231/7/3 247/7/3
f 249/1/3 241/1/3 232/1/3
f 249/4/3 232/4/3 248/4/3
f 250/5/3 242/5/3 241/5/3
f 250/1/3 241/1/3 249/1/3
f 251/4/3 243/4/3 242/4/3
f 251/5/3 242/5/3 250/5/3
f 252/4/3 243/4/3 251/4/3
f 253/4/3 250/4/3 249/4/3
f 253/4/3 252/4/3 251/4/3
f 253/4/3 251/4/3 250/4/3
f 254/4/3 252/4/3 253/4/3
f 255/4/3 253/4/3 249/4/3
f 256/4/3 253/4/3 255/4/3
f 257/2/3 254/2/3 253/2/3
f 257/4/3 253/4/3 256/4/3
f 258/2/3 254/2/3 257/2/3
f 259/2/3 256/2/3 255/2/3
f 260/2/3 256/2/3 259/2/3
f 266/4/3 262/4/3 261/4/3
f 267/4/3 262/4/3 266/4/3
f 268/7/3 264/7/3 263/7/3
f 269/3/3 265/3/3 264/3/3
f 269/7/3 264/7/3 268/7/3
f 270/3/3 265/3/3 269/3/3
f 274/7/3 272/7/3 271/7/3
f 275/3/3 273/3/3 272/3/3
f 275/7/3 272/7/3 274/7/3
f 276/3/3 273/3/3 275/3/3
f 279/4/3 278/4/3 277/4/3
f 280/4/3 278/4/3 279/4/3
f 281/2/4 282/2/4 284/2/4
f 284/2/4 282/2/4 285/2/4
f 283/2/4 284/2/4 286/2/4
f 286/2/4 284/2/4 287/2/4
f 288/2/4 289/2/4 290/2/4
f 290/2/4 289/2/4 291/2/4
f 291/2/4 292/2/4 293/2/4
f 293/2/4 292/2/4 294/2/4
f 295/4/4 296/4/4 300/4/4
f 300/4/4 296/4/4 301/4/4
f 297/7/4 298/7/4 302/7/4
f 298/3/4 299/3/4 303/3/4
f 302/7/4 298/7/4 303/7/4
f 303/3/4 299/3/4 304/3/4
f 305/7/4 306/7/4 308/7/4
f 306/3/4 307/3/4 309/3/4
f 308/7/4 306/7/4 309/7/4
f 309/3/4 307/3/4 310/3/4
f 311/4/4 312/4/4 313/4/4
f 313/4/4 312/4/4 314/4/4
f 315/2/4 316/2/4 319/2/4
f 317/7/4 318/7/4 322/7/4
f 322/7/4 318/7/4 323/7/4
f 315/2/4 319/2/4 324/2/4
f 319/4/4 320/4/4 325/4/4
f 324/2/4 319/2/4 325/2/4
f 320/2/4 321/2/4 326/2/4
f 325/4/4 320/4/4 326/4/4
f 326/2/4 321/2/4 327/2/4
f 332/4/4 333/4/4 334/4/4
f 332/4/4 334/4/4 336/4/4
f 334/4/4 335/4/4 336/4/4
f 336/4/4 335/4/4 337/4/4
f 328/4/4 329/4/4 338/4/4
f 329/7/4 330/7/4 339/7/4
f 338/4/4 329/4/4 339/4/4
f 330/4/4 331/4/4 340/4/4
f 339/7/4 330/7/4 340/7/4
f 340/4/4 331/4/4 341/4/4
f 332/4/4 336/4/4 342/4/4
f 342/4/4 336/4/4 343/4/4
f 344/7/4 345/7/4 350/7/4
f 350/7/4 345/7/4 351/7/4
f 346/2/4 347/2/4 352/2/4
f 347/4/4 348/4/4 352/4/4
f 348/2/4 349/2/4 353/2/4
f 352/4/4 348/4/4 353/4/4
f 353/2/4 349/2/4 354/2/4
f 346/2/4 352/2/4 355/2/4
f 355/2/4 352/2/4 356/2/4
f 357/2/4 358/2/4 361/2/4
f 358/4/4 359/4/4 362/4/4
f 361/2/4 358/2/4 362/2/4
f 359/2/4 360/2/4 363/2/4
f 362/4/4 359/4/4 363/4/4
f 363/2/4 360/2/4 364/2/4
f 369/7/5 366/7/5 365/7/5
f 370/7/5 366/7/5 369/7/5
f 371/7/5 368/7/5 367/7/5
f 372/7/5 368/7/5 371/7/5
f 375/4/5 374/4/5 373/4/5
f 376/4/5 374/4/5 375/4/5
f 377/4/5 374/4/5 376/4/5
f 378/4/5 374/4/5 377/4/5
f 380/4/5 377/4/5 376/4/5
f 381/4/5 377/4/5 380/4/5
f 383/4/5 380/4/5 379/4/5
f 383/4/5 382/4/5 381/4/5
f 383/4/5 381/4/5 380/4/5
f 384/4/5 382/4/5 383/4/5
f 389/8/5 386/8/5 385/8/5
f 390/8/5 386/8/5 389/8/5
f 391/8/5 388/8/5 387/8/5
f 392/8/5 388/8/5 391/8/5
f 393/7/5 390/7/5 389/7/5
f 394/7/5 390/7/5 393/7/5
f 395/7/5 392/7/5 391/7/5
f 396/7/5 392/7/5 395/7/5
f 397/4/5 394/4/5 393/4/5
f 398/4/5 394/4/5 397/4/5
f 399/4/5 396/4/5 395/4/5
f 400/4/5 396/4/5 399/4/5
f 401/7/5 398/7/5 397/7/5
f 402/7/5 398/7/5 401/7/5
f 403/7/5 400/7/5 399/7/5
f 404/7/5 400/7/5 403/7/5
f 409/4/5 406/4/5 405/4/5
f 410/4/5 406/4/5 409/4/5
f 411/4/5 408/4/5 407/4/5
f 412/4/5 408/4/5 411/4/5
f 419/2/5 414/2/5 413/2/5
f 419/4/5 415/4/5 414/4/5
f 420/4/5 415/4/5 419/4/5
f 421/4/5 417/4/5 416/4/5
f 422/2/5 418/2/5 417/2/5
f 422/4/5 417/4/5 421/4/5
f 423/2/5 419/2/5 413/2/5
f 423/2/5 420/2/5 419/2/5
f 424/4/5 415/4/5 420/4/5
f 424/2/5 420/2/5 423/2/5
f 425/4/5 415/4/5 424/4/5
f 426/4/5 421/4/5 416/4/5
f 427/2/5 422/2/5 421/2/5
f 427/4/5 421/4/5 426/4/5
f 428/2/5 418/2/5 422/2/5
f 428/2/5 422/2/5 427/2/5
f 429/2/5 425/2/5 424/2/5
f 429/2/5 427/2/5 426/2/5
f 429/2/5 426/2/5 425/2/5
f 430/2/5 427/2/5 429/2/5
f 433/2/5 432/2/5 431/2/5
f 434/2/5 432/2/5 433/2/5
f 439/2/5 436/2/5 435/2/5
f 440/2/5 436/2/5 439/2/5
f 441/2/5 438/2/5 437/2/5
f 442/2/5 438/2/5 441/2/5
f 447/2/5 444/2/5 443/2/5
f 448/2/5 444/2/5 447/2/5
f 449/2/5 446/2/5 445/2/5
f 450/2/5 446/2/5 449/2/5
f 455/2/5 452/2/5 451/2/5
f 456/2/5 452/2/5 455/2/5
f 457/2/5 454/2/5 453/2/5
f 458/2/5 454/2/5 457/2/5
f 459/8/6 460/8/6 463/8/6
f 463/8/6 460/8/6 464/8/6
f 461/8/6 462/8/6 465/8/6
f 465/8/6 462/8/6 466/8/6
f 463/7/6 464/7/6 467/7/6
f 467/7/6 464/7/6 468/7/6
f 465/7/6 466/7/6 469/7/6
f 469/7/6 466/7/6 470/7/6
f 467/4/6 468/4/6 471/4/6
f 471/4/6 468/4/6 472/4/6
f 469/4/6 470/4/6 473/4/6
f 473/4/6 470/4/6 474/4/6
f 471/7/6 472/7/6 475/7/6
f 475/7/6 472/7/6 476/7/6
f 473/7/6 474/7/6 477/7/6
f 477/7/6 474/7/6 478/7/6
f 479/4/6 480/4/6 483/4/6
f 483/4/6 480/4/6 484/4/6
f 481/4/6 482/4/6 485/4/6
f 485/4/6 482/4/6 486/4/6
f 487/2/6 488/2/6 491/2/6
f 491/2/6 488/2/6 492/2/6
f 489/2/6 490/2/6 493/2/6
f 493/2/6 490/2/6 494/2/6
f 495/2/6 496/2/6 501/2/6
f 496/4/6 497/4/6 502/4/6
f 501/2/6 496/2/6 502/2/6
f 502/4/6 497/4/6 503/4/6
f 498/4/6 499/4/6 504/4/6
f 499/2/6 500/2/6 505/2/6
f 504/4/6 499/4/6 505/4/6
f 505/2/6 500/2/6 506/2/6
f 503/2/6 504/2/6 507/2/6
f 502/2/6 503/2/6 507/2/6
f 504/2/6 505/2/6 507/2/6
f 507/2/6 505/2/6 508/2/6
f 509/2/6 510/2/6 511/2/6
f 511/2/6 510/2/6 512/2/6
f 512/2/6 510/2/6 513/2/6
f 513/2/6 510/2/6 514/2/6
f 511/4/6 512/4/6 515/4/6
f 515/4/6 512/4/6 516/4/6
f 513/4/6 514/4/6 517/4/6
f 517/4/6 514/4/6 518/4/6
f 519/2/6 520/2/6 523/2/6
f 523/2/6 520/2/6 524/2/6
f 521/2/6 522/2/6 527/2/6
f 527/2/6 522/2/6 528/2/6
f 525/4/6 526/4/6 529/4/6
f 529/4/6 526/4/6 530/4/6
f 531/2/6 532/2/6 535/2/6
f 535/2/6 532/2/6 536/2/6
f 533/2/6 534/2/6 537/2/6
f 537/2/6 534/2/6 538/2/6
