# MagicaVoxel @ Ephtracy

# group
g mob3

# material
mtllib mob3.mtl
usemtl palette

# normals
vn -1 0 0
vn 1 0 0
vn 0 0 1
vn 0 0 -1
vn 0 -1 0
vn 0 1 0

# texcoords
vt 0.373047 0.5
vt 0.396484 0.5
vt 0.513672 0.5
vt 0.712891 0.5
vt 0.841797 0.5
vt 0.876953 0.5
vt 0.962891 0.5
vt 0.982422 0.5

# verts
v -5 4 5
v -5 4 -1
v -5 4 -2
v -5 5 6
v -5 5 5
v -5 5 -2
v -5 5 -3
v -5 5 -4
v -5 6 6
v -5 6 5
v -5 6 -2
v -5 6 -3
v -5 6 -4
v -5 7 5
v -5 7 -1
v -5 7 -2
v -5 10 -2
v -5 10 -3
v -5 12 -2
v -5 12 -3
v -4 6 -2
v -4 6 -3
v -4 7 -2
v -4 7 -3
v -4 8 -2
v -4 8 -3
v -4 9 -2
v -4 9 -3
v -4 10 -2
v -4 10 -3
v -3 4 -1
v -3 4 -4
v -3 6 -2
v -3 6 -3
v -3 7 -1
v -3 7 -2
v -3 7 -3
v -3 7 -4
v -3 8 -1
v -3 8 -2
v -3 8 -3
v -3 8 -4
v -3 9 -2
v -3 9 -3
v -3 11 -2
v -3 11 -3
v -3 12 -1
v -3 12 -4
v -2 0 -2
v -2 0 -3
v -2 1 -2
v -2 1 -3
v -2 2 -1
v -2 2 -2
v -2 2 -3
v -2 2 -4
v -2 4 -1
v -2 4 -4
v -2 6 -0
v -2 6 -1
v -2 7 -0
v -2 7 -1
v -2 12 -1
v -2 12 -4
v -2 13 -1
v -2 13 -4
v -1 4 -0
v -1 4 -1
v -1 6 -0
v -1 6 -1
v -1 8 -5
v -1 8 -6
v -1 9 -0
v -1 9 -1
v -1 10 -0
v -1 10 -1
v -1 10 -4
v -1 10 -5
v -1 12 -0
v -1 12 -1
v -1 12 -4
v -1 12 -5
v -1 12 -6
v -1 13 -0
v -1 13 -1
v -1 13 -4
v -1 13 -5
v -1 14 -1
v -1 14 -4
v 1 0 -2
v 1 0 -3
v 1 1 -2
v 1 1 -3
v 1 2 -2
v 1 2 -3
v 1 6 -0
v 1 6 -1
v 1 7 -0
v 1 7 -1
v 4 5 -2
v 4 5 -3
v 4 6 -2
v 4 6 -3
v 4 11 -2
v 4 11 -3
v 4 12 -2
v 4 12 -3
v -4 4 5
v -4 4 -1
v -4 4 -2
v -4 5 6
v -4 5 5
v -4 5 -2
v -4 5 -3
v -4 5 -4
v -4 6 6
v -4 6 5
v -4 6 -2
v -4 6 -3
v -4 6 -4
v -4 7 5
v -4 7 -1
v -4 7 -2
v -4 11 -2
v -4 11 -3
v -4 12 -2
v -4 12 -3
v -1 0 -2
v -1 0 -3
v -1 1 -2
v -1 1 -3
v -1 2 -2
v -1 2 -3
v -1 6 -0
v -1 6 -1
v -1 7 -0
v -1 7 -1
v 1 4 -0
v 1 4 -1
v 1 6 -0
v 1 6 -1
v 1 8 -5
v 1 8 -6
v 1 9 -0
v 1 9 -1
v 1 10 -0
v 1 10 -1
v 1 10 -4
v 1 10 -5
v 1 12 -0
v 1 12 -1
v 1 12 -4
v 1 12 -5
v 1 12 -6
v 1 13 -0
v 1 13 -1
v 1 13 -4
v 1 13 -5
v 1 14 -1
v 1 14 -4
v 2 0 -2
v 2 0 -3
v 2 1 -2
v 2 1 -3
v 2 2 -1
v 2 2 -2
v 2 2 -3
v 2 2 -4
v 2 4 -1
v 2 4 -4
v 2 6 -0
v 2 6 -1
v 2 7 -0
v 2 7 -1
v 2 12 -1
v 2 12 -4
v 2 13 -1
v 2 13 -4
v 3 4 -1
v 3 4 -4
v 3 6 -2
v 3 6 -3
v 3 7 -1
v 3 7 -2
v 3 7 -3
v 3 7 -4
v 3 8 -1
v 3 8 -2
v 3 8 -3
v 3 8 -4
v 3 9 -2
v 3 9 -3
v 3 11 -2
v 3 11 -3
v 3 12 -1
v 3 12 -4
v 4 6 -2
v 4 6 -3
v 4 7 -2
v 4 7 -3
v 4 8 -2
v 4 8 -3
v 4 9 -2
v 4 9 -3
v 4 10 -2
v 4 10 -3
v 5 5 -2
v 5 5 -3
v 5 6 -2
v 5 6 -3
v 5 10 -2
v 5 10 -3
v 5 12 -2
v 5 12 -3
v -5 5 6
v -5 6 6
v -4 5 6
v -4 6 6
v -5 4 5
v -5 5 5
v -5 6 5
v -5 7 5
v -4 4 5
v -4 5 5
v -4 6 5
v -4 7 5
v -2 6 -0
v -2 7 -0
v -1 4 -0
v -1 6 -0
v -1 7 -0
v -1 9 -0
v -1 10 -0
v -1 12 -0
v -1 13 -0
v 1 4 -0
v 1 6 -0
v 1 7 -0
v 1 9 -0
v 1 10 -0
v 1 12 -0
v 1 13 -0
v 2 6 -0
v 2 7 -0
v -3 4 -1
v -3 7 -1
v -3 8 -1
v -3 12 -1
v -2 2 -1
v -2 4 -1
v -2 6 -1
v -2 7 -1
v -2 8 -1
v -2 10 -1
v -2 11 -1
v -2 12 -1
v -2 13 -1
v -1 4 -1
v -1 6 -1
v -1 7 -1
v -1 9 -1
v -1 10 -1
v -1 11 -1
v -1 12 -1
v -1 13 -1
v -1 14 -1
v 1 4 -1
v 1 6 -1
v 1 7 -1
v 1 9 -1
v 1 10 -1
v 1 11 -1
v 1 12 -1
v 1 13 -1
v 1 14 -1
v 2 2 -1
v 2 4 -1
v 2 6 -1
v 2 7 -1
v 2 8 -1
v 2 10 -1
v 2 11 -1
v 2 12 -1
v 2 13 -1
v 3 4 -1
v 3 7 -1
v 3 8 -1
v 3 12 -1
v -5 10 -2
v -5 12 -2
v -4 6 -2
v -4 7 -2
v -4 8 -2
v -4 9 -2
v -4 10 -2
v -4 11 -2
v -4 12 -2
v -3 6 -2
v -3 7 -2
v -3 8 -2
v -3 9 -2
v -3 11 -2
v -2 0 -2
v -2 1 -2
v -2 2 -2
v -1 0 -2
v -1 1 -2
v -1 2 -2
v 1 0 -2
v 1 1 -2
v 1 2 -2
v 2 0 -2
v 2 1 -2
v 2 2 -2
v 3 6 -2
v 3 7 -2
v 3 8 -2
v 3 9 -2
v 3 11 -2
v 4 5 -2
v 4 6 -2
v 4 7 -2
v 4 8 -2
v 4 9 -2
v 4 10 -2
v 4 11 -2
v 4 12 -2
v 5 5 -2
v 5 6 -2
v 5 10 -2
v 5 12 -2
v -1 8 -5
v -1 10 -5
v 1 8 -5
v 1 10 -5
v -5 4 -2
v -5 5 -2
v -5 6 -2
v -5 7 -2
v -4 4 -2
v -4 5 -2
v -4 6 -2
v -4 7 -2
v -5 10 -3
v -5 12 -3
v -4 6 -3
v -4 7 -3
v -4 8 -3
v -4 9 -3
v -4 10 -3
v -4 11 -3
v -4 12 -3
v -3 6 -3
v -3 7 -3
v -3 8 -3
v -3 9 -3
v -3 11 -3
v -2 0 -3
v -2 1 -3
v -2 2 -3
v -1 0 -3
v -1 1 -3
v -1 2 -3
v 1 0 -3
v 1 1 -3
v 1 2 -3
v 2 0 -3
v 2 1 -3
v 2 2 -3
v 3 6 -3
v 3 7 -3
v 3 8 -3
v 3 9 -3
v 3 11 -3
v 4 5 -3
v 4 6 -3
v 4 7 -3
v 4 8 -3
v 4 9 -3
v 4 10 -3
v 4 11 -3
v 4 12 -3
v 5 5 -3
v 5 6 -3
v 5 10 -3
v 5 12 -3
v -5 5 -4
v -5 6 -4
v -4 5 -4
v -4 6 -4
v -3 4 -4
v -3 7 -4
v -3 8 -4
v -3 12 -4
v -2 2 -4
v -2 4 -4
v -2 7 -4
v -2 8 -4
v -2 12 -4
v -2 13 -4
v -1 10 -4
v -1 12 -4
v -1 13 -4
v -1 14 -4
v 1 10 -4
v 1 12 -4
v 1 13 -4
v 1 14 -4
v 2 2 -4
v 2 4 -4
v 2 7 -4
v 2 8 -4
v 2 12 -4
v 2 13 -4
v 3 4 -4
v 3 7 -4
v 3 8 -4
v 3 12 -4
v -1 12 -5
v -1 13 -5
v 1 12 -5
v 1 13 -5
v -1 8 -6
v -1 12 -6
v 1 8 -6
v 1 12 -6
v -2 0 -2
v -1 0 -2
v 1 0 -2
v 2 0 -2
v -2 0 -3
v -1 0 -3
v 1 0 -3
v 2 0 -3
v -2 2 -1
v 2 2 -1
v -2 2 -2
v -1 2 -2
v 1 2 -2
v 2 2 -2
v -2 2 -3
v -1 2 -3
v 1 2 -3
v 2 2 -3
v -2 2 -4
v 2 2 -4
v -5 4 5
v -4 4 5
v -1 4 -0
v 1 4 -0
v -5 4 -1
v -4 4 -1
v -3 4 -1
v -2 4 -1
v -1 4 -1
v 1 4 -1
v 2 4 -1
v 3 4 -1
v -5 4 -2
v -4 4 -2
v -3 4 -4
v -2 4 -4
v 2 4 -4
v 3 4 -4
v -5 5 6
v -4 5 6
v -5 5 5
v -4 5 5
v -5 5 -2
v -4 5 -2
v 4 5 -2
v 5 5 -2
v -5 5 -3
v -4 5 -3
v 4 5 -3
v 5 5 -3
v -5 5 -4
v -4 5 -4
v -2 6 -0
v -1 6 -0
v 1 6 -0
v 2 6 -0
v -2 6 -1
v -1 6 -1
v 1 6 -1
v 2 6 -1
v -4 6 -2
v -3 6 -2
v 3 6 -2
v 4 6 -2
v -4 6 -3
v -3 6 -3
v 3 6 -3
v 4 6 -3
v -1 8 -5
v 1 8 -5
v -1 8 -6
v 1 8 -6
v -1 9 -0
v 1 9 -0
v -1 9 -1
v 1 9 -1
v -4 9 -2
v -3 9 -2
v 3 9 -2
v 4 9 -2
v -4 9 -3
v -3 9 -3
v 3 9 -3
v 4 9 -3
v -5 10 -2
v -4 10 -2
v 4 10 -2
v 5 10 -2
v -5 10 -3
v -4 10 -3
v 4 10 -3
v 5 10 -3
v -1 10 -4
v 1 10 -4
v -1 10 -5
v 1 10 -5
v -1 12 -0
v 1 12 -0
v -1 12 -1
v 1 12 -1
v -5 6 6
v -4 6 6
v -5 6 5
v -4 6 5
v -1 6 -0
v 1 6 -0
v -1 6 -1
v 1 6 -1
v -5 6 -2
v -4 6 -2
v 4 6 -2
v 5 6 -2
v -5 6 -3
v -4 6 -3
v 4 6 -3
v 5 6 -3
v -5 6 -4
v -4 6 -4
v -5 7 5
v -4 7 5
v -2 7 -0
v -1 7 -0
v 1 7 -0
v 2 7 -0
v -5 7 -1
v -4 7 -1
v -2 7 -1
v -1 7 -1
v 1 7 -1
v 2 7 -1
v -5 7 -2
v -4 7 -2
v -4 8 -2
v -3 8 -2
v 3 8 -2
v 4 8 -2
v -4 8 -3
v -3 8 -3
v 3 8 -3
v 4 8 -3
v -1 10 -0
v 1 10 -0
v -1 10 -1
v 1 10 -1
v -4 11 -2
v -3 11 -2
v 3 11 -2
v 4 11 -2
v -4 11 -3
v -3 11 -3
v 3 11 -3
v 4 11 -3
v -3 12 -1
v -2 12 -1
v 2 12 -1
v 3 12 -1
v -5 12 -2
v -4 12 -2
v 4 12 -2
v 5 12 -2
v -5 12 -3
v -4 12 -3
v 4 12 -3
v 5 12 -3
v -3 12 -4
v -2 12 -4
v 2 12 -4
v 3 12 -4
v -1 12 -5
v 1 12 -5
v -1 12 -6
v 1 12 -6
v -1 13 -0
v 1 13 -0
v -2 13 -1
v -1 13 -1
v 1 13 -1
v 2 13 -1
v -2 13 -4
v -1 13 -4
v 1 13 -4
v 2 13 -4
v -1 13 -5
v 1 13 -5
v -1 14 -1
v 1 14 -1
v -1 14 -4
v 1 14 -4

# faces
f 5/7/1 2/7/1 1/7/1
f 6/6/1 3/6/1 2/6/1
f 9/7/1 5/7/1 4/7/1
f 10/7/1 2/7/1 5/7/1
f 10/7/1 5/7/1 9/7/1
f 11/6/1 6/6/1 2/6/1
f 11/3/1 7/3/1 6/3/1
f 12/6/1 8/6/1 7/6/1
f 12/3/1 7/3/1 11/3/1
f 13/6/1 8/6/1 12/6/1
f 14/7/1 2/7/1 10/7/1
f 15/6/1 11/6/1 2/6/1
f 15/7/1 2/7/1 14/7/1
f 16/6/1 11/6/1 15/6/1
f 19/3/1 18/3/1 17/3/1
f 20/3/1 18/3/1 19/3/1
f 23/3/1 22/3/1 21/3/1
f 24/3/1 22/3/1 23/3/1
f 25/6/1 24/6/1 23/6/1
f 26/6/1 24/6/1 25/6/1
f 29/3/1 28/3/1 27/3/1
f 30/3/1 28/3/1 29/3/1
f 33/3/1 32/3/1 31/3/1
f 34/3/1 32/3/1 33/3/1
f 35/3/1 33/3/1 31/3/1
f 36/3/1 33/3/1 35/3/1
f 37/3/1 32/3/1 34/3/1
f 38/3/1 32/3/1 37/3/1
f 39/6/1 36/6/1 35/6/1
f 40/6/1 36/6/1 39/6/1
f 41/6/1 38/6/1 37/6/1
f 42/6/1 38/6/1 41/6/1
f 43/3/1 40/3/1 39/3/1
f 43/3/1 41/3/1 40/3/1
f 43/3/1 42/3/1 41/3/1
f 44/3/1 42/3/1 43/3/1
f 45/3/1 43/3/1 39/3/1
f 46/3/1 42/3/1 44/3/1
f 47/3/1 45/3/1 39/3/1
f 47/3/1 46/3/1 45/3/1
f 48/3/1 42/3/1 46/3/1
f 48/3/1 46/3/1 47/3/1
f 51/6/1 50/6/1 49/6/1
f 52/6/1 50/6/1 51/6/1
f 54/3/1 52/3/1 51/3/1
f 55/3/1 52/3/1 54/3/1
f 57/2/1 55/2/1 54/2/1
f 57/2/1 56/2/1 55/2/1
f 57/2/1 54/2/1 53/2/1
f 58/2/1 56/2/1 57/2/1
f 61/1/1 60/1/1 59/1/1
f 62/1/1 60/1/1 61/1/1
f 65/8/1 64/8/1 63/8/1
f 66/8/1 64/8/1 65/8/1
f 69/1/1 68/1/1 67/1/1
f 70/1/1 68/1/1 69/1/1
f 75/3/1 74/3/1 73/3/1
f 76/3/1 74/3/1 75/3/1
f 78/8/1 72/8/1 71/8/1
f 81/8/1 78/8/1 77/8/1
f 82/8/1 72/8/1 78/8/1
f 82/8/1 78/8/1 81/8/1
f 83/8/1 72/8/1 82/8/1
f 84/8/1 80/8/1 79/8/1
f 85/8/1 80/8/1 84/8/1
f 86/8/1 82/8/1 81/8/1
f 87/8/1 82/8/1 86/8/1
f 88/8/1 86/8/1 85/8/1
f 89/8/1 86/8/1 88/8/1
f 92/6/1 91/6/1 90/6/1
f 93/6/1 91/6/1 92/6/1
f 94/3/1 93/3/1 92/3/1
f 95/3/1 93/3/1 94/3/1
f 98/1/1 97/1/1 96/1/1
f 99/1/1 97/1/1 98/1/1
f 102/3/1 101/3/1 100/3/1
f 103/3/1 101/3/1 102/3/1
f 106/3/1 105/3/1 104/3/1
f 107/3/1 105/3/1 106/3/1
f 108/7/2 109/7/2 112/7/2
f 109/6/2 110/6/2 113/6/2
f 111/7/2 112/7/2 116/7/2
f 112/7/2 109/7/2 117/7/2
f 116/7/2 112/7/2 117/7/2
f 109/6/2 113/6/2 118/6/2
f 113/3/2 114/3/2 118/3/2
f 114/6/2 115/6/2 119/6/2
f 118/3/2 114/3/2 119/3/2
f 119/6/2 115/6/2 120/6/2
f 117/7/2 109/7/2 121/7/2
f 109/6/2 118/6/2 122/6/2
f 121/7/2 109/7/2 122/7/2
f 122/6/2 118/6/2 123/6/2
f 124/3/2 125/3/2 126/3/2
f 126/3/2 125/3/2 127/3/2
f 128/6/2 129/6/2 130/6/2
f 130/6/2 129/6/2 131/6/2
f 130/3/2 131/3/2 132/3/2
f 132/3/2 131/3/2 133/3/2
f 134/1/2 135/1/2 136/1/2
f 136/1/2 135/1/2 137/1/2
f 138/1/2 139/1/2 140/1/2
f 140/1/2 139/1/2 141/1/2
f 144/3/2 145/3/2 146/3/2
f 146/3/2 145/3/2 147/3/2
f 142/8/2 143/8/2 149/8/2
f 148/8/2 149/8/2 152/8/2
f 149/8/2 143/8/2 153/8/2
f 152/8/2 149/8/2 153/8/2
f 153/8/2 143/8/2 154/8/2
f 150/8/2 151/8/2 155/8/2
f 155/8/2 151/8/2 156/8/2
f 152/8/2 153/8/2 157/8/2
f 157/8/2 153/8/2 158/8/2
f 156/8/2 157/8/2 159/8/2
f 159/8/2 157/8/2 160/8/2
f 161/6/2 162/6/2 163/6/2
f 163/6/2 162/6/2 164/6/2
f 163/3/2 164/3/2 166/3/2
f 166/3/2 164/3/2 167/3/2
f 166/2/2 167/2/2 169/2/2
f 167/2/2 168/2/2 169/2/2
f 165/2/2 166/2/2 169/2/2
f 169/2/2 168/2/2 170/2/2
f 171/1/2 172/1/2 173/1/2
f 173/1/2 172/1/2 174/1/2
f 175/8/2 176/8/2 177/8/2
f 177/8/2 176/8/2 178/8/2
f 179/3/2 180/3/2 181/3/2
f 181/3/2 180/3/2 182/3/2
f 179/3/2 181/3/2 183/3/2
f 183/3/2 181/3/2 184/3/2
f 182/3/2 180/3/2 185/3/2
f 185/3/2 180/3/2 186/3/2
f 183/6/2 184/6/2 187/6/2
f 187/6/2 184/6/2 188/6/2
f 185/6/2 186/6/2 189/6/2
f 189/6/2 186/6/2 190/6/2
f 187/3/2 188/3/2 191/3/2
f 188/3/2 189/3/2 191/3/2
f 189/3/2 190/3/2 191/3/2
f 191/3/2 190/3/2 192/3/2
f 187/3/2 191/3/2 193/3/2
f 192/3/2 190/3/2 194/3/2
f 187/3/2 193/3/2 195/3/2
f 193/3/2 194/3/2 195/3/2
f 194/3/2 190/3/2 196/3/2
f 195/3/2 194/3/2 196/3/2
f 197/3/2 198/3/2 199/3/2
f 199/3/2 198/3/2 200/3/2
f 199/6/2 200/6/2 201/6/2
f 201/6/2 200/6/2 202/6/2
f 203/3/2 204/3/2 205/3/2
f 205/3/2 204/3/2 206/3/2
f 207/3/2 208/3/2 209/3/2
f 209/3/2 208/3/2 210/3/2
f 211/3/2 212/3/2 213/3/2
f 213/3/2 212/3/2 214/3/2
f 217/7/3 216/7/3 215/7/3
f 218/7/3 216/7/3 217/7/3
f 223/7/3 220/7/3 219/7/3
f 224/7/3 220/7/3 223/7/3
f 225/7/3 222/7/3 221/7/3
f 226/7/3 222/7/3 225/7/3
f 230/1/3 228/1/3 227/1/3
f 231/1/3 228/1/3 230/1/3
f 236/1/3 230/1/3 229/1/3
f 237/1/3 230/1/3 236/1/3
f 239/3/3 233/3/3 232/3/3
f 240/3/3 233/3/3 239/3/3
f 241/8/3 235/8/3 234/8/3
f 242/8/3 235/8/3 241/8/3
f 243/1/3 238/1/3 237/1/3
f 244/1/3 238/1/3 243/1/3
f 250/3/3 246/3/3 245/3/3
f 251/3/3 246/3/3 250/3/3
f 252/6/3 247/6/3 246/6/3
f 252/3/3 246/3/3 251/3/3
f 253/3/3 248/3/3 247/3/3
f 253/6/3 247/6/3 252/6/3
f 254/3/3 248/3/3 253/3/3
f 255/3/3 248/3/3 254/3/3
f 256/3/3 248/3/3 255/3/3
f 258/3/3 251/3/3 250/3/3
f 258/2/3 250/2/3 249/2/3
f 259/3/3 251/3/3 258/3/3
f 260/3/3 253/3/3 252/3/3
f 260/3/3 254/3/3 253/3/3
f 261/3/3 254/3/3 260/3/3
f 262/5/3 255/5/3 254/5/3
f 262/3/3 254/3/3 261/3/3
f 263/3/3 256/3/3 255/3/3
f 263/5/3 255/5/3 262/5/3
f 264/8/3 257/8/3 256/8/3
f 264/3/3 256/3/3 263/3/3
f 265/8/3 257/8/3 264/8/3
f 267/2/3 258/2/3 249/2/3
f 268/3/3 261/3/3 260/3/3
f 268/3/3 260/3/3 259/3/3
f 269/3/3 261/3/3 268/3/3
f 270/3/3 261/3/3 269/3/3
f 271/3/3 263/3/3 262/3/3
f 271/3/3 264/3/3 263/3/3
f 272/3/3 264/3/3 271/3/3
f 273/3/3 264/3/3 272/3/3
f 274/8/3 266/8/3 265/8/3
f 275/8/3 266/8/3 274/8/3
f 276/2/3 267/2/3 249/2/3
f 277/3/3 268/3/3 267/3/3
f 277/2/3 267/2/3 276/2/3
f 278/3/3 268/3/3 277/3/3
f 279/3/3 270/3/3 269/3/3
f 279/3/3 271/3/3 270/3/3
f 280/3/3 271/3/3 279/3/3
f 281/5/3 272/5/3 271/5/3
f 281/3/3 271/3/3 280/3/3
f 282/3/3 273/3/3 272/3/3
f 282/5/3 272/5/3 281/5/3
f 283/8/3 274/8/3 273/8/3
f 283/3/3 273/3/3 282/3/3
f 284/8/3 274/8/3 283/8/3
f 285/3/3 278/3/3 277/3/3
f 285/3/3 279/3/3 278/3/3
f 286/6/3 280/6/3 279/6/3
f 286/3/3 279/3/3 285/3/3
f 287/3/3 281/3/3 280/3/3
f 287/6/3 280/6/3 286/6/3
f 287/3/3 282/3/3 281/3/3
f 287/3/3 283/3/3 282/3/3
f 288/3/3 283/3/3 287/3/3
f 295/3/3 290/3/3 289/3/3
f 296/3/3 290/3/3 295/3/3
f 297/3/3 290/3/3 296/3/3
f 298/3/3 292/3/3 291/3/3
f 299/6/3 293/6/3 292/6/3
f 299/3/3 292/3/3 298/3/3
f 300/6/3 293/6/3 299/6/3
f 301/3/3 295/3/3 294/3/3
f 301/3/3 296/3/3 295/3/3
f 302/3/3 296/3/3 301/3/3
f 306/6/3 304/6/3 303/6/3
f 307/3/3 305/3/3 304/3/3
f 307/6/3 304/6/3 306/6/3
f 308/3/3 305/3/3 307/3/3
f 312/6/3 310/6/3 309/6/3
f 313/3/3 311/3/3 310/3/3
f 313/6/3 310/6/3 312/6/3
f 314/3/3 311/3/3 313/3/3
f 321/3/3 316/3/3 315/3/3
f 322/6/3 317/6/3 316/6/3
f 322/3/3 316/3/3 321/3/3
f 323/6/3 317/6/3 322/6/3
f 324/3/3 319/3/3 318/3/3
f 325/3/3 319/3/3 324/3/3
f 326/3/3 319/3/3 325/3/3
f 328/3/3 321/3/3 320/3/3
f 329/3/3 321/3/3 328/3/3
f 330/3/3 326/3/3 325/3/3
f 330/3/3 327/3/3 326/3/3
f 331/3/3 327/3/3 330/3/3
f 334/8/3 333/8/3 332/8/3
f 335/8/3 333/8/3 334/8/3
f 336/6/4 337/6/4 340/6/4
f 340/6/4 337/6/4 341/6/4
f 338/6/4 339/6/4 342/6/4
f 342/6/4 339/6/4 343/6/4
f 344/3/4 345/3/4 350/3/4
f 350/3/4 345/3/4 351/3/4
f 351/3/4 345/3/4 352/3/4
f 346/3/4 347/3/4 353/3/4
f 347/6/4 348/6/4 354/6/4
f 353/3/4 347/3/4 354/3/4
f 354/6/4 348/6/4 355/6/4
f 349/3/4 350/3/4 356/3/4
f 350/3/4 351/3/4 356/3/4
f 356/3/4 351/3/4 357/3/4
f 358/6/4 359/6/4 361/6/4
f 359/3/4 360/3/4 362/3/4
f 361/6/4 359/6/4 362/6/4
f 362/3/4 360/3/4 363/3/4
f 364/6/4 365/6/4 367/6/4
f 365/3/4 366/3/4 368/3/4
f 367/6/4 365/6/4 368/6/4
f 368/3/4 366/3/4 369/3/4
f 370/3/4 371/3/4 376/3/4
f 371/6/4 372/6/4 377/6/4
f 376/3/4 371/3/4 377/3/4
f 377/6/4 372/6/4 378/6/4
f 373/3/4 374/3/4 379/3/4
f 379/3/4 374/3/4 380/3/4
f 380/3/4 374/3/4 381/3/4
f 375/3/4 376/3/4 383/3/4
f 383/3/4 376/3/4 384/3/4
f 380/3/4 381/3/4 385/3/4
f 381/3/4 382/3/4 385/3/4
f 385/3/4 382/3/4 386/3/4
f 387/6/4 388/6/4 389/6/4
f 389/6/4 388/6/4 390/6/4
f 391/3/4 392/3/4 396/3/4
f 392/6/4 393/6/4 397/6/4
f 396/3/4 392/3/4 397/3/4
f 393/3/4 394/3/4 398/3/4
f 397/6/4 393/6/4 398/6/4
f 398/3/4 394/3/4 399/3/4
f 396/3/4 397/3/4 401/3/4
f 397/3/4 398/3/4 401/3/4
f 398/3/4 399/3/4 401/3/4
f 399/8/4 400/8/4 402/8/4
f 401/3/4 399/3/4 402/3/4
f 402/8/4 400/8/4 403/8/4
f 396/3/4 401/3/4 405/3/4
f 403/8/4 404/8/4 407/8/4
f 407/8/4 404/8/4 408/8/4
f 395/2/4 396/2/4 409/2/4
f 405/3/4 406/3/4 410/3/4
f 409/2/4 396/2/4 410/2/4
f 396/3/4 405/3/4 410/3/4
f 410/3/4 406/3/4 411/3/4
f 411/3/4 406/3/4 412/3/4
f 406/8/4 407/8/4 413/8/4
f 412/3/4 406/3/4 413/3/4
f 413/8/4 407/8/4 414/8/4
f 410/3/4 411/3/4 415/3/4
f 411/6/4 412/6/4 416/6/4
f 415/3/4 411/3/4 416/3/4
f 412/3/4 413/3/4 417/3/4
f 416/6/4 412/6/4 417/6/4
f 417/3/4 413/3/4 418/3/4
f 419/8/4 420/8/4 421/8/4
f 421/8/4 420/8/4 422/8/4
f 423/8/4 424/8/4 425/8/4
f 425/8/4 424/8/4 426/8/4
f 431/6/5 428/6/5 427/6/5
f 432/6/5 428/6/5 431/6/5
f 433/6/5 430/6/5 429/6/5
f 434/6/5 430/6/5 433/6/5
f 437/2/5 436/2/5 435/2/5
f 438/2/5 436/2/5 437/2/5
f 439/2/5 436/2/5 438/2/5
f 440/2/5 436/2/5 439/2/5
f 442/2/5 439/2/5 438/2/5
f 443/2/5 439/2/5 442/2/5
f 445/2/5 442/2/5 441/2/5
f 445/2/5 444/2/5 443/2/5
f 445/2/5 443/2/5 442/2/5
f 446/2/5 444/2/5 445/2/5
f 451/7/5 448/7/5 447/7/5
f 452/7/5 448/7/5 451/7/5
f 455/1/5 450/1/5 449/1/5
f 456/1/5 450/1/5 455/1/5
f 459/6/5 452/6/5 451/6/5
f 460/6/5 452/6/5 459/6/5
f 461/3/5 454/3/5 453/3/5
f 462/3/5 454/3/5 461/3/5
f 463/3/5 458/3/5 457/3/5
f 464/3/5 458/3/5 463/3/5
f 467/7/5 466/7/5 465/7/5
f 468/7/5 466/7/5 467/7/5
f 473/3/5 470/3/5 469/3/5
f 474/3/5 470/3/5 473/3/5
f 475/3/5 472/3/5 471/3/5
f 476/3/5 472/3/5 475/3/5
f 477/6/5 474/6/5 473/6/5
f 478/6/5 474/6/5 477/6/5
f 483/1/5 480/1/5 479/1/5
f 484/1/5 480/1/5 483/1/5
f 485/1/5 482/1/5 481/1/5
f 486/1/5 482/1/5 485/1/5
f 491/3/5 488/3/5 487/3/5
f 492/3/5 488/3/5 491/3/5
f 493/3/5 490/3/5 489/3/5
f 494/3/5 490/3/5 493/3/5
f 497/8/5 496/8/5 495/8/5
f 498/8/5 496/8/5 497/8/5
f 501/3/5 500/3/5 499/3/5
f 502/3/5 500/3/5 501/3/5
f 507/3/5 504/3/5 503/3/5
f 508/3/5 504/3/5 507/3/5
f 509/3/5 506/3/5 505/3/5
f 510/3/5 506/3/5 509/3/5
f 515/3/5 512/3/5 511/3/5
f 516/3/5 512/3/5 515/3/5
f 517/3/5 514/3/5 513/3/5
f 518/3/5 514/3/5 517/3/5
f 521/8/5 520/8/5 519/8/5
f 522/8/5 520/8/5 521/8/5
f 525/8/5 524/8/5 523/8/5
f 526/8/5 524/8/5 525/8/5
f 527/7/6 528/7/6 529/7/6
f 529/7/6 528/7/6 530/7/6
f 531/1/6 532/1/6 533/1/6
f 533/1/6 532/1/6 534/1/6
f 535/3/6 536/3/6 539/3/6
f 539/3/6 536/3/6 540/3/6
f 537/3/6 538/3/6 541/3/6
f 541/3/6 538/3/6 542/3/6
f 539/6/6 540/6/6 543/6/6
f 543/6/6 540/6/6 544/6/6
f 545/7/6 546/7/6 551/7/6
f 551/7/6 546/7/6 552/7/6
f 547/1/6 548/1/6 553/1/6
f 553/1/6 548/1/6 554/1/6
f 549/1/6 550/1/6 555/1/6
f 555/1/6 550/1/6 556/1/6
f 551/6/6 552/6/6 557/6/6
f 557/6/6 552/6/6 558/6/6
f 559/6/6 560/6/6 563/6/6
f 563/6/6 560/6/6 564/6/6
f 561/6/6 562/6/6 565/6/6
f 565/6/6 562/6/6 566/6/6
f 567/3/6 568/3/6 569/3/6
f 569/3/6 568/3/6 570/3/6
f 571/3/6 572/3/6 575/3/6
f 575/3/6 572/3/6 576/3/6
f 573/3/6 574/3/6 577/3/6
f 577/3/6 574/3/6 578/3/6
f 583/3/6 584/3/6 587/3/6
f 587/3/6 584/3/6 588/3/6
f 585/3/6 586/3/6 589/3/6
f 589/3/6 586/3/6 590/3/6
f 579/3/6 580/3/6 591/3/6
f 591/3/6 580/3/6 592/3/6
f 581/3/6 582/3/6 593/3/6
f 593/3/6 582/3/6 594/3/6
f 595/8/6 596/8/6 597/8/6
f 597/8/6 596/8/6 598/8/6
f 599/8/6 600/8/6 602/8/6
f 602/8/6 600/8/6 603/8/6
f 601/8/6 602/8/6 605/8/6
f 605/8/6 602/8/6 606/8/6
f 603/8/6 604/8/6 607/8/6
f 607/8/6 604/8/6 608/8/6
f 606/8/6 607/8/6 609/8/6
f 609/8/6 607/8/6 610/8/6
f 611/8/6 612/8/6 613/8/6
f 613/8/6 612/8/6 614/8/6
