# MagicaVoxel @ Ephtracy

# group
g woman-evil

# material
mtllib woman-evil.mtl
usemtl palette

# normals
vn -1 0 0
vn 1 0 0
vn 0 0 1
vn 0 0 -1
vn 0 -1 0
vn 0 1 0

# texcoords
vt 0.0605469 0.5
vt 0.537109 0.5
vt 0.548828 0.5
vt 0.552734 0.5
vt 0.841797 0.5
vt 0.857422 0.5
vt 0.876953 0.5
vt 0.986328 0.5

# verts
v -5 5 2
v -5 5 -2
v -5 11 2
v -5 11 -2
v -4 2 2
v -4 2 -2
v -4 3 2
v -4 3 -2
v -4 4 1
v -4 4 -0
v -4 5 1
v -4 5 -0
v -4 5 -2
v -4 5 -3
v -4 7 3
v -4 7 2
v -4 11 3
v -4 11 2
v -4 11 -2
v -4 11 -3
v -4 12 2
v -4 12 1
v -4 12 -1
v -4 12 -2
v -4 13 1
v -4 13 -1
v -3 2 3
v -3 2 2
v -3 2 -2
v -3 2 -3
v -3 3 3
v -3 3 2
v -3 3 -2
v -3 3 -3
v -3 4 2
v -3 4 1
v -3 4 -0
v -3 4 -2
v -3 5 1
v -3 5 -0
v -3 6 1
v -3 6 -0
v -3 11 3
v -3 11 2
v -3 11 -2
v -3 11 -3
v -3 12 2
v -3 12 1
v -3 12 -1
v -3 12 -2
v -3 13 3
v -3 13 2
v -3 13 1
v -3 13 -1
v -3 13 -2
v -3 13 -3
v -3 14 2
v -3 14 -2
v -2 0 1
v -2 0 -0
v -2 1 1
v -2 1 -0
v -2 2 4
v -2 2 3
v -2 2 1
v -2 2 -0
v -2 2 -3
v -2 2 -4
v -2 3 4
v -2 3 3
v -2 3 2
v -2 3 -2
v -2 3 -3
v -2 3 -4
v -2 4 3
v -2 4 2
v -2 4 -2
v -2 4 -3
v -2 5 2
v -2 5 1
v -2 5 -0
v -2 5 -2
v -2 6 1
v -2 6 -0
v -2 7 2
v -2 7 -2
v -2 10 -3
v -2 10 -4
v -2 11 4
v -2 11 3
v -2 12 4
v -2 12 3
v -2 12 -3
v -2 12 -4
v -2 13 3
v -2 13 2
v -2 13 -2
v -2 13 -3
v -2 14 3
v -2 14 2
v -2 14 1
v -2 14 -1
v -2 14 -2
v -2 14 -3
v -2 15 1
v -2 15 -1
v -1 9 -3
v -1 9 -4
v -1 10 -3
v -1 10 -4
v -1 12 4
v -1 12 3
v -1 12 -3
v -1 12 -4
v -1 13 4
v -1 13 3
v -1 13 -3
v -1 13 -4
v -1 14 2
v -1 14 1
v -1 14 -1
v -1 14 -2
v -1 15 2
v -1 15 1
v -1 15 -1
v -1 15 -2
v 1 0 1
v 1 0 -0
v 1 1 1
v 1 1 -0
v 1 2 1
v 1 2 -0
v 3 4 1
v 3 4 -0
v 3 5 1
v 3 5 -0
v 3 7 3
v 3 7 2
v 3 11 3
v 3 11 2
v 4 5 2
v 4 5 1
v 4 5 -0
v 4 5 -2
v 4 7 2
v 4 7 -2
v -4 5 2
v -4 5 1
v -4 5 -0
v -4 5 -2
v -4 7 2
v -4 7 -2
v -3 4 1
v -3 4 -0
v -3 5 1
v -3 5 -0
v -3 7 3
v -3 7 2
v -3 11 3
v -3 11 2
v -1 0 1
v -1 0 -0
v -1 1 1
v -1 1 -0
v -1 2 1
v -1 2 -0
v 1 9 -3
v 1 9 -4
v 1 10 -3
v 1 10 -4
v 1 12 4
v 1 12 3
v 1 12 -3
v 1 12 -4
v 1 13 4
v 1 13 3
v 1 13 -3
v 1 13 -4
v 1 14 2
v 1 14 1
v 1 14 -1
v 1 14 -2
v 1 15 2
v 1 15 1
v 1 15 -1
v 1 15 -2
v 2 0 1
v 2 0 -0
v 2 1 1
v 2 1 -0
v 2 2 4
v 2 2 3
v 2 2 1
v 2 2 -0
v 2 2 -3
v 2 2 -4
v 2 3 4
v 2 3 3
v 2 3 2
v 2 3 -2
v 2 3 -3
v 2 3 -4
v 2 4 3
v 2 4 2
v 2 4 -2
v 2 4 -3
v 2 5 2
v 2 5 1
v 2 5 -0
v 2 5 -2
v 2 6 1
v 2 6 -0
v 2 7 2
v 2 7 -2
v 2 10 -3
v 2 10 -4
v 2 11 4
v 2 11 3
v 2 12 4
v 2 12 3
v 2 12 -3
v 2 12 -4
v 2 13 3
v 2 13 2
v 2 13 -2
v 2 13 -3
v 2 14 3
v 2 14 2
v 2 14 1
v 2 14 -1
v 2 14 -2
v 2 14 -3
v 2 15 1
v 2 15 -1
v 3 2 3
v 3 2 2
v 3 2 -2
v 3 2 -3
v 3 3 3
v 3 3 2
v 3 3 -2
v 3 3 -3
v 3 4 2
v 3 4 1
v 3 4 -0
v 3 4 -2
v 3 5 1
v 3 5 -0
v 3 6 1
v 3 6 -0
v 3 11 3
v 3 11 2
v 3 11 -2
v 3 11 -3
v 3 12 2
v 3 12 1
v 3 12 -1
v 3 12 -2
v 3 13 3
v 3 13 2
v 3 13 1
v 3 13 -1
v 3 13 -2
v 3 13 -3
v 3 14 2
v 3 14 -2
v 4 2 2
v 4 2 -2
v 4 3 2
v 4 3 -2
v 4 4 1
v 4 4 -0
v 4 5 1
v 4 5 -0
v 4 5 -2
v 4 5 -3
v 4 7 3
v 4 7 2
v 4 11 3
v 4 11 2
v 4 11 -2
v 4 11 -3
v 4 12 2
v 4 12 1
v 4 12 -1
v 4 12 -2
v 4 13 1
v 4 13 -1
v 5 5 2
v 5 5 -2
v 5 11 2
v 5 11 -2
v -2 2 4
v -2 3 4
v -2 11 4
v -2 12 4
v -1 12 4
v -1 13 4
v 1 12 4
v 1 13 4
v 2 2 4
v 2 3 4
v 2 11 4
v 2 12 4
v -4 7 3
v -4 11 3
v -3 2 3
v -3 3 3
v -3 7 3
v -3 11 3
v -3 13 3
v -2 2 3
v -2 3 3
v -2 4 3
v -2 11 3
v -2 12 3
v -2 13 3
v -2 14 3
v -1 12 3
v -1 13 3
v 1 12 3
v 1 13 3
v 2 2 3
v 2 3 3
v 2 4 3
v 2 11 3
v 2 12 3
v 2 13 3
v 2 14 3
v 3 2 3
v 3 3 3
v 3 7 3
v 3 11 3
v 3 13 3
v 4 7 3
v 4 11 3
v -5 5 2
v -5 11 2
v -4 2 2
v -4 3 2
v -4 5 2
v -4 7 2
v -4 11 2
v -4 12 2
v -3 2 2
v -3 3 2
v -3 4 2
v -3 7 2
v -3 11 2
v -3 12 2
v -3 13 2
v -3 14 2
v -2 3 2
v -2 4 2
v -2 5 2
v -2 7 2
v -2 8 2
v -2 10 2
v -2 11 2
v -2 13 2
v -2 14 2
v -1 8 2
v -1 10 2
v -1 11 2
v -1 14 2
v -1 15 2
v 1 8 2
v 1 10 2
v 1 14 2
v 1 15 2
v 2 3 2
v 2 4 2
v 2 5 2
v 2 7 2
v 2 8 2
v 2 10 2
v 2 13 2
v 2 14 2
v 3 2 2
v 3 3 2
v 3 4 2
v 3 7 2
v 3 11 2
v 3 12 2
v 3 13 2
v 3 14 2
v 4 2 2
v 4 3 2
v 4 5 2
v 4 7 2
v 4 11 2
v 4 12 2
v 5 5 2
v 5 11 2
v -4 4 1
v -4 5 1
v -4 12 1
v -4 13 1
v -3 4 1
v -3 5 1
v -3 6 1
v -3 12 1
v -3 13 1
v -2 0 1
v -2 1 1
v -2 2 1
v -2 5 1
v -2 6 1
v -2 14 1
v -2 15 1
v -1 0 1
v -1 1 1
v -1 2 1
v -1 14 1
v -1 15 1
v 1 0 1
v 1 1 1
v 1 2 1
v 1 14 1
v 1 15 1
v 2 0 1
v 2 1 1
v 2 2 1
v 2 5 1
v 2 6 1
v 2 14 1
v 2 15 1
v 3 4 1
v 3 5 1
v 3 6 1
v 3 12 1
v 3 13 1
v 4 4 1
v 4 5 1
v 4 12 1
v 4 13 1
v -4 5 -2
v -4 7 -2
v -2 5 -2
v -2 7 -2
v 2 5 -2
v 2 7 -2
v 3 7 -2
v 4 5 -2
v 4 7 -2
v -4 4 -0
v -4 5 -0
v -3 4 -0
v -3 5 -0
v -3 6 -0
v -2 0 -0
v -2 1 -0
v -2 2 -0
v -2 5 -0
v -2 6 -0
v -1 0 -0
v -1 1 -0
v -1 2 -0
v 1 0 -0
v 1 1 -0
v 1 2 -0
v 2 0 -0
v 2 1 -0
v 2 2 -0
v 2 5 -0
v 2 6 -0
v 3 4 -0
v 3 5 -0
v 3 6 -0
v 4 4 -0
v 4 5 -0
v -4 12 -1
v -4 13 -1
v -3 12 -1
v -3 13 -1
v -2 14 -1
v -2 15 -1
v -1 14 -1
v -1 15 -1
v 1 14 -1
v 1 15 -1
v 2 14 -1
v 2 15 -1
v 3 12 -1
v 3 13 -1
v 4 12 -1
v 4 13 -1
v -5 5 -2
v -5 11 -2
v -4 2 -2
v -4 3 -2
v -4 5 -2
v -4 11 -2
v -4 12 -2
v -3 2 -2
v -3 3 -2
v -3 4 -2
v -3 11 -2
v -3 12 -2
v -3 13 -2
v -3 14 -2
v -2 3 -2
v -2 4 -2
v -2 5 -2
v -2 13 -2
v -2 14 -2
v -1 14 -2
v -1 15 -2
v 1 14 -2
v 1 15 -2
v 2 3 -2
v 2 4 -2
v 2 5 -2
v 2 13 -2
v 2 14 -2
v 3 2 -2
v 3 3 -2
v 3 4 -2
v 3 11 -2
v 3 12 -2
v 3 13 -2
v 3 14 -2
v 4 2 -2
v 4 3 -2
v 4 5 -2
v 4 11 -2
v 4 12 -2
v 5 5 -2
v 5 11 -2
v -4 5 -3
v -4 11 -3
v -3 2 -3
v -3 3 -3
v -3 11 -3
v -3 13 -3
v -2 2 -3
v -2 3 -3
v -2 4 -3
v -2 10 -3
v -2 12 -3
v -2 13 -3
v -2 14 -3
v -1 9 -3
v -1 10 -3
v -1 12 -3
v -1 13 -3
v 1 9 -3
v 1 10 -3
v 1 12 -3
v 1 13 -3
v 2 2 -3
v 2 3 -3
v 2 4 -3
v 2 10 -3
v 2 12 -3
v 2 13 -3
v 2 14 -3
v 3 2 -3
v 3 3 -3
v 3 11 -3
v 3 13 -3
v 4 5 -3
v 4 11 -3
v -2 2 -4
v -2 3 -4
v -2 10 -4
v -2 12 -4
v -1 9 -4
v -1 10 -4
v -1 12 -4
v -1 13 -4
v 1 9 -4
v 1 10 -4
v 1 12 -4
v 1 13 -4
v 2 2 -4
v 2 3 -4
v 2 10 -4
v 2 12 -4
v -2 0 1
v -1 0 1
v 1 0 1
v 2 0 1
v -2 0 -0
v -1 0 -0
v 1 0 -0
v 2 0 -0
v -2 2 4
v 2 2 4
v -3 2 3
v -2 2 3
v 2 2 3
v 3 2 3
v -4 2 2
v -3 2 2
v 3 2 2
v 4 2 2
v -2 2 1
v -1 2 1
v 1 2 1
v 2 2 1
v -2 2 -0
v -1 2 -0
v 1 2 -0
v 2 2 -0
v -4 2 -2
v -3 2 -2
v 3 2 -2
v 4 2 -2
v -3 2 -3
v -2 2 -3
v 2 2 -3
v 3 2 -3
v -2 2 -4
v 2 2 -4
v -4 4 1
v -3 4 1
v 3 4 1
v 4 4 1
v -4 4 -0
v -3 4 -0
v 3 4 -0
v 4 4 -0
v -5 5 2
v -4 5 2
v 4 5 2
v 5 5 2
v -4 5 1
v -3 5 1
v -2 5 1
v 2 5 1
v 3 5 1
v 4 5 1
v -4 5 -0
v -3 5 -0
v -2 5 -0
v 2 5 -0
v 3 5 -0
v 4 5 -0
v -5 5 -2
v -4 5 -2
v -2 5 -2
v 2 5 -2
v 4 5 -2
v 5 5 -2
v -4 5 -3
v 4 5 -3
v -4 7 3
v -3 7 3
v 3 7 3
v 4 7 3
v -4 7 2
v -3 7 2
v -2 7 2
v 2 7 2
v 3 7 2
v 4 7 2
v -4 7 -2
v -2 7 -2
v 2 7 -2
v 3 7 -2
v 4 7 -2
v -1 9 -3
v 1 9 -3
v -1 9 -4
v 1 9 -4
v -2 10 -3
v -1 10 -3
v 1 10 -3
v 2 10 -3
v -2 10 -4
v -1 10 -4
v 1 10 -4
v 2 10 -4
v -2 11 4
v 2 11 4
v -3 11 3
v -2 11 3
v -1 11 3
v 2 11 3
v 3 11 3
v -3 11 2
v -2 11 2
v -1 11 2
v 3 11 2
v -2 3 4
v 2 3 4
v -3 3 3
v -2 3 3
v 2 3 3
v 3 3 3
v -4 3 2
v -3 3 2
v -2 3 2
v 2 3 2
v 3 3 2
v 4 3 2
v -4 3 -2
v -3 3 -2
v -2 3 -2
v 2 3 -2
v 3 3 -2
v 4 3 -2
v -3 3 -3
v -2 3 -3
v 2 3 -3
v 3 3 -3
v -2 3 -4
v 2 3 -4
v -2 4 3
v 2 4 3
v -3 4 2
v -2 4 2
v 2 4 2
v 3 4 2
v -3 4 1
v 3 4 1
v -3 4 -0
v 3 4 -0
v -3 4 -2
v -2 4 -2
v 2 4 -2
v 3 4 -2
v -2 4 -3
v 2 4 -3
v -4 5 1
v -3 5 1
v 3 5 1
v 4 5 1
v -4 5 -0
v -3 5 -0
v 3 5 -0
v 4 5 -0
v -3 6 1
v -2 6 1
v 2 6 1
v 3 6 1
v -3 6 -0
v -2 6 -0
v 2 6 -0
v 3 6 -0
v -4 11 3
v -3 11 3
v 3 11 3
v 4 11 3
v -5 11 2
v -4 11 2
v -3 11 2
v 3 11 2
v 4 11 2
v 5 11 2
v -5 11 -2
v -4 11 -2
v -3 11 -2
v 3 11 -2
v 4 11 -2
v 5 11 -2
v -4 11 -3
v -3 11 -3
v 3 11 -3
v 4 11 -3
v -2 12 4
v -1 12 4
v 1 12 4
v 2 12 4
v -2 12 3
v -1 12 3
v 1 12 3
v 2 12 3
v -4 12 2
v -3 12 2
v 3 12 2
v 4 12 2
v -4 12 1
v -3 12 1
v 3 12 1
v 4 12 1
v -4 12 -1
v -3 12 -1
v 3 12 -1
v 4 12 -1
v -4 12 -2
v -3 12 -2
v 3 12 -2
v 4 12 -2
v -2 12 -3
v -1 12 -3
v 1 12 -3
v 2 12 -3
v -2 12 -4
v -1 12 -4
v 1 12 -4
v 2 12 -4
v -1 13 4
v 1 13 4
v -3 13 3
v -2 13 3
v -1 13 3
v 1 13 3
v 2 13 3
v 3 13 3
v -3 13 2
v -2 13 2
v 2 13 2
v 3 13 2
v -4 13 1
v -3 13 1
v 3 13 1
v 4 13 1
v -4 13 -1
v -3 13 -1
v 3 13 -1
v 4 13 -1
v -3 13 -2
v -2 13 -2
v 2 13 -2
v 3 13 -2
v -3 13 -3
v -2 13 -3
v -1 13 -3
v 1 13 -3
v 2 13 -3
v 3 13 -3
v -1 13 -4
v 1 13 -4
v -2 14 3
v 2 14 3
v -3 14 2
v -2 14 2
v -1 14 2
v 1 14 2
v 2 14 2
v 3 14 2
v -2 14 1
v -1 14 1
v 1 14 1
v 2 14 1
v -2 14 -1
v -1 14 -1
v 1 14 -1
v 2 14 -1
v -3 14 -2
v -2 14 -2
v -1 14 -2
v 1 14 -2
v 2 14 -2
v 3 14 -2
v -2 14 -3
v 2 14 -3
v -1 15 2
v 1 15 2
v -2 15 1
v -1 15 1
v 1 15 1
v 2 15 1
v -2 15 -1
v -1 15 -1
v 1 15 -1
v 2 15 -1
v -1 15 -2
v 1 15 -2

# faces
f 3/6/1 2/6/1 1/6/1
f 4/6/1 2/6/1 3/6/1
f 7/3/1 6/3/1 5/3/1
f 8/3/1 6/3/1 7/3/1
f 11/8/1 10/8/1 9/8/1
f 12/8/1 10/8/1 11/8/1
f 17/6/1 16/6/1 15/6/1
f 18/6/1 16/6/1 17/6/1
f 19/6/1 14/6/1 13/6/1
f 20/6/1 14/6/1 19/6/1
f 21/6/1 19/6/1 18/6/1
f 22/6/1 19/6/1 21/6/1
f 23/6/1 19/6/1 22/6/1
f 24/6/1 19/6/1 23/6/1
f 25/6/1 23/6/1 22/6/1
f 26/6/1 23/6/1 25/6/1
f 31/3/1 28/3/1 27/3/1
f 32/3/1 28/3/1 31/3/1
f 33/3/1 30/3/1 29/3/1
f 34/3/1 30/3/1 33/3/1
f 35/3/1 33/3/1 32/3/1
f 36/3/1 33/3/1 35/3/1
f 37/3/1 33/3/1 36/3/1
f 38/3/1 33/3/1 37/3/1
f 41/8/1 40/8/1 39/8/1
f 42/8/1 40/8/1 41/8/1
f 47/6/1 44/6/1 43/6/1
f 50/6/1 46/6/1 45/6/1
f 51/6/1 48/6/1 47/6/1
f 51/6/1 47/6/1 43/6/1
f 52/6/1 48/6/1 51/6/1
f 53/6/1 48/6/1 52/6/1
f 54/6/1 50/6/1 49/6/1
f 55/6/1 46/6/1 50/6/1
f 55/6/1 50/6/1 54/6/1
f 56/6/1 46/6/1 55/6/1
f 57/6/1 53/6/1 52/6/1
f 57/6/1 54/6/1 53/6/1
f 57/6/1 55/6/1 54/6/1
f 58/6/1 55/6/1 57/6/1
f 61/7/1 60/7/1 59/7/1
f 62/7/1 60/7/1 61/7/1
f 65/8/1 62/8/1 61/8/1
f 66/8/1 62/8/1 65/8/1
f 69/3/1 64/3/1 63/3/1
f 70/3/1 64/3/1 69/3/1
f 73/3/1 68/3/1 67/3/1
f 74/3/1 68/3/1 73/3/1
f 75/3/1 71/3/1 70/3/1
f 76/3/1 71/3/1 75/3/1
f 77/3/1 73/3/1 72/3/1
f 78/3/1 73/3/1 77/3/1
f 79/3/1 77/3/1 76/3/1
f 80/3/1 77/3/1 79/3/1
f 81/3/1 77/3/1 80/3/1
f 82/3/1 77/3/1 81/3/1
f 83/4/1 80/4/1 79/4/1
f 84/4/1 82/4/1 81/4/1
f 85/4/1 83/4/1 79/4/1
f 85/4/1 84/4/1 83/4/1
f 86/4/1 82/4/1 84/4/1
f 86/4/1 84/4/1 85/4/1
f 91/6/1 90/6/1 89/6/1
f 92/6/1 90/6/1 91/6/1
f 93/6/1 88/6/1 87/6/1
f 94/6/1 88/6/1 93/6/1
f 99/6/1 96/6/1 95/6/1
f 100/6/1 96/6/1 99/6/1
f 103/6/1 98/6/1 97/6/1
f 104/6/1 98/6/1 103/6/1
f 105/6/1 102/6/1 101/6/1
f 106/6/1 102/6/1 105/6/1
f 109/6/1 108/6/1 107/6/1
f 110/6/1 108/6/1 109/6/1
f 115/6/1 112/6/1 111/6/1
f 116/6/1 112/6/1 115/6/1
f 117/6/1 114/6/1 113/6/1
f 118/6/1 114/6/1 117/6/1
f 123/6/1 120/6/1 119/6/1
f 124/6/1 120/6/1 123/6/1
f 125/6/1 122/6/1 121/6/1
f 126/6/1 122/6/1 125/6/1
f 129/7/1 128/7/1 127/7/1
f 130/7/1 128/7/1 129/7/1
f 131/8/1 130/8/1 129/8/1
f 132/8/1 130/8/1 131/8/1
f 135/8/1 134/8/1 133/8/1
f 136/8/1 134/8/1 135/8/1
f 139/6/1 138/6/1 137/6/1
f 140/6/1 138/6/1 139/6/1
f 145/6/1 142/6/1 141/6/1
f 145/6/1 144/6/1 143/6/1
f 145/6/1 143/6/1 142/6/1
f 146/6/1 144/6/1 145/6/1
f 147/6/2 148/6/2 151/6/2
f 149/6/2 150/6/2 151/6/2
f 148/6/2 149/6/2 151/6/2
f 151/6/2 150/6/2 152/6/2
f 153/8/2 154/8/2 155/8/2
f 155/8/2 154/8/2 156/8/2
f 157/6/2 158/6/2 159/6/2
f 159/6/2 158/6/2 160/6/2
f 161/7/2 162/7/2 163/7/2
f 163/7/2 162/7/2 164/7/2
f 163/8/2 164/8/2 165/8/2
f 165/8/2 164/8/2 166/8/2
f 167/6/2 168/6/2 169/6/2
f 169/6/2 168/6/2 170/6/2
f 171/6/2 172/6/2 175/6/2
f 175/6/2 172/6/2 176/6/2
f 173/6/2 174/6/2 177/6/2
f 177/6/2 174/6/2 178/6/2
f 179/6/2 180/6/2 183/6/2
f 183/6/2 180/6/2 184/6/2
f 181/6/2 182/6/2 185/6/2
f 185/6/2 182/6/2 186/6/2
f 187/7/2 188/7/2 189/7/2
f 189/7/2 188/7/2 190/7/2
f 189/8/2 190/8/2 193/8/2
f 193/8/2 190/8/2 194/8/2
f 191/3/2 192/3/2 197/3/2
f 197/3/2 192/3/2 198/3/2
f 195/3/2 196/3/2 201/3/2
f 201/3/2 196/3/2 202/3/2
f 198/3/2 199/3/2 203/3/2
f 203/3/2 199/3/2 204/3/2
f 200/3/2 201/3/2 205/3/2
f 205/3/2 201/3/2 206/3/2
f 204/3/2 205/3/2 207/3/2
f 207/3/2 205/3/2 208/3/2
f 208/3/2 205/3/2 209/3/2
f 209/3/2 205/3/2 210/3/2
f 207/4/2 208/4/2 211/4/2
f 209/4/2 210/4/2 212/4/2
f 207/4/2 211/4/2 213/4/2
f 211/4/2 212/4/2 213/4/2
f 212/4/2 210/4/2 214/4/2
f 213/4/2 212/4/2 214/4/2
f 217/6/2 218/6/2 219/6/2
f 219/6/2 218/6/2 220/6/2
f 215/6/2 216/6/2 221/6/2
f 221/6/2 216/6/2 222/6/2
f 223/6/2 224/6/2 227/6/2
f 227/6/2 224/6/2 228/6/2
f 225/6/2 226/6/2 231/6/2
f 231/6/2 226/6/2 232/6/2
f 229/6/2 230/6/2 233/6/2
f 233/6/2 230/6/2 234/6/2
f 235/3/2 236/3/2 239/3/2
f 239/3/2 236/3/2 240/3/2
f 237/3/2 238/3/2 241/3/2
f 241/3/2 238/3/2 242/3/2
f 240/3/2 241/3/2 243/3/2
f 243/3/2 241/3/2 244/3/2
f 244/3/2 241/3/2 245/3/2
f 245/3/2 241/3/2 246/3/2
f 247/8/2 248/8/2 249/8/2
f 249/8/2 248/8/2 250/8/2
f 251/6/2 252/6/2 255/6/2
f 253/6/2 254/6/2 258/6/2
f 255/6/2 256/6/2 259/6/2
f 251/6/2 255/6/2 259/6/2
f 259/6/2 256/6/2 260/6/2
f 260/6/2 256/6/2 261/6/2
f 257/6/2 258/6/2 262/6/2
f 258/6/2 254/6/2 263/6/2
f 262/6/2 258/6/2 263/6/2
f 263/6/2 254/6/2 264/6/2
f 260/6/2 261/6/2 265/6/2
f 261/6/2 262/6/2 265/6/2
f 262/6/2 263/6/2 265/6/2
f 265/6/2 263/6/2 266/6/2
f 267/3/2 268/3/2 269/3/2
f 269/3/2 268/3/2 270/3/2
f 271/8/2 272/8/2 273/8/2
f 273/8/2 272/8/2 274/8/2
f 277/6/2 278/6/2 279/6/2
f 279/6/2 278/6/2 280/6/2
f 275/6/2 276/6/2 281/6/2
f 281/6/2 276/6/2 282/6/2
f 280/6/2 281/6/2 283/6/2
f 283/6/2 281/6/2 284/6/2
f 284/6/2 281/6/2 285/6/2
f 285/6/2 281/6/2 286/6/2
f 284/6/2 285/6/2 287/6/2
f 287/6/2 285/6/2 288/6/2
f 289/6/2 290/6/2 291/6/2
f 291/6/2 290/6/2 292/6/2
f 297/6/3 296/6/3 295/6/3
f 299/6/3 297/6/3 295/6/3
f 299/6/3 298/6/3 297/6/3
f 300/6/3 298/6/3 299/6/3
f 301/3/3 294/3/3 293/3/3
f 302/3/3 294/3/3 301/3/3
f 303/6/3 299/6/3 295/6/3
f 304/6/3 299/6/3 303/6/3
f 309/6/3 306/6/3 305/6/3
f 310/6/3 306/6/3 309/6/3
f 312/3/3 308/3/3 307/3/3
f 313/3/3 308/3/3 312/3/3
f 315/6/3 311/6/3 310/6/3
f 316/6/3 311/6/3 315/6/3
f 317/6/3 311/6/3 316/6/3
f 319/6/3 318/6/3 317/6/3
f 319/6/3 317/6/3 316/6/3
f 320/6/3 318/6/3 319/6/3
f 322/6/3 318/6/3 320/6/3
f 324/3/3 314/3/3 313/3/3
f 325/3/3 314/3/3 324/3/3
f 327/6/3 322/6/3 321/6/3
f 328/6/3 318/6/3 322/6/3
f 328/6/3 322/6/3 327/6/3
f 329/6/3 318/6/3 328/6/3
f 330/3/3 324/3/3 323/3/3
f 331/3/3 324/3/3 330/3/3
f 333/6/3 327/6/3 326/6/3
f 333/6/3 328/6/3 327/6/3
f 334/6/3 328/6/3 333/6/3
f 335/6/3 333/6/3 332/6/3
f 336/6/3 333/6/3 335/6/3
f 341/6/3 338/6/3 337/6/3
f 342/6/3 338/6/3 341/6/3
f 343/6/3 338/6/3 342/6/3
f 345/3/3 340/3/3 339/3/3
f 346/3/3 340/3/3 345/3/3
f 349/6/3 344/6/3 343/6/3
f 350/6/3 344/6/3 349/6/3
f 353/3/3 347/3/3 346/3/3
f 354/3/3 347/3/3 353/3/3
f 356/8/3 349/8/3 348/8/3
f 357/8/3 349/8/3 356/8/3
f 358/8/3 349/8/3 357/8/3
f 359/8/3 349/8/3 358/8/3
f 360/6/3 352/6/3 351/6/3
f 361/6/3 352/6/3 360/6/3
f 362/8/3 357/8/3 356/8/3
f 362/5/3 358/5/3 357/5/3
f 363/8/3 359/8/3 358/8/3
f 363/5/3 358/5/3 362/5/3
f 364/8/3 359/8/3 363/8/3
f 367/8/3 362/8/3 356/8/3
f 367/8/3 364/8/3 363/8/3
f 367/8/3 363/8/3 362/8/3
f 368/8/3 364/8/3 367/8/3
f 369/6/3 366/6/3 365/6/3
f 370/6/3 366/6/3 369/6/3
f 372/3/3 355/3/3 354/3/3
f 373/4/3 356/4/3 355/4/3
f 373/3/3 355/3/3 372/3/3
f 374/8/3 367/8/3 356/8/3
f 374/4/3 356/4/3 373/4/3
f 375/5/3 368/5/3 367/5/3
f 375/8/3 367/8/3 374/8/3
f 376/8/3 364/8/3 368/8/3
f 376/5/3 368/5/3 375/5/3
f 380/3/3 372/3/3 371/3/3
f 381/3/3 372/3/3 380/3/3
f 382/8/3 375/8/3 374/8/3
f 382/8/3 376/8/3 375/8/3
f 383/8/3 364/8/3 376/8/3
f 383/8/3 376/8/3 382/8/3
f 385/6/3 378/6/3 377/6/3
f 386/6/3 378/6/3 385/6/3
f 387/3/3 380/3/3 379/3/3
f 388/3/3 380/3/3 387/3/3
f 391/6/3 384/6/3 383/6/3
f 392/6/3 384/6/3 391/6/3
f 393/6/3 390/6/3 389/6/3
f 393/6/3 391/6/3 390/6/3
f 394/6/3 391/6/3 393/6/3
f 399/8/3 396/8/3 395/8/3
f 400/8/3 396/8/3 399/8/3
f 402/6/3 398/6/3 397/6/3
f 403/6/3 398/6/3 402/6/3
f 407/8/3 401/8/3 400/8/3
f 408/8/3 401/8/3 407/8/3
f 411/7/3 405/7/3 404/7/3
f 412/8/3 406/8/3 405/8/3
f 412/7/3 405/7/3 411/7/3
f 413/8/3 406/8/3 412/8/3
f 414/6/3 410/6/3 409/6/3
f 415/6/3 410/6/3 414/6/3
f 421/7/3 417/7/3 416/7/3
f 422/8/3 418/8/3 417/8/3
f 422/7/3 417/7/3 421/7/3
f 423/8/3 418/8/3 422/8/3
f 426/6/3 420/6/3 419/6/3
f 427/6/3 420/6/3 426/6/3
f 429/8/3 425/8/3 424/8/3
f 430/8/3 425/8/3 429/8/3
f 433/8/3 429/8/3 428/8/3
f 434/8/3 429/8/3 433/8/3
f 435/6/3 432/6/3 431/6/3
f 436/6/3 432/6/3 435/6/3
f 439/6/3 438/6/3 437/6/3
f 440/6/3 438/6/3 439/6/3
f 443/6/3 442/6/3 441/6/3
f 444/6/3 443/6/3 441/6/3
f 445/6/3 443/6/3 444/6/3
f 446/8/4 447/8/4 448/8/4
f 448/8/4 447/8/4 449/8/4
f 449/8/4 450/8/4 454/8/4
f 454/8/4 450/8/4 455/8/4
f 451/7/4 452/7/4 456/7/4
f 452/8/4 453/8/4 457/8/4
f 456/7/4 452/7/4 457/7/4
f 457/8/4 453/8/4 458/8/4
f 459/7/4 460/7/4 462/7/4
f 460/8/4 461/8/4 463/8/4
f 462/7/4 460/7/4 463/7/4
f 463/8/4 461/8/4 464/8/4
f 465/8/4 466/8/4 468/8/4
f 468/8/4 466/8/4 469/8/4
f 467/8/4 468/8/4 470/8/4
f 470/8/4 468/8/4 471/8/4
f 472/6/4 473/6/4 474/6/4
f 474/6/4 473/6/4 475/6/4
f 476/6/4 477/6/4 478/6/4
f 478/6/4 477/6/4 479/6/4
f 480/6/4 481/6/4 482/6/4
f 482/6/4 481/6/4 483/6/4
f 484/6/4 485/6/4 486/6/4
f 486/6/4 485/6/4 487/6/4
f 488/6/4 489/6/4 492/6/4
f 492/6/4 489/6/4 493/6/4
f 490/3/4 491/3/4 495/3/4
f 495/3/4 491/3/4 496/3/4
f 493/6/4 494/6/4 498/6/4
f 498/6/4 494/6/4 499/6/4
f 496/3/4 497/3/4 502/3/4
f 502/3/4 497/3/4 503/3/4
f 500/6/4 501/6/4 505/6/4
f 505/6/4 501/6/4 506/6/4
f 507/6/4 508/6/4 509/6/4
f 509/6/4 508/6/4 510/6/4
f 503/3/4 504/3/4 512/3/4
f 512/3/4 504/3/4 513/3/4
f 511/3/4 512/3/4 517/3/4
f 517/3/4 512/3/4 518/3/4
f 514/6/4 515/6/4 521/6/4
f 521/6/4 515/6/4 522/6/4
f 516/3/4 517/3/4 523/3/4
f 523/3/4 517/3/4 524/3/4
f 519/6/4 520/6/4 526/6/4
f 526/6/4 520/6/4 527/6/4
f 525/6/4 526/6/4 528/6/4
f 528/6/4 526/6/4 529/6/4
f 530/6/4 531/6/4 534/6/4
f 532/3/4 533/3/4 536/3/4
f 536/3/4 533/3/4 537/3/4
f 534/6/4 535/6/4 539/6/4
f 530/6/4 534/6/4 539/6/4
f 539/6/4 535/6/4 540/6/4
f 540/6/4 535/6/4 541/6/4
f 530/6/4 539/6/4 543/6/4
f 543/6/4 539/6/4 544/6/4
f 541/6/4 542/6/4 545/6/4
f 540/6/4 541/6/4 545/6/4
f 545/6/4 542/6/4 546/6/4
f 530/6/4 543/6/4 547/6/4
f 546/6/4 542/6/4 550/6/4
f 537/3/4 538/3/4 552/3/4
f 552/3/4 538/3/4 553/3/4
f 547/6/4 548/6/4 554/6/4
f 549/6/4 550/6/4 555/6/4
f 550/6/4 542/6/4 556/6/4
f 555/6/4 550/6/4 556/6/4
f 556/6/4 542/6/4 557/6/4
f 551/3/4 552/3/4 558/3/4
f 558/3/4 552/3/4 559/3/4
f 554/6/4 555/6/4 560/6/4
f 555/6/4 556/6/4 560/6/4
f 560/6/4 556/6/4 561/6/4
f 547/6/4 554/6/4 562/6/4
f 530/6/4 547/6/4 562/6/4
f 554/6/4 560/6/4 562/6/4
f 562/6/4 560/6/4 563/6/4
f 566/6/4 567/6/4 569/6/4
f 569/6/4 567/6/4 570/6/4
f 568/6/4 569/6/4 572/6/4
f 570/6/4 571/6/4 572/6/4
f 569/6/4 570/6/4 572/6/4
f 572/6/4 571/6/4 573/6/4
f 573/6/4 571/6/4 574/6/4
f 574/6/4 571/6/4 575/6/4
f 564/3/4 565/3/4 576/3/4
f 576/3/4 565/3/4 577/3/4
f 573/6/4 574/6/4 578/6/4
f 578/6/4 574/6/4 579/6/4
f 584/7/5 581/7/5 580/7/5
f 585/7/5 581/7/5 584/7/5
f 586/7/5 583/7/5 582/7/5
f 587/7/5 583/7/5 586/7/5
f 591/3/5 589/3/5 588/3/5
f 592/3/5 589/3/5 591/3/5
f 595/3/5 591/3/5 590/3/5
f 595/3/5 593/3/5 592/3/5
f 595/3/5 592/3/5 591/3/5
f 596/3/5 593/3/5 595/3/5
f 598/3/5 595/3/5 594/3/5
f 598/3/5 597/3/5 596/3/5
f 598/3/5 596/3/5 595/3/5
f 599/3/5 597/3/5 598/3/5
f 600/3/5 597/3/5 599/3/5
f 601/3/5 597/3/5 600/3/5
f 602/3/5 598/3/5 594/3/5
f 603/3/5 600/3/5 599/3/5
f 604/3/5 600/3/5 603/3/5
f 605/3/5 597/3/5 601/3/5
f 606/3/5 604/3/5 603/3/5
f 606/3/5 605/3/5 604/3/5
f 606/3/5 602/3/5 594/3/5
f 606/3/5 603/3/5 602/3/5
f 607/3/5 605/3/5 606/3/5
f 608/3/5 597/3/5 605/3/5
f 608/3/5 605/3/5 607/3/5
f 609/3/5 597/3/5 608/3/5
f 610/3/5 608/3/5 607/3/5
f 611/3/5 608/3/5 610/3/5
f 612/3/5 608/3/5 611/3/5
f 613/3/5 608/3/5 612/3/5
f 614/3/5 612/3/5 611/3/5
f 615/3/5 612/3/5 614/3/5
f 620/8/5 617/8/5 616/8/5
f 621/8/5 617/8/5 620/8/5
f 622/8/5 619/8/5 618/8/5
f 623/8/5 619/8/5 622/8/5
f 628/6/5 625/6/5 624/6/5
f 633/6/5 627/6/5 626/6/5
f 634/6/5 628/6/5 624/6/5
f 635/8/5 630/8/5 629/8/5
f 636/8/5 630/8/5 635/8/5
f 637/8/5 632/8/5 631/8/5
f 638/8/5 632/8/5 637/8/5
f 639/6/5 627/6/5 633/6/5
f 640/6/5 634/6/5 624/6/5
f 641/6/5 634/6/5 640/6/5
f 644/6/5 627/6/5 639/6/5
f 645/6/5 627/6/5 644/6/5
f 646/6/5 643/6/5 642/6/5
f 646/6/5 644/6/5 643/6/5
f 646/6/5 642/6/5 641/6/5
f 647/6/5 644/6/5 646/6/5
f 652/6/5 649/6/5 648/6/5
f 653/6/5 649/6/5 652/6/5
f 656/6/5 651/6/5 650/6/5
f 657/6/5 651/6/5 656/6/5
f 658/8/5 654/8/5 653/8/5
f 658/8/5 653/8/5 652/8/5
f 659/8/5 654/8/5 658/8/5
f 660/8/5 656/8/5 655/8/5
f 661/6/5 657/6/5 656/6/5
f 661/8/5 656/8/5 660/8/5
f 662/6/5 657/6/5 661/6/5
f 665/6/5 664/6/5 663/6/5
f 666/6/5 664/6/5 665/6/5
f 671/6/5 668/6/5 667/6/5
f 672/6/5 668/6/5 671/6/5
f 673/6/5 670/6/5 669/6/5
f 674/6/5 670/6/5 673/6/5
f 678/6/5 676/6/5 675/6/5
f 679/6/5 676/6/5 678/6/5
f 680/6/5 676/6/5 679/6/5
f 682/6/5 678/6/5 677/6/5
f 683/2/5 679/2/5 678/2/5
f 683/6/5 678/6/5 682/6/5
f 684/6/5 681/6/5 680/6/5
f 684/2/5 679/2/5 683/2/5
f 684/6/5 680/6/5 679/6/5
f 685/6/5 681/6/5 684/6/5
f 686/3/6 687/3/6 689/3/6
f 689/3/6 687/3/6 690/3/6
f 688/3/6 689/3/6 693/3/6
f 693/3/6 689/3/6 694/3/6
f 690/3/6 691/3/6 695/3/6
f 695/3/6 691/3/6 696/3/6
f 692/3/6 693/3/6 698/3/6
f 698/3/6 693/3/6 699/3/6
f 696/3/6 697/3/6 702/3/6
f 702/3/6 697/3/6 703/3/6
f 699/3/6 700/3/6 704/3/6
f 704/3/6 700/3/6 705/3/6
f 701/3/6 702/3/6 706/3/6
f 706/3/6 702/3/6 707/3/6
f 705/3/6 706/3/6 708/3/6
f 708/3/6 706/3/6 709/3/6
f 710/3/6 711/3/6 713/3/6
f 713/3/6 711/3/6 714/3/6
f 712/3/6 713/3/6 716/3/6
f 714/3/6 715/3/6 717/3/6
f 716/3/6 713/3/6 718/3/6
f 714/3/6 717/3/6 719/3/6
f 718/3/6 713/3/6 720/3/6
f 720/3/6 713/3/6 721/3/6
f 714/3/6 719/3/6 722/3/6
f 722/3/6 719/3/6 723/3/6
f 721/3/6 722/3/6 724/3/6
f 724/3/6 722/3/6 725/3/6
f 726/8/6 727/8/6 730/8/6
f 730/8/6 727/8/6 731/8/6
f 728/8/6 729/8/6 732/8/6
f 732/8/6 729/8/6 733/8/6
f 734/8/6 735/8/6 738/8/6
f 738/8/6 735/8/6 739/8/6
f 736/8/6 737/8/6 740/8/6
f 740/8/6 737/8/6 741/8/6
f 742/6/6 743/6/6 747/6/6
f 747/6/6 743/6/6 748/6/6
f 744/6/6 745/6/6 749/6/6
f 749/6/6 745/6/6 750/6/6
f 746/6/6 747/6/6 752/6/6
f 752/6/6 747/6/6 753/6/6
f 750/6/6 751/6/6 756/6/6
f 756/6/6 751/6/6 757/6/6
f 753/6/6 754/6/6 758/6/6
f 758/6/6 754/6/6 759/6/6
f 755/6/6 756/6/6 760/6/6
f 760/6/6 756/6/6 761/6/6
f 762/6/6 763/6/6 766/6/6
f 766/6/6 763/6/6 767/6/6
f 764/6/6 765/6/6 768/6/6
f 768/6/6 765/6/6 769/6/6
f 770/6/6 771/6/6 774/6/6
f 774/6/6 771/6/6 775/6/6
f 772/6/6 773/6/6 776/6/6
f 776/6/6 773/6/6 777/6/6
f 778/6/6 779/6/6 782/6/6
f 782/6/6 779/6/6 783/6/6
f 780/6/6 781/6/6 784/6/6
f 784/6/6 781/6/6 785/6/6
f 786/6/6 787/6/6 790/6/6
f 790/6/6 787/6/6 791/6/6
f 788/6/6 789/6/6 792/6/6
f 792/6/6 789/6/6 793/6/6
f 794/6/6 795/6/6 798/6/6
f 798/6/6 795/6/6 799/6/6
f 796/6/6 797/6/6 802/6/6
f 802/6/6 797/6/6 803/6/6
f 800/6/6 801/6/6 804/6/6
f 804/6/6 801/6/6 805/6/6
f 806/6/6 807/6/6 810/6/6
f 810/6/6 807/6/6 811/6/6
f 808/6/6 809/6/6 812/6/6
f 812/6/6 809/6/6 813/6/6
f 814/6/6 815/6/6 818/6/6
f 818/6/6 815/6/6 819/6/6
f 816/6/6 817/6/6 822/6/6
f 822/6/6 817/6/6 823/6/6
f 820/6/6 821/6/6 824/6/6
f 824/6/6 821/6/6 825/6/6
f 826/6/6 827/6/6 829/6/6
f 829/6/6 827/6/6 830/6/6
f 830/6/6 827/6/6 831/6/6
f 831/6/6 827/6/6 832/6/6
f 828/6/6 829/6/6 834/6/6
f 829/6/6 830/6/6 834/6/6
f 834/6/6 830/6/6 835/6/6
f 832/6/6 833/6/6 836/6/6
f 831/6/6 832/6/6 836/6/6
f 836/6/6 833/6/6 837/6/6
f 828/6/6 834/6/6 838/6/6
f 837/6/6 833/6/6 841/6/6
f 838/6/6 839/6/6 842/6/6
f 828/6/6 838/6/6 842/6/6
f 842/6/6 839/6/6 843/6/6
f 843/6/6 839/6/6 844/6/6
f 840/6/6 841/6/6 845/6/6
f 841/6/6 833/6/6 846/6/6
f 845/6/6 841/6/6 846/6/6
f 846/6/6 833/6/6 847/6/6
f 843/6/6 844/6/6 848/6/6
f 844/6/6 845/6/6 848/6/6
f 845/6/6 846/6/6 848/6/6
f 848/6/6 846/6/6 849/6/6
f 850/6/6 851/6/6 853/6/6
f 853/6/6 851/6/6 854/6/6
f 852/6/6 853/6/6 856/6/6
f 854/6/6 855/6/6 856/6/6
f 853/6/6 854/6/6 856/6/6
f 856/6/6 855/6/6 857/6/6
f 857/6/6 855/6/6 858/6/6
f 858/6/6 855/6/6 859/6/6
f 857/6/6 858/6/6 860/6/6
f 860/6/6 858/6/6 861/6/6
