# MagicaVoxel @ Ephtracy

# group
g woman

# material
mtllib woman.mtl
usemtl palette

# normals
vn -1 0 0
vn 1 0 0
vn 0 0 1
vn 0 0 -1
vn 0 -1 0
vn 0 1 0

# texcoords
vt 0.0605469 0.5
vt 0.537109 0.5
vt 0.548828 0.5
vt 0.552734 0.5
vt 0.876953 0.5
vt 0.904297 0.5

# verts
v -5 5 2
v -5 5 -2
v -5 11 2
v -5 11 -2
v -4 2 2
v -4 2 -2
v -4 3 2
v -4 3 -2
v -4 4 1
v -4 4 -0
v -4 5 1
v -4 5 -0
v -4 5 -2
v -4 5 -3
v -4 7 3
v -4 7 2
v -4 11 3
v -4 11 2
v -4 11 -2
v -4 11 -3
v -4 12 2
v -4 12 1
v -4 12 -1
v -4 12 -2
v -4 13 1
v -4 13 -1
v -3 2 3
v -3 2 2
v -3 2 -2
v -3 2 -3
v -3 3 3
v -3 3 2
v -3 3 -2
v -3 3 -3
v -3 4 2
v -3 4 1
v -3 4 -0
v -3 4 -2
v -3 5 1
v -3 5 -0
v -3 6 1
v -3 6 -0
v -3 11 3
v -3 11 2
v -3 11 -2
v -3 11 -3
v -3 12 2
v -3 12 1
v -3 12 -1
v -3 12 -2
v -3 13 3
v -3 13 2
v -3 13 1
v -3 13 -1
v -3 13 -2
v -3 13 -3
v -3 14 2
v -3 14 -2
v -2 0 1
v -2 0 -0
v -2 1 1
v -2 1 -0
v -2 2 4
v -2 2 3
v -2 2 1
v -2 2 -0
v -2 2 -3
v -2 2 -4
v -2 3 4
v -2 3 3
v -2 3 2
v -2 3 -2
v -2 3 -3
v -2 3 -4
v -2 4 3
v -2 4 2
v -2 4 -2
v -2 4 -3
v -2 5 2
v -2 5 1
v -2 5 -0
v -2 5 -2
v -2 6 1
v -2 6 -0
v -2 7 2
v -2 7 -2
v -2 10 -3
v -2 10 -4
v -2 11 4
v -2 11 3
v -2 12 4
v -2 12 3
v -2 12 -3
v -2 12 -4
v -2 13 3
v -2 13 2
v -2 13 -2
v -2 13 -3
v -2 14 3
v -2 14 2
v -2 14 1
v -2 14 -1
v -2 14 -2
v -2 14 -3
v -2 15 1
v -2 15 -1
v -1 9 -3
v -1 9 -4
v -1 10 -3
v -1 10 -4
v -1 12 4
v -1 12 3
v -1 12 -3
v -1 12 -4
v -1 13 4
v -1 13 3
v -1 13 -3
v -1 13 -4
v -1 14 2
v -1 14 1
v -1 14 -1
v -1 14 -2
v -1 15 2
v -1 15 1
v -1 15 -1
v -1 15 -2
v 1 0 1
v 1 0 -0
v 1 1 1
v 1 1 -0
v 1 2 1
v 1 2 -0
v 3 4 1
v 3 4 -0
v 3 5 1
v 3 5 -0
v 3 7 3
v 3 7 2
v 3 11 3
v 3 11 2
v 4 5 2
v 4 5 1
v 4 5 -0
v 4 5 -2
v 4 7 2
v 4 7 -2
v -4 5 2
v -4 5 1
v -4 5 -0
v -4 5 -2
v -4 7 2
v -4 7 -2
v -3 4 1
v -3 4 -0
v -3 5 1
v -3 5 -0
v -3 7 3
v -3 7 2
v -3 11 3
v -3 11 2
v -1 0 1
v -1 0 -0
v -1 1 1
v -1 1 -0
v -1 2 1
v -1 2 -0
v 1 9 -3
v 1 9 -4
v 1 10 -3
v 1 10 -4
v 1 12 4
v 1 12 3
v 1 12 -3
v 1 12 -4
v 1 13 4
v 1 13 3
v 1 13 -3
v 1 13 -4
v 1 14 2
v 1 14 1
v 1 14 -1
v 1 14 -2
v 1 15 2
v 1 15 1
v 1 15 -1
v 1 15 -2
v 2 0 1
v 2 0 -0
v 2 1 1
v 2 1 -0
v 2 2 4
v 2 2 3
v 2 2 1
v 2 2 -0
v 2 2 -3
v 2 2 -4
v 2 3 4
v 2 3 3
v 2 3 2
v 2 3 -2
v 2 3 -3
v 2 3 -4
v 2 4 3
v 2 4 2
v 2 4 -2
v 2 4 -3
v 2 5 2
v 2 5 1
v 2 5 -0
v 2 5 -2
v 2 6 1
v 2 6 -0
v 2 7 2
v 2 7 -2
v 2 10 -3
v 2 10 -4
v 2 11 4
v 2 11 3
v 2 12 4
v 2 12 3
v 2 12 -3
v 2 12 -4
v 2 13 3
v 2 13 2
v 2 13 -2
v 2 13 -3
v 2 14 3
v 2 14 2
v 2 14 1
v 2 14 -1
v 2 14 -2
v 2 14 -3
v 2 15 1
v 2 15 -1
v 3 2 3
v 3 2 2
v 3 2 -2
v 3 2 -3
v 3 3 3
v 3 3 2
v 3 3 -2
v 3 3 -3
v 3 4 2
v 3 4 1
v 3 4 -0
v 3 4 -2
v 3 5 1
v 3 5 -0
v 3 6 1
v 3 6 -0
v 3 11 3
v 3 11 2
v 3 11 -2
v 3 11 -3
v 3 12 2
v 3 12 1
v 3 12 -1
v 3 12 -2
v 3 13 3
v 3 13 2
v 3 13 1
v 3 13 -1
v 3 13 -2
v 3 13 -3
v 3 14 2
v 3 14 -2
v 4 2 2
v 4 2 -2
v 4 3 2
v 4 3 -2
v 4 4 1
v 4 4 -0
v 4 5 1
v 4 5 -0
v 4 5 -2
v 4 5 -3
v 4 7 3
v 4 7 2
v 4 11 3
v 4 11 2
v 4 11 -2
v 4 11 -3
v 4 12 2
v 4 12 1
v 4 12 -1
v 4 12 -2
v 4 13 1
v 4 13 -1
v 5 5 2
v 5 5 -2
v 5 11 2
v 5 11 -2
v -2 2 4
v -2 3 4
v -2 11 4
v -2 12 4
v -1 12 4
v -1 13 4
v 1 12 4
v 1 13 4
v 2 2 4
v 2 3 4
v 2 11 4
v 2 12 4
v -4 7 3
v -4 11 3
v -3 2 3
v -3 3 3
v -3 7 3
v -3 11 3
v -3 13 3
v -2 2 3
v -2 3 3
v -2 4 3
v -2 11 3
v -2 12 3
v -2 13 3
v -2 14 3
v -1 12 3
v -1 13 3
v 1 12 3
v 1 13 3
v 2 2 3
v 2 3 3
v 2 4 3
v 2 11 3
v 2 12 3
v 2 13 3
v 2 14 3
v 3 2 3
v 3 3 3
v 3 7 3
v 3 11 3
v 3 13 3
v 4 7 3
v 4 11 3
v -5 5 2
v -5 11 2
v -4 2 2
v -4 3 2
v -4 5 2
v -4 7 2
v -4 11 2
v -4 12 2
v -3 2 2
v -3 3 2
v -3 4 2
v -3 7 2
v -3 11 2
v -3 12 2
v -3 13 2
v -3 14 2
v -2 3 2
v -2 4 2
v -2 5 2
v -2 7 2
v -2 8 2
v -2 10 2
v -2 13 2
v -2 14 2
v -1 8 2
v -1 10 2
v -1 14 2
v -1 15 2
v 1 8 2
v 1 10 2
v 1 14 2
v 1 15 2
v 2 3 2
v 2 4 2
v 2 5 2
v 2 7 2
v 2 8 2
v 2 10 2
v 2 13 2
v 2 14 2
v 3 2 2
v 3 3 2
v 3 4 2
v 3 7 2
v 3 11 2
v 3 12 2
v 3 13 2
v 3 14 2
v 4 2 2
v 4 3 2
v 4 5 2
v 4 7 2
v 4 11 2
v 4 12 2
v 5 5 2
v 5 11 2
v -4 4 1
v -4 5 1
v -4 12 1
v -4 13 1
v -3 4 1
v -3 5 1
v -3 6 1
v -3 12 1
v -3 13 1
v -2 0 1
v -2 1 1
v -2 2 1
v -2 5 1
v -2 6 1
v -2 14 1
v -2 15 1
v -1 0 1
v -1 1 1
v -1 2 1
v -1 14 1
v -1 15 1
v 1 0 1
v 1 1 1
v 1 2 1
v 1 14 1
v 1 15 1
v 2 0 1
v 2 1 1
v 2 2 1
v 2 5 1
v 2 6 1
v 2 14 1
v 2 15 1
v 3 4 1
v 3 5 1
v 3 6 1
v 3 12 1
v 3 13 1
v 4 4 1
v 4 5 1
v 4 12 1
v 4 13 1
v -4 5 -2
v -4 7 -2
v -2 5 -2
v -2 7 -2
v 2 5 -2
v 2 7 -2
v 4 5 -2
v 4 7 -2
v -4 4 -0
v -4 5 -0
v -3 4 -0
v -3 5 -0
v -3 6 -0
v -2 0 -0
v -2 1 -0
v -2 2 -0
v -2 5 -0
v -2 6 -0
v -1 0 -0
v -1 1 -0
v -1 2 -0
v 1 0 -0
v 1 1 -0
v 1 2 -0
v 2 0 -0
v 2 1 -0
v 2 2 -0
v 2 5 -0
v 2 6 -0
v 3 4 -0
v 3 5 -0
v 3 6 -0
v 4 4 -0
v 4 5 -0
v -4 12 -1
v -4 13 -1
v -3 12 -1
v -3 13 -1
v -2 14 -1
v -2 15 -1
v -1 14 -1
v -1 15 -1
v 1 14 -1
v 1 15 -1
v 2 14 -1
v 2 15 -1
v 3 12 -1
v 3 13 -1
v 4 12 -1
v 4 13 -1
v -5 5 -2
v -5 11 -2
v -4 2 -2
v -4 3 -2
v -4 5 -2
v -4 11 -2
v -4 12 -2
v -3 2 -2
v -3 3 -2
v -3 4 -2
v -3 11 -2
v -3 12 -2
v -3 13 -2
v -3 14 -2
v -2 3 -2
v -2 4 -2
v -2 5 -2
v -2 13 -2
v -2 14 -2
v -1 14 -2
v -1 15 -2
v 1 14 -2
v 1 15 -2
v 2 3 -2
v 2 4 -2
v 2 5 -2
v 2 13 -2
v 2 14 -2
v 3 2 -2
v 3 3 -2
v 3 4 -2
v 3 11 -2
v 3 12 -2
v 3 13 -2
v 3 14 -2
v 4 2 -2
v 4 3 -2
v 4 5 -2
v 4 11 -2
v 4 12 -2
v 5 5 -2
v 5 11 -2
v -4 5 -3
v -4 11 -3
v -3 2 -3
v -3 3 -3
v -3 11 -3
v -3 13 -3
v -2 2 -3
v -2 3 -3
v -2 4 -3
v -2 10 -3
v -2 12 -3
v -2 13 -3
v -2 14 -3
v -1 9 -3
v -1 10 -3
v -1 12 -3
v -1 13 -3
v 1 9 -3
v 1 10 -3
v 1 12 -3
v 1 13 -3
v 2 2 -3
v 2 3 -3
v 2 4 -3
v 2 10 -3
v 2 12 -3
v 2 13 -3
v 2 14 -3
v 3 2 -3
v 3 3 -3
v 3 11 -3
v 3 13 -3
v 4 5 -3
v 4 11 -3
v -2 2 -4
v -2 3 -4
v -2 10 -4
v -2 12 -4
v -1 9 -4
v -1 10 -4
v -1 12 -4
v -1 13 -4
v 1 9 -4
v 1 10 -4
v 1 12 -4
v 1 13 -4
v 2 2 -4
v 2 3 -4
v 2 10 -4
v 2 12 -4
v -2 0 1
v -1 0 1
v 1 0 1
v 2 0 1
v -2 0 -0
v -1 0 -0
v 1 0 -0
v 2 0 -0
v -2 2 4
v 2 2 4
v -3 2 3
v -2 2 3
v 2 2 3
v 3 2 3
v -4 2 2
v -3 2 2
v 3 2 2
v 4 2 2
v -2 2 1
v -1 2 1
v 1 2 1
v 2 2 1
v -2 2 -0
v -1 2 -0
v 1 2 -0
v 2 2 -0
v -4 2 -2
v -3 2 -2
v 3 2 -2
v 4 2 -2
v -3 2 -3
v -2 2 -3
v 2 2 -3
v 3 2 -3
v -2 2 -4
v 2 2 -4
v -4 4 1
v -3 4 1
v 3 4 1
v 4 4 1
v -4 4 -0
v -3 4 -0
v 3 4 -0
v 4 4 -0
v -5 5 2
v -4 5 2
v 4 5 2
v 5 5 2
v -4 5 1
v -3 5 1
v -2 5 1
v 2 5 1
v 3 5 1
v 4 5 1
v -4 5 -0
v -3 5 -0
v -2 5 -0
v 2 5 -0
v 3 5 -0
v 4 5 -0
v -5 5 -2
v -4 5 -2
v -2 5 -2
v 2 5 -2
v 4 5 -2
v 5 5 -2
v -4 5 -3
v 4 5 -3
v -4 7 3
v -3 7 3
v 3 7 3
v 4 7 3
v -4 7 2
v -3 7 2
v -2 7 2
v 2 7 2
v 3 7 2
v 4 7 2
v -4 7 -2
v -2 7 -2
v 2 7 -2
v 4 7 -2
v -1 9 -3
v 1 9 -3
v -1 9 -4
v 1 9 -4
v -2 10 -3
v -1 10 -3
v 1 10 -3
v 2 10 -3
v -2 10 -4
v -1 10 -4
v 1 10 -4
v 2 10 -4
v -2 11 4
v 2 11 4
v -3 11 3
v -2 11 3
v 2 11 3
v 3 11 3
v -3 11 2
v 3 11 2
v -2 3 4
v 2 3 4
v -3 3 3
v -2 3 3
v 2 3 3
v 3 3 3
v -4 3 2
v -3 3 2
v -2 3 2
v 2 3 2
v 3 3 2
v 4 3 2
v -4 3 -2
v -3 3 -2
v -2 3 -2
v 2 3 -2
v 3 3 -2
v 4 3 -2
v -3 3 -3
v -2 3 -3
v 2 3 -3
v 3 3 -3
v -2 3 -4
v 2 3 -4
v -2 4 3
v 2 4 3
v -3 4 2
v -2 4 2
v 2 4 2
v 3 4 2
v -3 4 1
v 3 4 1
v -3 4 -0
v 3 4 -0
v -3 4 -2
v -2 4 -2
v 2 4 -2
v 3 4 -2
v -2 4 -3
v 2 4 -3
v -4 5 1
v -3 5 1
v 3 5 1
v 4 5 1
v -4 5 -0
v -3 5 -0
v 3 5 -0
v 4 5 -0
v -3 6 1
v -2 6 1
v 2 6 1
v 3 6 1
v -3 6 -0
v -2 6 -0
v 2 6 -0
v 3 6 -0
v -4 11 3
v -3 11 3
v 3 11 3
v 4 11 3
v -5 11 2
v -4 11 2
v -3 11 2
v 3 11 2
v 4 11 2
v 5 11 2
v -5 11 -2
v -4 11 -2
v -3 11 -2
v 3 11 -2
v 4 11 -2
v 5 11 -2
v -4 11 -3
v -3 11 -3
v 3 11 -3
v 4 11 -3
v -2 12 4
v -1 12 4
v 1 12 4
v 2 12 4
v -2 12 3
v -1 12 3
v 1 12 3
v 2 12 3
v -4 12 2
v -3 12 2
v 3 12 2
v 4 12 2
v -4 12 1
v -3 12 1
v 3 12 1
v 4 12 1
v -4 12 -1
v -3 12 -1
v 3 12 -1
v 4 12 -1
v -4 12 -2
v -3 12 -2
v 3 12 -2
v 4 12 -2
v -2 12 -3
v -1 12 -3
v 1 12 -3
v 2 12 -3
v -2 12 -4
v -1 12 -4
v 1 12 -4
v 2 12 -4
v -1 13 4
v 1 13 4
v -3 13 3
v -2 13 3
v -1 13 3
v 1 13 3
v 2 13 3
v 3 13 3
v -3 13 2
v -2 13 2
v 2 13 2
v 3 13 2
v -4 13 1
v -3 13 1
v 3 13 1
v 4 13 1
v -4 13 -1
v -3 13 -1
v 3 13 -1
v 4 13 -1
v -3 13 -2
v -2 13 -2
v 2 13 -2
v 3 13 -2
v -3 13 -3
v -2 13 -3
v -1 13 -3
v 1 13 -3
v 2 13 -3
v 3 13 -3
v -1 13 -4
v 1 13 -4
v -2 14 3
v 2 14 3
v -3 14 2
v -2 14 2
v -1 14 2
v 1 14 2
v 2 14 2
v 3 14 2
v -2 14 1
v -1 14 1
v 1 14 1
v 2 14 1
v -2 14 -1
v -1 14 -1
v 1 14 -1
v 2 14 -1
v -3 14 -2
v -2 14 -2
v -1 14 -2
v 1 14 -2
v 2 14 -2
v 3 14 -2
v -2 14 -3
v 2 14 -3
v -1 15 2
v 1 15 2
v -2 15 1
v -1 15 1
v 1 15 1
v 2 15 1
v -2 15 -1
v -1 15 -1
v 1 15 -1
v 2 15 -1
v -1 15 -2
v 1 15 -2

# faces
f 3/2/1 2/2/1 1/2/1
f 4/2/1 2/2/1 3/2/1
f 7/3/1 6/3/1 5/3/1
f 8/3/1 6/3/1 7/3/1
f 11/1/1 10/1/1 9/1/1
f 12/1/1 10/1/1 11/1/1
f 17/2/1 16/2/1 15/2/1
f 18/2/1 16/2/1 17/2/1
f 19/2/1 14/2/1 13/2/1
f 20/2/1 14/2/1 19/2/1
f 21/2/1 19/2/1 18/2/1
f 22/2/1 19/2/1 21/2/1
f 23/2/1 19/2/1 22/2/1
f 24/2/1 19/2/1 23/2/1
f 25/2/1 23/2/1 22/2/1
f 26/2/1 23/2/1 25/2/1
f 31/3/1 28/3/1 27/3/1
f 32/3/1 28/3/1 31/3/1
f 33/3/1 30/3/1 29/3/1
f 34/3/1 30/3/1 33/3/1
f 35/3/1 33/3/1 32/3/1
f 36/3/1 33/3/1 35/3/1
f 37/3/1 33/3/1 36/3/1
f 38/3/1 33/3/1 37/3/1
f 41/1/1 40/1/1 39/1/1
f 42/1/1 40/1/1 41/1/1
f 47/2/1 44/2/1 43/2/1
f 50/2/1 46/2/1 45/2/1
f 51/2/1 48/2/1 47/2/1
f 51/2/1 47/2/1 43/2/1
f 52/2/1 48/2/1 51/2/1
f 53/2/1 48/2/1 52/2/1
f 54/2/1 50/2/1 49/2/1
f 55/2/1 46/2/1 50/2/1
f 55/2/1 50/2/1 54/2/1
f 56/2/1 46/2/1 55/2/1
f 57/2/1 53/2/1 52/2/1
f 57/2/1 54/2/1 53/2/1
f 57/2/1 55/2/1 54/2/1
f 58/2/1 55/2/1 57/2/1
f 61/5/1 60/5/1 59/5/1
f 62/5/1 60/5/1 61/5/1
f 65/1/1 62/1/1 61/1/1
f 66/1/1 62/1/1 65/1/1
f 69/3/1 64/3/1 63/3/1
f 70/3/1 64/3/1 69/3/1
f 73/3/1 68/3/1 67/3/1
f 74/3/1 68/3/1 73/3/1
f 75/3/1 71/3/1 70/3/1
f 76/3/1 71/3/1 75/3/1
f 77/3/1 73/3/1 72/3/1
f 78/3/1 73/3/1 77/3/1
f 79/3/1 77/3/1 76/3/1
f 80/3/1 77/3/1 79/3/1
f 81/3/1 77/3/1 80/3/1
f 82/3/1 77/3/1 81/3/1
f 83/4/1 80/4/1 79/4/1
f 84/4/1 82/4/1 81/4/1
f 85/4/1 83/4/1 79/4/1
f 85/4/1 84/4/1 83/4/1
f 86/4/1 82/4/1 84/4/1
f 86/4/1 84/4/1 85/4/1
f 91/2/1 90/2/1 89/2/1
f 92/2/1 90/2/1 91/2/1
f 93/2/1 88/2/1 87/2/1
f 94/2/1 88/2/1 93/2/1
f 99/2/1 96/2/1 95/2/1
f 100/2/1 96/2/1 99/2/1
f 103/2/1 98/2/1 97/2/1
f 104/2/1 98/2/1 103/2/1
f 105/2/1 102/2/1 101/2/1
f 106/2/1 102/2/1 105/2/1
f 109/2/1 108/2/1 107/2/1
f 110/2/1 108/2/1 109/2/1
f 115/2/1 112/2/1 111/2/1
f 116/2/1 112/2/1 115/2/1
f 117/2/1 114/2/1 113/2/1
f 118/2/1 114/2/1 117/2/1
f 123/2/1 120/2/1 119/2/1
f 124/2/1 120/2/1 123/2/1
f 125/2/1 122/2/1 121/2/1
f 126/2/1 122/2/1 125/2/1
f 129/5/1 128/5/1 127/5/1
f 130/5/1 128/5/1 129/5/1
f 131/1/1 130/1/1 129/1/1
f 132/1/1 130/1/1 131/1/1
f 135/1/1 134/1/1 133/1/1
f 136/1/1 134/1/1 135/1/1
f 139/2/1 138/2/1 137/2/1
f 140/2/1 138/2/1 139/2/1
f 145/2/1 142/2/1 141/2/1
f 145/2/1 144/2/1 143/2/1
f 145/2/1 143/2/1 142/2/1
f 146/2/1 144/2/1 145/2/1
f 147/2/2 148/2/2 151/2/2
f 149/2/2 150/2/2 151/2/2
f 148/2/2 149/2/2 151/2/2
f 151/2/2 150/2/2 152/2/2
f 153/1/2 154/1/2 155/1/2
f 155/1/2 154/1/2 156/1/2
f 157/2/2 158/2/2 159/2/2
f 159/2/2 158/2/2 160/2/2
f 161/5/2 162/5/2 163/5/2
f 163/5/2 162/5/2 164/5/2
f 163/1/2 164/1/2 165/1/2
f 165/1/2 164/1/2 166/1/2
f 167/2/2 168/2/2 169/2/2
f 169/2/2 168/2/2 170/2/2
f 171/2/2 172/2/2 175/2/2
f 175/2/2 172/2/2 176/2/2
f 173/2/2 174/2/2 177/2/2
f 177/2/2 174/2/2 178/2/2
f 179/2/2 180/2/2 183/2/2
f 183/2/2 180/2/2 184/2/2
f 181/2/2 182/2/2 185/2/2
f 185/2/2 182/2/2 186/2/2
f 187/5/2 188/5/2 189/5/2
f 189/5/2 188/5/2 190/5/2
f 189/1/2 190/1/2 193/1/2
f 193/1/2 190/1/2 194/1/2
f 191/3/2 192/3/2 197/3/2
f 197/3/2 192/3/2 198/3/2
f 195/3/2 196/3/2 201/3/2
f 201/3/2 196/3/2 202/3/2
f 198/3/2 199/3/2 203/3/2
f 203/3/2 199/3/2 204/3/2
f 200/3/2 201/3/2 205/3/2
f 205/3/2 201/3/2 206/3/2
f 204/3/2 205/3/2 207/3/2
f 207/3/2 205/3/2 208/3/2
f 208/3/2 205/3/2 209/3/2
f 209/3/2 205/3/2 210/3/2
f 207/4/2 208/4/2 211/4/2
f 209/4/2 210/4/2 212/4/2
f 207/4/2 211/4/2 213/4/2
f 211/4/2 212/4/2 213/4/2
f 212/4/2 210/4/2 214/4/2
f 213/4/2 212/4/2 214/4/2
f 217/2/2 218/2/2 219/2/2
f 219/2/2 218/2/2 220/2/2
f 215/2/2 216/2/2 221/2/2
f 221/2/2 216/2/2 222/2/2
f 223/2/2 224/2/2 227/2/2
f 227/2/2 224/2/2 228/2/2
f 225/2/2 226/2/2 231/2/2
f 231/2/2 226/2/2 232/2/2
f 229/2/2 230/2/2 233/2/2
f 233/2/2 230/2/2 234/2/2
f 235/3/2 236/3/2 239/3/2
f 239/3/2 236/3/2 240/3/2
f 237/3/2 238/3/2 241/3/2
f 241/3/2 238/3/2 242/3/2
f 240/3/2 241/3/2 243/3/2
f 243/3/2 241/3/2 244/3/2
f 244/3/2 241/3/2 245/3/2
f 245/3/2 241/3/2 246/3/2
f 247/1/2 248/1/2 249/1/2
f 249/1/2 248/1/2 250/1/2
f 251/2/2 252/2/2 255/2/2
f 253/2/2 254/2/2 258/2/2
f 255/2/2 256/2/2 259/2/2
f 251/2/2 255/2/2 259/2/2
f 259/2/2 256/2/2 260/2/2
f 260/2/2 256/2/2 261/2/2
f 257/2/2 258/2/2 262/2/2
f 258/2/2 254/2/2 263/2/2
f 262/2/2 258/2/2 263/2/2
f 263/2/2 254/2/2 264/2/2
f 260/2/2 261/2/2 265/2/2
f 261/2/2 262/2/2 265/2/2
f 262/2/2 263/2/2 265/2/2
f 265/2/2 263/2/2 266/2/2
f 267/3/2 268/3/2 269/3/2
f 269/3/2 268/3/2 270/3/2
f 271/1/2 272/1/2 273/1/2
f 273/1/2 272/1/2 274/1/2
f 277/2/2 278/2/2 279/2/2
f 279/2/2 278/2/2 280/2/2
f 275/2/2 276/2/2 281/2/2
f 281/2/2 276/2/2 282/2/2
f 280/2/2 281/2/2 283/2/2
f 283/2/2 281/2/2 284/2/2
f 284/2/2 281/2/2 285/2/2
f 285/2/2 281/2/2 286/2/2
f 284/2/2 285/2/2 287/2/2
f 287/2/2 285/2/2 288/2/2
f 289/2/2 290/2/2 291/2/2
f 291/2/2 290/2/2 292/2/2
f 297/2/3 296/2/3 295/2/3
f 299/2/3 297/2/3 295/2/3
f 299/2/3 298/2/3 297/2/3
f 300/2/3 298/2/3 299/2/3
f 301/3/3 294/3/3 293/3/3
f 302/3/3 294/3/3 301/3/3
f 303/2/3 299/2/3 295/2/3
f 304/2/3 299/2/3 303/2/3
f 309/2/3 306/2/3 305/2/3
f 310/2/3 306/2/3 309/2/3
f 312/3/3 308/3/3 307/3/3
f 313/3/3 308/3/3 312/3/3
f 315/2/3 311/2/3 310/2/3
f 316/2/3 311/2/3 315/2/3
f 317/2/3 311/2/3 316/2/3
f 319/2/3 318/2/3 317/2/3
f 319/2/3 317/2/3 316/2/3
f 320/2/3 318/2/3 319/2/3
f 322/2/3 318/2/3 320/2/3
f 324/3/3 314/3/3 313/3/3
f 325/3/3 314/3/3 324/3/3
f 327/2/3 322/2/3 321/2/3
f 328/2/3 318/2/3 322/2/3
f 328/2/3 322/2/3 327/2/3
f 329/2/3 318/2/3 328/2/3
f 330/3/3 324/3/3 323/3/3
f 331/3/3 324/3/3 330/3/3
f 333/2/3 327/2/3 326/2/3
f 333/2/3 328/2/3 327/2/3
f 334/2/3 328/2/3 333/2/3
f 335/2/3 333/2/3 332/2/3
f 336/2/3 333/2/3 335/2/3
f 341/2/3 338/2/3 337/2/3
f 342/2/3 338/2/3 341/2/3
f 343/2/3 338/2/3 342/2/3
f 345/3/3 340/3/3 339/3/3
f 346/3/3 340/3/3 345/3/3
f 349/2/3 344/2/3 343/2/3
f 350/2/3 344/2/3 349/2/3
f 353/3/3 347/3/3 346/3/3
f 354/3/3 347/3/3 353/3/3
f 356/1/3 349/1/3 348/1/3
f 357/1/3 349/1/3 356/1/3
f 358/1/3 349/1/3 357/1/3
f 359/2/3 352/2/3 351/2/3
f 360/2/3 352/2/3 359/2/3
f 361/1/3 357/1/3 356/1/3
f 361/6/3 358/6/3 357/6/3
f 362/1/3 349/1/3 358/1/3
f 362/6/3 358/6/3 361/6/3
f 365/1/3 361/1/3 356/1/3
f 365/1/3 362/1/3 361/1/3
f 366/1/3 349/1/3 362/1/3
f 366/1/3 362/1/3 365/1/3
f 367/2/3 364/2/3 363/2/3
f 368/2/3 364/2/3 367/2/3
f 370/3/3 355/3/3 354/3/3
f 371/4/3 356/4/3 355/4/3
f 371/3/3 355/3/3 370/3/3
f 372/1/3 365/1/3 356/1/3
f 372/4/3 356/4/3 371/4/3
f 373/6/3 366/6/3 365/6/3
f 373/1/3 365/1/3 372/1/3
f 374/1/3 349/1/3 366/1/3
f 374/6/3 366/6/3 373/6/3
f 378/3/3 370/3/3 369/3/3
f 379/3/3 370/3/3 378/3/3
f 380/1/3 373/1/3 372/1/3
f 380/1/3 374/1/3 373/1/3
f 381/1/3 349/1/3 374/1/3
f 381/1/3 374/1/3 380/1/3
f 383/2/3 376/2/3 375/2/3
f 384/2/3 376/2/3 383/2/3
f 385/3/3 378/3/3 377/3/3
f 386/3/3 378/3/3 385/3/3
f 389/2/3 382/2/3 381/2/3
f 390/2/3 382/2/3 389/2/3
f 391/2/3 388/2/3 387/2/3
f 391/2/3 389/2/3 388/2/3
f 392/2/3 389/2/3 391/2/3
f 397/1/3 394/1/3 393/1/3
f 398/1/3 394/1/3 397/1/3
f 400/2/3 396/2/3 395/2/3
f 401/2/3 396/2/3 400/2/3
f 405/1/3 399/1/3 398/1/3
f 406/1/3 399/1/3 405/1/3
f 409/5/3 403/5/3 402/5/3
f 410/1/3 404/1/3 403/1/3
f 410/5/3 403/5/3 409/5/3
f 411/1/3 404/1/3 410/1/3
f 412/2/3 408/2/3 407/2/3
f 413/2/3 408/2/3 412/2/3
f 419/5/3 415/5/3 414/5/3
f 420/1/3 416/1/3 415/1/3
f 420/5/3 415/5/3 419/5/3
f 421/1/3 416/1/3 420/1/3
f 424/2/3 418/2/3 417/2/3
f 425/2/3 418/2/3 424/2/3
f 427/1/3 423/1/3 422/1/3
f 428/1/3 423/1/3 427/1/3
f 431/1/3 427/1/3 426/1/3
f 432/1/3 427/1/3 431/1/3
f 433/2/3 430/2/3 429/2/3
f 434/2/3 430/2/3 433/2/3
f 437/2/3 436/2/3 435/2/3
f 438/2/3 436/2/3 437/2/3
f 441/2/3 440/2/3 439/2/3
f 442/2/3 440/2/3 441/2/3
f 443/1/4 444/1/4 445/1/4
f 445/1/4 444/1/4 446/1/4
f 446/1/4 447/1/4 451/1/4
f 451/1/4 447/1/4 452/1/4
f 448/5/4 449/5/4 453/5/4
f 449/1/4 450/1/4 454/1/4
f 453/5/4 449/5/4 454/5/4
f 454/1/4 450/1/4 455/1/4
f 456/5/4 457/5/4 459/5/4
f 457/1/4 458/1/4 460/1/4
f 459/5/4 457/5/4 460/5/4
f 460/1/4 458/1/4 461/1/4
f 462/1/4 463/1/4 465/1/4
f 465/1/4 463/1/4 466/1/4
f 464/1/4 465/1/4 467/1/4
f 467/1/4 465/1/4 468/1/4
f 469/2/4 470/2/4 471/2/4
f 471/2/4 470/2/4 472/2/4
f 473/2/4 474/2/4 475/2/4
f 475/2/4 474/2/4 476/2/4
f 477/2/4 478/2/4 479/2/4
f 479/2/4 478/2/4 480/2/4
f 481/2/4 482/2/4 483/2/4
f 483/2/4 482/2/4 484/2/4
f 485/2/4 486/2/4 489/2/4
f 489/2/4 486/2/4 490/2/4
f 487/3/4 488/3/4 492/3/4
f 492/3/4 488/3/4 493/3/4
f 490/2/4 491/2/4 495/2/4
f 495/2/4 491/2/4 496/2/4
f 493/3/4 494/3/4 499/3/4
f 499/3/4 494/3/4 500/3/4
f 497/2/4 498/2/4 502/2/4
f 502/2/4 498/2/4 503/2/4
f 504/2/4 505/2/4 506/2/4
f 506/2/4 505/2/4 507/2/4
f 500/3/4 501/3/4 509/3/4
f 509/3/4 501/3/4 510/3/4
f 508/3/4 509/3/4 514/3/4
f 514/3/4 509/3/4 515/3/4
f 511/2/4 512/2/4 518/2/4
f 518/2/4 512/2/4 519/2/4
f 513/3/4 514/3/4 520/3/4
f 520/3/4 514/3/4 521/3/4
f 516/2/4 517/2/4 523/2/4
f 523/2/4 517/2/4 524/2/4
f 522/2/4 523/2/4 525/2/4
f 525/2/4 523/2/4 526/2/4
f 527/2/4 528/2/4 531/2/4
f 529/3/4 530/3/4 533/3/4
f 533/3/4 530/3/4 534/3/4
f 531/2/4 532/2/4 536/2/4
f 527/2/4 531/2/4 536/2/4
f 536/2/4 532/2/4 537/2/4
f 537/2/4 532/2/4 538/2/4
f 527/2/4 536/2/4 540/2/4
f 540/2/4 536/2/4 541/2/4
f 538/2/4 539/2/4 542/2/4
f 537/2/4 538/2/4 542/2/4
f 542/2/4 539/2/4 543/2/4
f 527/2/4 540/2/4 544/2/4
f 543/2/4 539/2/4 547/2/4
f 534/3/4 535/3/4 549/3/4
f 549/3/4 535/3/4 550/3/4
f 544/2/4 545/2/4 551/2/4
f 546/2/4 547/2/4 552/2/4
f 547/2/4 539/2/4 553/2/4
f 552/2/4 547/2/4 553/2/4
f 553/2/4 539/2/4 554/2/4
f 548/3/4 549/3/4 555/3/4
f 555/3/4 549/3/4 556/3/4
f 551/2/4 552/2/4 557/2/4
f 552/2/4 553/2/4 557/2/4
f 557/2/4 553/2/4 558/2/4
f 544/2/4 551/2/4 559/2/4
f 527/2/4 544/2/4 559/2/4
f 551/2/4 557/2/4 559/2/4
f 559/2/4 557/2/4 560/2/4
f 563/2/4 564/2/4 566/2/4
f 566/2/4 564/2/4 567/2/4
f 565/2/4 566/2/4 569/2/4
f 567/2/4 568/2/4 569/2/4
f 566/2/4 567/2/4 569/2/4
f 569/2/4 568/2/4 570/2/4
f 570/2/4 568/2/4 571/2/4
f 571/2/4 568/2/4 572/2/4
f 561/3/4 562/3/4 573/3/4
f 573/3/4 562/3/4 574/3/4
f 570/2/4 571/2/4 575/2/4
f 575/2/4 571/2/4 576/2/4
f 581/5/5 578/5/5 577/5/5
f 582/5/5 578/5/5 581/5/5
f 583/5/5 580/5/5 579/5/5
f 584/5/5 580/5/5 583/5/5
f 588/3/5 586/3/5 585/3/5
f 589/3/5 586/3/5 588/3/5
f 592/3/5 588/3/5 587/3/5
f 592/3/5 590/3/5 589/3/5
f 592/3/5 589/3/5 588/3/5
f 593/3/5 590/3/5 592/3/5
f 595/3/5 592/3/5 591/3/5
f 595/3/5 594/3/5 593/3/5
f 595/3/5 593/3/5 592/3/5
f 596/3/5 594/3/5 595/3/5
f 597/3/5 594/3/5 596/3/5
f 598/3/5 594/3/5 597/3/5
f 599/3/5 595/3/5 591/3/5
f 600/3/5 597/3/5 596/3/5
f 601/3/5 597/3/5 600/3/5
f 602/3/5 594/3/5 598/3/5
f 603/3/5 601/3/5 600/3/5
f 603/3/5 602/3/5 601/3/5
f 603/3/5 599/3/5 591/3/5
f 603/3/5 600/3/5 599/3/5
f 604/3/5 602/3/5 603/3/5
f 605/3/5 594/3/5 602/3/5
f 605/3/5 602/3/5 604/3/5
f 606/3/5 594/3/5 605/3/5
f 607/3/5 605/3/5 604/3/5
f 608/3/5 605/3/5 607/3/5
f 609/3/5 605/3/5 608/3/5
f 610/3/5 605/3/5 609/3/5
f 611/3/5 609/3/5 608/3/5
f 612/3/5 609/3/5 611/3/5
f 617/1/5 614/1/5 613/1/5
f 618/1/5 614/1/5 617/1/5
f 619/1/5 616/1/5 615/1/5
f 620/1/5 616/1/5 619/1/5
f 625/2/5 622/2/5 621/2/5
f 630/2/5 624/2/5 623/2/5
f 631/2/5 625/2/5 621/2/5
f 632/1/5 627/1/5 626/1/5
f 633/1/5 627/1/5 632/1/5
f 634/1/5 629/1/5 628/1/5
f 635/1/5 629/1/5 634/1/5
f 636/2/5 624/2/5 630/2/5
f 637/2/5 631/2/5 621/2/5
f 638/2/5 631/2/5 637/2/5
f 641/2/5 624/2/5 636/2/5
f 642/2/5 624/2/5 641/2/5
f 643/2/5 640/2/5 639/2/5
f 643/2/5 641/2/5 640/2/5
f 643/2/5 639/2/5 638/2/5
f 644/2/5 641/2/5 643/2/5
f 649/2/5 646/2/5 645/2/5
f 650/2/5 646/2/5 649/2/5
f 653/2/5 648/2/5 647/2/5
f 654/2/5 648/2/5 653/2/5
f 655/1/5 651/1/5 650/1/5
f 655/1/5 650/1/5 649/1/5
f 656/1/5 651/1/5 655/1/5
f 657/1/5 654/1/5 653/1/5
f 657/1/5 653/1/5 652/1/5
f 658/1/5 654/1/5 657/1/5
f 661/2/5 660/2/5 659/2/5
f 662/2/5 660/2/5 661/2/5
f 667/2/5 664/2/5 663/2/5
f 668/2/5 664/2/5 667/2/5
f 669/2/5 666/2/5 665/2/5
f 670/2/5 666/2/5 669/2/5
f 674/2/5 672/2/5 671/2/5
f 675/2/5 672/2/5 674/2/5
f 677/2/5 674/2/5 673/2/5
f 677/2/5 676/2/5 675/2/5
f 677/2/5 675/2/5 674/2/5
f 678/2/5 676/2/5 677/2/5
f 679/3/6 680/3/6 682/3/6
f 682/3/6 680/3/6 683/3/6
f 681/3/6 682/3/6 686/3/6
f 686/3/6 682/3/6 687/3/6
f 683/3/6 684/3/6 688/3/6
f 688/3/6 684/3/6 689/3/6
f 685/3/6 686/3/6 691/3/6
f 691/3/6 686/3/6 692/3/6
f 689/3/6 690/3/6 695/3/6
f 695/3/6 690/3/6 696/3/6
f 692/3/6 693/3/6 697/3/6
f 697/3/6 693/3/6 698/3/6
f 694/3/6 695/3/6 699/3/6
f 699/3/6 695/3/6 700/3/6
f 698/3/6 699/3/6 701/3/6
f 701/3/6 699/3/6 702/3/6
f 703/3/6 704/3/6 706/3/6
f 706/3/6 704/3/6 707/3/6
f 705/3/6 706/3/6 709/3/6
f 707/3/6 708/3/6 710/3/6
f 709/3/6 706/3/6 711/3/6
f 707/3/6 710/3/6 712/3/6
f 711/3/6 706/3/6 713/3/6
f 713/3/6 706/3/6 714/3/6
f 707/3/6 712/3/6 715/3/6
f 715/3/6 712/3/6 716/3/6
f 714/3/6 715/3/6 717/3/6
f 717/3/6 715/3/6 718/3/6
f 719/1/6 720/1/6 723/1/6
f 723/1/6 720/1/6 724/1/6
f 721/1/6 722/1/6 725/1/6
f 725/1/6 722/1/6 726/1/6
f 727/1/6 728/1/6 731/1/6
f 731/1/6 728/1/6 732/1/6
f 729/1/6 730/1/6 733/1/6
f 733/1/6 730/1/6 734/1/6
f 735/2/6 736/2/6 740/2/6
f 740/2/6 736/2/6 741/2/6
f 737/2/6 738/2/6 742/2/6
f 742/2/6 738/2/6 743/2/6
f 739/2/6 740/2/6 745/2/6
f 745/2/6 740/2/6 746/2/6
f 743/2/6 744/2/6 749/2/6
f 749/2/6 744/2/6 750/2/6
f 746/2/6 747/2/6 751/2/6
f 751/2/6 747/2/6 752/2/6
f 748/2/6 749/2/6 753/2/6
f 753/2/6 749/2/6 754/2/6
f 755/2/6 756/2/6 759/2/6
f 759/2/6 756/2/6 760/2/6
f 757/2/6 758/2/6 761/2/6
f 761/2/6 758/2/6 762/2/6
f 763/2/6 764/2/6 767/2/6
f 767/2/6 764/2/6 768/2/6
f 765/2/6 766/2/6 769/2/6
f 769/2/6 766/2/6 770/2/6
f 771/2/6 772/2/6 775/2/6
f 775/2/6 772/2/6 776/2/6
f 773/2/6 774/2/6 777/2/6
f 777/2/6 774/2/6 778/2/6
f 779/2/6 780/2/6 783/2/6
f 783/2/6 780/2/6 784/2/6
f 781/2/6 782/2/6 785/2/6
f 785/2/6 782/2/6 786/2/6
f 787/2/6 788/2/6 791/2/6
f 791/2/6 788/2/6 792/2/6
f 789/2/6 790/2/6 795/2/6
f 795/2/6 790/2/6 796/2/6
f 793/2/6 794/2/6 797/2/6
f 797/2/6 794/2/6 798/2/6
f 799/2/6 800/2/6 803/2/6
f 803/2/6 800/2/6 804/2/6
f 801/2/6 802/2/6 805/2/6
f 805/2/6 802/2/6 806/2/6
f 807/2/6 808/2/6 811/2/6
f 811/2/6 808/2/6 812/2/6
f 809/2/6 810/2/6 815/2/6
f 815/2/6 810/2/6 816/2/6
f 813/2/6 814/2/6 817/2/6
f 817/2/6 814/2/6 818/2/6
f 819/2/6 820/2/6 822/2/6
f 822/2/6 820/2/6 823/2/6
f 823/2/6 820/2/6 824/2/6
f 824/2/6 820/2/6 825/2/6
f 821/2/6 822/2/6 827/2/6
f 822/2/6 823/2/6 827/2/6
f 827/2/6 823/2/6 828/2/6
f 825/2/6 826/2/6 829/2/6
f 824/2/6 825/2/6 829/2/6
f 829/2/6 826/2/6 830/2/6
f 821/2/6 827/2/6 831/2/6
f 830/2/6 826/2/6 834/2/6
f 831/2/6 832/2/6 835/2/6
f 821/2/6 831/2/6 835/2/6
f 835/2/6 832/2/6 836/2/6
f 836/2/6 832/2/6 837/2/6
f 833/2/6 834/2/6 838/2/6
f 834/2/6 826/2/6 839/2/6
f 838/2/6 834/2/6 839/2/6
f 839/2/6 826/2/6 840/2/6
f 836/2/6 837/2/6 841/2/6
f 837/2/6 838/2/6 841/2/6
f 838/2/6 839/2/6 841/2/6
f 841/2/6 839/2/6 842/2/6
f 843/2/6 844/2/6 846/2/6
f 846/2/6 844/2/6 847/2/6
f 845/2/6 846/2/6 849/2/6
f 847/2/6 848/2/6 849/2/6
f 846/2/6 847/2/6 849/2/6
f 849/2/6 848/2/6 850/2/6
f 850/2/6 848/2/6 851/2/6
f 851/2/6 848/2/6 852/2/6
f 850/2/6 851/2/6 853/2/6
f 853/2/6 851/2/6 854/2/6
